<svg width="40" height="40" viewBox="0 0 40 40" fill="none" xmlns="http://www.w3.org/2000/svg">
<rect width="40" height="40" rx="5" fill="#EBF5EE"/>
<path d="M17.63 14.8103C19.13 11.1803 18.41 8.7803 18.35 8.6903C18.29 8.4803 18.08 8.3603 17.84 8.3903C17.72 8.4203 14.9 8.9303 12.47 12.8603C11.9 13.7603 11.48 14.3303 11.12 14.8103C10.37 15.7703 9.86002 16.4903 9.02002 18.7703V18.8003C8.45002 20.3903 7.91002 21.8603 8.39002 24.4703C8.42002 24.7103 8.66002 24.8903 8.90002 24.8303C9.14002 24.8003 9.32002 24.5603 9.26002 24.3203C8.84002 21.9503 9.32002 20.6303 9.86002 19.1003V19.0703C10.64 16.9103 11.12 16.2803 11.84 15.3503C12.23 14.8403 12.68 14.2703 13.25 13.3103C14.93 10.6103 16.76 9.6803 17.57 9.3803C17.69 10.1603 17.78 12.0203 16.76 14.4503C16.16 15.9203 16.13 16.4903 16.13 17.0903C16.13 17.6903 16.13 18.2903 15.41 20.0903C14.51 22.4003 13.16 23.1203 11.96 23.7803C11.57 23.9903 11.21 24.2003 10.88 24.4403L16.79 11.9003C16.88 11.6603 16.79 11.4203 16.58 11.3003C16.34 11.1803 16.1 11.3003 15.98 11.5103L7.67002 29.3603C7.58002 29.5703 7.67002 29.8403 7.88002 29.9603C7.94002 29.9903 8.03002 30.0203 8.09002 30.0203C8.24002 30.0203 8.39002 29.9303 8.48002 29.7803C9.35002 28.2803 10.85 25.7303 11.24 25.3703C11.57 25.0703 11.99 24.8303 12.47 24.5903C13.73 23.9003 15.29 23.0303 16.31 20.4203C17.06 18.5003 17.06 17.7503 17.09 17.1203C17.06 16.5803 17.09 16.1003 17.63 14.8103Z" fill="#12263A"/>
<path d="M20.9601 26.8705L24.5601 15.2905L25.1301 13.4305L25.5501 12.1105C25.7901 11.3005 25.4901 10.4905 24.8301 10.2805L23.1501 9.80047C22.8201 9.71047 22.4301 9.77047 22.1301 10.0105C21.8601 10.2205 21.6501 10.5205 21.5301 10.8805L21.1101 12.2005L20.5401 14.0605L16.9401 25.6405V25.6705V25.7005C16.9401 25.7305 16.9401 25.7605 16.9401 25.7905L17.3001 30.0805C17.3301 30.2605 17.4501 30.4105 17.6001 30.4705C17.6301 30.4705 17.6901 30.5005 17.7201 30.5005C17.8401 30.5005 17.9901 30.4405 18.0501 30.3505L20.8101 27.0505C20.9001 26.9905 20.9301 26.9605 20.9601 26.8705C20.9601 26.9005 20.9601 26.9005 20.9601 26.8705ZM20.2401 26.1805L17.9301 25.4605L21.2601 14.7505L23.5701 15.4705L20.2401 26.1805ZM21.5301 13.9105L21.8301 12.9205L24.1401 13.6405L23.8401 14.6305L21.5301 13.9105ZM22.3701 11.1505C22.4301 10.9705 22.5201 10.8205 22.6401 10.7305C22.7301 10.6705 22.7901 10.6405 22.8501 10.6705L24.5301 11.1805C24.6501 11.2105 24.7701 11.5105 24.6501 11.8705L24.3801 12.7705L22.1001 12.0505L22.3701 11.1505ZM18.0201 28.1305L18.6201 28.3105L18.1101 28.9105L18.0201 28.1305ZM19.2501 27.5905L17.9301 27.1705L17.8701 26.3905L19.7601 26.9605L19.2501 27.5905Z" fill="#12263A"/>
<path d="M31.55 10.2202C31.04 10.0702 30.29 10.3402 28.85 13.5202C27.89 15.6502 26.84 18.5302 25.88 21.6502L25.79 22.0102L25.16 24.1102C25.04 24.5302 25.07 24.9802 25.25 25.3702C25.31 25.4902 25.37 25.5802 25.46 25.6702C25.37 25.7002 25.31 25.7302 25.25 25.7902C24.71 26.0902 24.38 26.6002 24.26 27.2002C24.05 28.1902 23.3 28.6702 22.82 28.9702C22.52 29.1802 22.22 29.3602 22.25 29.7202C22.31 30.0802 22.67 30.1702 22.76 30.2302L22.88 30.2602C23.36 30.4102 24.26 30.6802 25.22 30.6802C25.79 30.6802 26.39 30.5902 26.9 30.2902C27.59 29.9002 28.1 29.2702 28.37 28.4002C28.55 27.8302 28.49 27.2002 28.25 26.6902C28.22 26.6302 28.19 26.5702 28.16 26.5402C28.67 26.3902 29.12 25.9702 29.3 25.3702L29.93 23.2702V23.2402L30.02 22.9102C30.95 19.7902 31.67 16.7902 32.03 14.4802C32.51 11.0002 32.06 10.3702 31.55 10.2202ZM27.47 28.1302C27.26 28.7902 26.93 29.2402 26.45 29.5102C25.58 29.9902 24.35 29.7502 23.57 29.5402C24.14 29.1502 24.86 28.5202 25.1 27.4102C25.16 27.0802 25.37 26.7802 25.67 26.6002C25.97 26.4202 26.33 26.3602 26.66 26.4502C26.96 26.5402 27.23 26.7802 27.38 27.0802C27.56 27.4102 27.56 27.7702 27.47 28.1302ZM27.5 25.6702L26.45 25.3702C26.27 25.3102 26.15 25.1902 26.06 25.0102C25.97 24.8302 25.94 24.5902 26.03 24.3802L26.24 23.6602L28.64 24.3802L28.4 25.1002C28.28 25.5202 27.86 25.7602 27.5 25.6702ZM29.12 22.6402L29.03 23.0002V23.0302L28.88 23.5102L26.48 22.7902L26.63 22.2802L26.75 21.9202C28.61 15.6502 30.53 11.7502 31.28 11.1502C31.55 12.0502 31.01 16.3702 29.12 22.6402Z" fill="#12263A"/>
</svg>
