<svg width="40" height="40" viewBox="0 0 40 40" fill="none" xmlns="http://www.w3.org/2000/svg">
<rect width="40" height="40" rx="5" fill="#EBF5EE"/>
<path d="M33.125 32.6562H31.25V31.25C31.2491 31.0849 31.2041 30.9231 31.1197 30.7812C31.2041 30.6394 31.2491 30.4776 31.25 30.3125V28.9062C31.2491 28.7412 31.2041 28.5794 31.1197 28.4375C31.2041 28.2956 31.2491 28.1338 31.25 27.9688V26.5625C31.2491 26.3974 31.2041 26.2356 31.1197 26.0938C31.2041 25.9519 31.2491 25.7901 31.25 25.625V24.2188C31.2491 24.0537 31.2041 23.8919 31.1197 23.75C31.2041 23.6081 31.2491 23.4463 31.25 23.2812V21.875C31.2491 21.7099 31.2041 21.5481 31.1197 21.4062C31.2041 21.2644 31.2491 21.1026 31.25 20.9375V19.5312C31.25 19.2826 31.1512 19.0442 30.9754 18.8683C30.7996 18.6925 30.5611 18.5938 30.3125 18.5938H25.625C25.3764 18.5938 25.1379 18.6925 24.9621 18.8683C24.7863 19.0442 24.6875 19.2826 24.6875 19.5312V20.9375C24.6884 21.1026 24.7334 21.2644 24.8178 21.4062C24.7334 21.5481 24.6884 21.7099 24.6875 21.875V23.2812C24.6884 23.4463 24.7334 23.6081 24.8178 23.75C24.7334 23.8919 24.6884 24.0537 24.6875 24.2188V25.625C24.6884 25.7901 24.7334 25.9519 24.8178 26.0938C24.7334 26.2356 24.6884 26.3974 24.6875 26.5625V27.9688C24.6884 28.1338 24.7334 28.2956 24.8178 28.4375C24.7334 28.5794 24.6884 28.7412 24.6875 28.9062V30.3125C24.6884 30.4776 24.7334 30.6394 24.8178 30.7812C24.7334 30.9231 24.6884 31.0849 24.6875 31.25V32.6562H23.2812V31.25C23.2803 31.0849 23.2353 30.9231 23.1509 30.7812C23.2353 30.6394 23.2803 30.4776 23.2812 30.3125V28.9062C23.2803 28.7412 23.2353 28.5794 23.1509 28.4375C23.2353 28.2956 23.2803 28.1338 23.2812 27.9688V26.5625C23.2803 26.3974 23.2353 26.2356 23.1509 26.0938C23.2353 25.9519 23.2803 25.7901 23.2812 25.625V24.2188C23.2812 23.9701 23.1825 23.7317 23.0067 23.5558C22.8308 23.38 22.5924 23.2812 22.3438 23.2812H17.6562C17.4076 23.2812 17.1692 23.38 16.9933 23.5558C16.8175 23.7317 16.7188 23.9701 16.7188 24.2188V25.625C16.7197 25.7901 16.7647 25.9519 16.8491 26.0938C16.7647 26.2356 16.7197 26.3974 16.7188 26.5625V27.9688C16.7197 28.1338 16.7647 28.2956 16.8491 28.4375C16.7647 28.5794 16.7197 28.7412 16.7188 28.9062V30.3125C16.7197 30.4776 16.7647 30.6394 16.8491 30.7812C16.7647 30.9231 16.7197 31.0849 16.7188 31.25V32.6562H15.3125V31.25C15.3116 31.0849 15.2666 30.9231 15.1822 30.7812C15.2666 30.6394 15.3116 30.4776 15.3125 30.3125V28.9062C15.3116 28.7412 15.2666 28.5794 15.1822 28.4375C15.2666 28.2956 15.3116 28.1338 15.3125 27.9688V26.5625C15.3125 26.3139 15.2137 26.0754 15.0379 25.8996C14.8621 25.7238 14.6236 25.625 14.375 25.625H9.6875C9.43886 25.625 9.2004 25.7238 9.02459 25.8996C8.84877 26.0754 8.75 26.3139 8.75 26.5625V27.9688C8.75094 28.1338 8.79592 28.2956 8.88031 28.4375C8.79592 28.5794 8.75094 28.7412 8.75 28.9062V30.3125C8.75094 30.4776 8.79592 30.6394 8.88031 30.7812C8.79592 30.9231 8.75094 31.0849 8.75 31.25V32.6562H6.875C6.75068 32.6562 6.63145 32.7056 6.54354 32.7935C6.45564 32.8815 6.40625 33.0007 6.40625 33.125C6.40625 33.2493 6.45564 33.3685 6.54354 33.4565C6.63145 33.5444 6.75068 33.5938 6.875 33.5938H33.125C33.2493 33.5938 33.3685 33.5444 33.4565 33.4565C33.5444 33.3685 33.5938 33.2493 33.5938 33.125C33.5938 33.0007 33.5444 32.8815 33.4565 32.7935C33.3685 32.7056 33.2493 32.6562 33.125 32.6562ZM9.6875 28.9062H14.375V30.3125H9.6875V28.9062ZM9.6875 26.5625H14.375V27.9688H9.6875V26.5625ZM9.6875 32.6562V31.25H14.375V32.6562H9.6875ZM17.6562 28.9062H22.3438V30.3125H17.6562V28.9062ZM17.6562 26.5625H22.3438V27.9688H17.6562V26.5625ZM17.6562 24.2188H22.3438V25.625H17.6562V24.2188ZM17.6562 32.6562V31.25H22.3438V32.6562H17.6562ZM25.625 28.9062H30.3125V30.3125H25.625V28.9062ZM25.625 26.5625H30.3125V27.9688H25.625V26.5625ZM25.625 24.2188H30.3125V25.625H25.625V24.2188ZM25.625 21.875H30.3125V23.2812H25.625V21.875ZM25.625 19.5312H30.3125V20.9375H25.625V19.5312ZM25.625 32.6562V31.25H30.3125V32.6562H25.625Z" fill="#12263A"/>
<path d="M6.875 22.3438H12.5C12.6109 22.3438 12.7182 22.3044 12.8028 22.2328L18.5684 17.3578L19.67 18.4588C19.7541 18.543 19.8671 18.5919 19.986 18.5959C20.1049 18.5998 20.2208 18.5583 20.3103 18.4799L27.6763 12.0313H31.9934L30.9186 13.1062C30.8738 13.1494 30.8381 13.2012 30.8135 13.2583C30.789 13.3155 30.7761 13.377 30.7755 13.4393C30.775 13.5015 30.7868 13.5633 30.8104 13.6209C30.834 13.6785 30.8688 13.7308 30.9128 13.7748C30.9568 13.8188 31.0091 13.8536 31.0667 13.8772C31.1243 13.9008 31.1861 13.9126 31.2483 13.9121C31.3106 13.9116 31.3721 13.8986 31.4293 13.8741C31.4864 13.8495 31.5382 13.8138 31.5814 13.769L33.4564 11.894C33.5443 11.8061 33.5937 11.6869 33.5937 11.5626C33.5937 11.4383 33.5443 11.3191 33.4564 11.2312L31.5814 9.35619C31.493 9.27081 31.3746 9.22356 31.2517 9.22463C31.1288 9.2257 31.0112 9.27499 30.9243 9.3619C30.8374 9.44881 30.7881 9.56638 30.787 9.68929C30.786 9.81219 30.8332 9.9306 30.9186 10.019L31.9934 11.0938H27.5C27.3863 11.0939 27.2766 11.1352 27.1911 11.2101L20.0192 17.4834L18.9233 16.3874C18.8401 16.3043 18.7288 16.2555 18.6113 16.2506C18.4938 16.2458 18.3788 16.2852 18.2891 16.3612L12.3284 21.4063H6.875C6.75068 21.4063 6.63145 21.4557 6.54354 21.5436C6.45564 21.6315 6.40625 21.7508 6.40625 21.8751C6.40625 21.9994 6.45564 22.1186 6.54354 22.2066C6.63145 22.2945 6.75068 22.3438 6.875 22.3438Z" fill="#12263A"/>
<path d="M8.75 12.5H9.6875C10.0605 12.5 10.4181 12.6482 10.6819 12.9119C10.9456 13.1756 11.0938 13.5333 11.0938 13.9062C11.0938 14.2792 10.9456 14.6369 10.6819 14.9006C10.4181 15.1643 10.0605 15.3125 9.6875 15.3125H7.34375C7.21943 15.3125 7.1002 15.3619 7.01229 15.4498C6.92439 15.5377 6.875 15.6569 6.875 15.7812C6.875 15.9056 6.92439 16.0248 7.01229 16.1127C7.1002 16.2006 7.21943 16.25 7.34375 16.25H8.75V17.1875C8.75 17.3118 8.79939 17.431 8.88729 17.519C8.9752 17.6069 9.09443 17.6562 9.21875 17.6562C9.34307 17.6562 9.4623 17.6069 9.55021 17.519C9.63811 17.431 9.6875 17.3118 9.6875 17.1875V16.25C10.3091 16.25 10.9052 16.0031 11.3448 15.5635C11.7843 15.124 12.0312 14.5279 12.0312 13.9062C12.0312 13.2846 11.7843 12.6885 11.3448 12.249C10.9052 11.8094 10.3091 11.5625 9.6875 11.5625H8.75C8.37704 11.5625 8.01935 11.4143 7.75563 11.1506C7.49191 10.8869 7.34375 10.5292 7.34375 10.1562C7.34375 9.78329 7.49191 9.4256 7.75563 9.16188C8.01935 8.89816 8.37704 8.75 8.75 8.75H10.625C10.7493 8.75 10.8685 8.70061 10.9565 8.61271C11.0444 8.5248 11.0938 8.40557 11.0938 8.28125C11.0938 8.15693 11.0444 8.0377 10.9565 7.94979C10.8685 7.86189 10.7493 7.8125 10.625 7.8125H9.6875V6.875C9.6875 6.75068 9.63811 6.63145 9.55021 6.54354C9.4623 6.45564 9.34307 6.40625 9.21875 6.40625C9.09443 6.40625 8.9752 6.45564 8.88729 6.54354C8.79939 6.63145 8.75 6.75068 8.75 6.875V7.8125C8.1284 7.8125 7.53226 8.05943 7.09272 8.49897C6.65318 8.93851 6.40625 9.53465 6.40625 10.1562C6.40625 10.7779 6.65318 11.374 7.09272 11.8135C7.53226 12.2531 8.1284 12.5 8.75 12.5Z" fill="#12263A"/>
</svg>
