<svg width="40" height="40" viewBox="0 0 40 40" fill="none" xmlns="http://www.w3.org/2000/svg">
<rect width="40" height="40" rx="5" fill="#EBF5EE"/>
<g clip-path="url(#clip0)">
<path d="M32.7032 17.7034C32.1764 17.7044 31.666 17.8863 31.2573 18.2187C30.8486 18.551 30.5664 19.0137 30.4579 19.5291H26.0728C25.9738 18.2402 25.4655 17.0166 24.622 16.037L27.7321 12.9315C28.1725 13.2206 28.6991 13.3488 29.223 13.2946C29.7469 13.2404 30.2361 13.007 30.6079 12.6338C30.9138 12.3275 31.1267 11.9408 31.2219 11.5185C31.3172 11.0962 31.2909 10.6556 31.1461 10.2476C31.0014 9.83962 30.744 9.48098 30.4039 9.21318C30.0637 8.94539 29.6547 8.77938 29.2242 8.73439C28.7936 8.6894 28.3591 8.76725 27.971 8.95895C27.5828 9.15064 27.2569 9.44833 27.0309 9.81757C26.8049 10.1868 26.6881 10.6125 26.694 11.0454C26.6999 11.4782 26.8282 11.9006 27.0642 12.2635L23.9587 15.3737C22.9791 14.5302 21.7555 14.0218 20.4665 13.9229V9.53774C21.0223 9.42176 21.5153 9.10383 21.8503 8.64544C22.1853 8.18705 22.3385 7.62073 22.2802 7.05598C22.2219 6.49123 21.9562 5.96815 21.5347 5.58785C21.1131 5.20756 20.5655 4.99707 19.9978 4.99707C19.43 4.99707 18.8824 5.20756 18.4608 5.58785C18.0393 5.96815 17.7737 6.49123 17.7154 7.05598C17.6571 7.62073 17.8102 8.18705 18.1452 8.64544C18.4802 9.10383 18.9732 9.42176 19.529 9.53774V13.9229C18.24 14.0218 17.0165 14.5302 16.0368 15.3737L12.9313 12.2635C13.1682 11.9009 13.2975 11.4787 13.3043 11.0456C13.311 10.6126 13.1949 10.1865 12.9695 9.81669C12.744 9.4469 12.4184 9.14855 12.0304 8.9562C11.6423 8.76385 11.2077 8.68536 10.7769 8.72984C10.3461 8.77432 9.93674 8.93994 9.59619 9.20751C9.25564 9.47509 8.99786 9.83367 8.85271 10.2417C8.70757 10.6498 8.681 11.0906 8.77607 11.5131C8.87115 11.9357 9.08399 12.3226 9.38994 12.6291C9.761 13.0024 10.2494 13.2363 10.7729 13.2914C11.2963 13.3465 11.8227 13.2194 12.2634 12.9315L15.3735 16.037C14.53 17.0166 14.0217 18.2402 13.9228 19.5291H9.5376C9.42161 18.9734 9.10369 18.4803 8.6453 18.1453C8.1869 17.8103 7.62059 17.6572 7.05584 17.7155C6.49108 17.7738 5.968 18.0394 5.58771 18.461C5.20742 18.8826 4.99693 19.4301 4.99693 19.9979C4.99693 20.5657 5.20742 21.1132 5.58771 21.5348C5.968 21.9564 6.49108 22.222 7.05584 22.2803C7.62059 22.3386 8.1869 22.1855 8.6453 21.8505C9.10369 21.5155 9.42161 21.0224 9.5376 20.4666H13.9228C14.0217 21.7556 14.53 22.9792 15.3735 23.9588L12.2634 27.0643C11.7886 26.7547 11.2159 26.632 10.656 26.7199C10.096 26.8077 9.58845 27.1 9.23133 27.5401C8.8742 27.9803 8.69283 28.5372 8.72222 29.1032C8.75162 29.6693 8.9897 30.2043 9.3905 30.6051C9.7913 31.0059 10.3264 31.244 10.8924 31.2734C11.4585 31.3028 12.0154 31.1214 12.4555 30.7643C12.8957 30.4072 13.1879 29.8996 13.2758 29.3397C13.3637 28.7797 13.241 28.2071 12.9313 27.7323L16.0368 24.6221C17.0165 25.4656 18.24 25.974 19.529 26.0729V30.4581C18.9732 30.574 18.4802 30.892 18.1452 31.3504C17.8102 31.8087 17.6571 32.3751 17.7154 32.9398C17.7737 33.5046 18.0393 34.0276 18.4608 34.4079C18.8824 34.7882 19.43 34.9987 19.9978 34.9987C20.5655 34.9987 21.1131 34.7882 21.5347 34.4079C21.9562 34.0276 22.2219 33.5046 22.2802 32.9398C22.3385 32.3751 22.1853 31.8087 21.8503 31.3504C21.5153 30.892 21.0223 30.574 20.4665 30.4581V26.0729C21.7555 25.974 22.9791 25.4656 23.9587 24.6221L27.0642 27.7323C26.7545 28.2071 26.6318 28.7797 26.7197 29.3397C26.8076 29.8996 27.0998 30.4072 27.54 30.7643C27.9801 31.1214 28.537 31.3028 29.1031 31.2734C29.6691 31.244 30.2042 31.0059 30.605 30.6051C31.0058 30.2043 31.2439 29.6693 31.2733 29.1032C31.3027 28.5372 31.1213 27.9803 30.7642 27.5401C30.4071 27.1 29.8995 26.8077 29.3395 26.7199C28.7796 26.632 28.2069 26.7547 27.7321 27.0643L24.622 23.9588C25.4655 22.9792 25.9738 21.7556 26.0728 20.4666H30.4579C30.5465 20.8913 30.7537 21.2821 31.0554 21.5937C31.3571 21.9054 31.7409 22.1252 32.1624 22.2276C32.5839 22.33 33.0258 22.3108 33.4369 22.1723C33.8479 22.0337 34.2113 21.7815 34.4848 21.4449C34.7584 21.1082 34.9309 20.7009 34.9824 20.2702C35.0338 19.8395 34.9622 19.4031 34.7757 19.0114C34.5892 18.6198 34.2955 18.289 33.9287 18.0575C33.5619 17.826 33.137 17.7032 32.7032 17.7034ZM28.0157 10.0534C28.2379 9.82987 28.5308 9.69038 28.8444 9.65868C29.158 9.62698 29.4728 9.70504 29.7353 9.87954C29.9977 10.054 30.1915 10.3142 30.2836 10.6156C30.3757 10.917 30.3604 11.241 30.2403 11.5324C30.1202 11.8238 29.9027 12.0645 29.625 12.2135C29.3472 12.3625 29.0264 12.4105 28.7172 12.3494C28.408 12.2882 28.1296 12.1217 27.9295 11.8783C27.7293 11.6348 27.6198 11.3295 27.6196 11.0143C27.6203 10.8355 27.6563 10.6586 27.7255 10.4937C27.7946 10.3288 27.8957 10.1792 28.0228 10.0534H28.0157ZM11.9728 11.9729C11.7176 12.2264 11.3726 12.3686 11.013 12.3686C10.6534 12.3686 10.3083 12.2264 10.0532 11.9729C9.86349 11.7831 9.73431 11.5413 9.68199 11.2781C9.62967 11.0148 9.65658 10.742 9.75931 10.4941C9.86204 10.2462 10.036 10.0342 10.2591 9.88516C10.4823 9.73607 10.7446 9.6565 11.013 9.6565C11.2814 9.6565 11.5437 9.73607 11.7669 9.88516C11.99 10.0342 12.1639 10.2462 12.2667 10.4941C12.3694 10.742 12.3963 11.0148 12.344 11.2781C12.2917 11.5413 12.1625 11.7831 11.9728 11.9729ZM7.28525 21.3479C7.01676 21.347 6.75458 21.2664 6.53189 21.1164C6.30919 20.9664 6.13599 20.7538 6.03421 20.5053C5.93243 20.2568 5.90664 19.9838 5.9601 19.7207C6.01356 19.4575 6.14388 19.2162 6.33455 19.0272C6.52522 18.8381 6.76768 18.7099 7.03125 18.6587C7.29482 18.6075 7.56765 18.6357 7.81522 18.7396C8.06279 18.8435 8.27396 19.0186 8.42202 19.2426C8.57007 19.4665 8.64836 19.7294 8.64697 19.9979C8.64636 20.3572 8.50351 20.7017 8.24965 20.956C7.9958 21.2102 7.6516 21.3537 7.29229 21.3549L7.28525 21.3479ZM11.9728 29.9354C11.7505 30.1589 11.4577 30.2984 11.1441 30.3301C10.8305 30.3618 10.5156 30.2837 10.2532 30.1092C9.99074 29.9347 9.79694 29.6746 9.70484 29.3732C9.61275 29.0718 9.62806 28.7477 9.74817 28.4563C9.86828 28.1649 10.0857 27.9242 10.3635 27.7753C10.6412 27.6263 10.9621 27.5783 11.2712 27.6394C11.5804 27.7005 11.8588 27.867 12.059 28.1105C12.2592 28.3539 12.3687 28.6593 12.3688 28.9745C12.3699 29.1539 12.3354 29.3319 12.2674 29.498C12.1995 29.6641 12.0993 29.8152 11.9728 29.9424V29.9354ZM28.0228 28.0159C28.245 27.7923 28.538 27.6528 28.8517 27.6212C29.1654 27.5895 29.4803 27.6677 29.7428 27.8424C30.0053 28.017 30.199 28.2774 30.2909 28.5789C30.3828 28.8805 30.3673 29.2046 30.2469 29.496C30.1265 29.7874 29.9087 30.028 29.6307 30.1767C29.3527 30.3254 29.0318 30.3731 28.7225 30.3115C28.4133 30.25 28.1351 30.083 27.9352 29.8392C27.7354 29.5954 27.6263 29.2897 27.6267 28.9745C27.6289 28.6176 27.7711 28.2759 28.0228 28.0229V28.0159ZM18.6478 7.2854C18.6487 7.01691 18.7292 6.75472 18.8792 6.53203C19.0292 6.30934 19.2419 6.13614 19.4903 6.03436C19.7388 5.93258 20.0119 5.90678 20.275 5.96025C20.5381 6.01371 20.7794 6.14402 20.9685 6.33469C21.1575 6.52537 21.2857 6.76783 21.3369 7.0314C21.3881 7.29497 21.36 7.5678 21.256 7.81536C21.1521 8.06293 20.9771 8.2741 20.7531 8.42216C20.5291 8.57022 20.2662 8.64851 19.9978 8.64712C19.6384 8.6465 19.294 8.50365 19.0397 8.2498C18.7854 7.99594 18.642 7.65174 18.6407 7.29243L18.6478 7.2854ZM21.3548 32.7034C21.3552 32.9719 21.2761 33.2345 21.1272 33.4579C20.9784 33.6814 20.7666 33.8557 20.5187 33.9588C20.2708 34.0618 19.9978 34.089 19.7344 34.037C19.4711 33.9849 19.229 33.8558 19.039 33.6661C18.849 33.4764 18.7195 33.2346 18.667 32.9713C18.6144 32.708 18.6412 32.435 18.7438 32.1869C18.8464 31.9388 19.0204 31.7268 19.2436 31.5775C19.4668 31.4283 19.7293 31.3487 19.9978 31.3487C20.3571 31.3493 20.7015 31.4921 20.9558 31.746C21.2101 31.9998 21.3535 32.3441 21.3548 32.7034ZM19.9978 25.1541C18.8914 25.155 17.8144 24.7982 16.9274 24.137C16.9802 23.3586 17.3265 22.6293 17.8965 22.0966C18.4665 21.5638 19.2176 21.2675 19.9978 21.2675C20.7779 21.2675 21.529 21.5638 22.099 22.0966C22.669 22.6293 23.0154 23.3586 23.0681 24.137C22.1811 24.7982 21.1041 25.155 19.9978 25.1541ZM18.5001 18.826C18.5019 18.5302 18.5914 18.2416 18.757 17.9965C18.9227 17.7515 19.1573 17.561 19.4311 17.4491C19.7049 17.3372 20.0057 17.3088 20.2956 17.3677C20.5855 17.4265 20.8515 17.5699 21.06 17.7797C21.2685 17.9895 21.4103 18.2564 21.4673 18.5466C21.5243 18.8369 21.4941 19.1376 21.3805 19.4107C21.2669 19.6838 21.0749 19.9171 20.8288 20.0813C20.5827 20.2454 20.2936 20.333 19.9978 20.3331C19.8003 20.3331 19.6048 20.294 19.4225 20.2182C19.2401 20.1423 19.0746 20.0312 18.9354 19.8911C18.7962 19.751 18.6861 19.5848 18.6114 19.402C18.5367 19.2192 18.4989 19.0235 18.5001 18.826ZM23.8907 23.3635C23.7401 22.7674 23.455 22.2138 23.0573 21.7449C22.6596 21.2761 22.1598 20.9046 21.5962 20.6588C21.9704 20.3332 22.2363 19.9011 22.3582 19.4203C22.4801 18.9395 22.4523 18.433 22.2785 17.9684C22.1047 17.5038 21.7931 17.1034 21.3856 16.8207C20.978 16.538 20.4938 16.3866 19.9978 16.3866C19.5017 16.3866 19.0175 16.538 18.6099 16.8207C18.2024 17.1034 17.8908 17.5038 17.717 17.9684C17.5432 18.433 17.5154 18.9395 17.6373 19.4203C17.7593 19.9011 18.0251 20.3332 18.3993 20.6588C17.8347 20.9055 17.3342 21.2785 16.9364 21.749C16.5386 22.2195 16.2541 22.7751 16.1048 23.3729C15.4563 22.6262 15.0362 21.7088 14.8946 20.73C14.753 19.7512 14.8959 18.7524 15.3062 17.8525C15.7166 16.9527 16.377 16.1898 17.2088 15.6549C18.0407 15.12 19.0088 14.8356 19.9978 14.8356C20.9867 14.8356 21.9548 15.12 22.7867 15.6549C23.6185 16.1898 24.2789 16.9527 24.6893 17.8525C25.0996 18.7524 25.2425 19.7512 25.1009 20.73C24.9593 21.7088 24.5392 22.6262 23.8907 23.3729V23.3635ZM32.7032 21.3456C32.4344 21.3455 32.1717 21.2657 31.9483 21.1162C31.725 20.9667 31.551 20.7542 31.4486 20.5056C31.3462 20.2571 31.3199 19.9838 31.373 19.7203C31.4261 19.4568 31.5563 19.215 31.747 19.0256C31.9377 18.8362 32.1804 18.7077 32.4443 18.6564C32.7081 18.6051 32.9813 18.6334 33.2291 18.7375C33.4769 18.8416 33.6881 19.017 33.8361 19.2414C33.9841 19.4658 34.0621 19.7291 34.0603 19.9979C34.0603 20.1761 34.0252 20.3526 33.957 20.5172C33.8888 20.6819 33.7888 20.8315 33.6628 20.9575C33.5368 21.0835 33.3872 21.1834 33.2225 21.2516C33.0579 21.3198 32.8814 21.3549 32.7032 21.3549V21.3456Z" fill="#12263A"/>
</g>
<defs>
<clipPath id="clip0">
<rect width="30" height="30" fill="white" transform="translate(5 5)"/>
</clipPath>
</defs>
</svg>
