<svg width="40" height="40" viewBox="0 0 40 40" fill="none" xmlns="http://www.w3.org/2000/svg">
<rect width="40" height="40" rx="5" fill="#EBF5EE"/>
<path d="M32 28.3351C32 28.1694 31.8658 28.0351 31.7 28.0351H28.7799L30.0761 27.7985C30.239 27.7688 30.3471 27.6125 30.3172 27.4495L27.0673 9.64077C27.0533 9.56255 27.0084 9.49312 26.9428 9.44785C26.8778 9.40259 26.7972 9.38589 26.7184 9.39951L22.5746 10.1558V8.3C22.5746 8.13433 22.4405 8 22.2746 8H18.633C18.4672 8 18.333 8.13433 18.333 8.3V10.8405H15.2917V8.3C15.2917 8.13433 15.1576 8 14.9917 8H9.98284C9.81702 8 9.68284 8.13433 9.68284 8.3V28.0351H8.30003C8.13421 28.0351 8.00003 28.1694 8.00003 28.3351V31.7C8.00003 31.8657 8.13421 32 8.30003 32H31.7C31.8658 32 32 31.8657 32 31.7V28.3351ZM25.8117 27.967L25.2144 24.6948L29.0761 23.99L29.6733 27.2621L25.8117 27.967ZM28.9684 23.3996L25.1067 24.1045L24.8356 22.6194L28.6974 21.9148L28.9684 23.3996ZM26.5309 10.0436L28.5897 21.3244L24.7279 22.0291L22.669 10.7485L26.5309 10.0436ZM25.2141 28.0351H22.5746V13.5726L25.2141 28.0351ZM18.933 8.6H21.9746V28.0351H18.933V11.1405V8.6ZM18.333 11.4405V28.0351H15.2917V11.4405H18.333ZM10.2828 15.0402H14.6917V21.5951H10.2828V15.0402ZM14.6917 14.4402H10.2828V12.7054H14.6917V14.4402ZM10.2828 22.1951H14.6917V23.9297H10.2828V22.1951ZM14.6917 8.6V11.1405V12.1054H10.2828V8.6H14.6917ZM10.2828 24.5297H14.6917V28.0351H10.2828V24.5297ZM31.4 31.4H8.60003V28.6351H9.98284H14.9917H18.633H22.2746H31.4V31.4Z" fill="#12263A"/>
<path d="M15.9858 24.2895H17.639C17.8048 24.2895 17.939 24.1551 17.939 23.9895C17.939 23.8238 17.8048 23.6895 17.639 23.6895H15.9858C15.8199 23.6895 15.6858 23.8238 15.6858 23.9895C15.6858 24.1551 15.8199 24.2895 15.9858 24.2895Z" fill="#12263A"/>
<path d="M15.9858 22.1947H17.639C17.8048 22.1947 17.939 22.0604 17.939 21.8947C17.939 21.7291 17.8048 21.5947 17.639 21.5947H15.9858C15.8199 21.5947 15.6858 21.7291 15.6858 21.8947C15.6858 22.0604 15.8199 22.1947 15.9858 22.1947Z" fill="#12263A"/>
<path d="M19.627 24.2895H21.2805C21.4463 24.2895 21.5805 24.1551 21.5805 23.9895C21.5805 23.8238 21.4463 23.6895 21.2805 23.6895H19.627C19.4612 23.6895 19.327 23.8238 19.327 23.9895C19.327 24.1551 19.4612 24.2895 19.627 24.2895Z" fill="#12263A"/>
<path d="M19.627 22.1947H21.2805C21.4463 22.1947 21.5805 22.0604 21.5805 21.8947C21.5805 21.7291 21.4463 21.5947 21.2805 21.5947H19.627C19.4612 21.5947 19.327 21.7291 19.327 21.8947C19.327 22.0604 19.4612 22.1947 19.627 22.1947Z" fill="#12263A"/>
<path d="M12.4871 15.957C11.6047 15.957 10.9133 16.9937 10.9133 18.3172C10.9133 19.6405 11.6047 20.6772 12.4871 20.6772C13.3698 20.6772 14.0612 19.6405 14.0612 18.3172C14.0612 16.9937 13.3698 15.957 12.4871 15.957ZM12.4871 20.0772C11.9592 20.0772 11.5133 19.2712 11.5133 18.3172C11.5133 17.3631 11.9592 16.557 12.4871 16.557C13.015 16.557 13.4612 17.3631 13.4612 18.3172C13.4612 19.2712 13.015 20.0772 12.4871 20.0772Z" fill="#12263A"/>
</svg>
