<svg width="40" height="40" viewBox="0 0 40 40" fill="none" xmlns="http://www.w3.org/2000/svg">
<rect width="40" height="40" rx="5" fill="#EBF5EE"/>
<path d="M29.1993 30.8649H25.4577V26.7741C25.6383 26.8122 25.8306 26.8341 26.031 26.8341C26.4783 26.8341 26.9307 26.733 27.3393 26.5413C28.5549 25.9719 29.3088 24.555 29.1204 24.0006C29.034 23.7468 28.7331 23.5539 28.3641 23.4318C28.8489 22.908 28.9542 22.2861 28.8285 21.9165C28.7625 21.7236 28.5798 21.5616 28.2861 21.4353C28.8201 20.9268 28.9485 20.3376 28.8285 19.9848C28.77 19.8132 28.614 19.6674 28.3746 19.548C29.0211 18.9615 28.8759 18.3666 28.8285 18.2274C28.7619 18.0324 28.5768 17.8689 28.2783 17.7417C28.2741 17.7399 28.269 17.7384 28.2648 17.7366C28.7976 17.2008 28.9584 16.5402 28.8285 16.1589C28.7619 15.9639 28.5768 15.8004 28.2783 15.6732C27.8469 15.4899 27.1887 15.3942 26.5131 15.591C26.5197 15.48 26.5284 15.3699 26.5284 15.2565C26.5284 13.8753 25.7004 12.5244 25.0827 12.5244C24.4515 12.5244 23.6367 13.8492 23.6367 15.2565C23.6367 15.3699 23.6454 15.48 23.6523 15.591C22.977 15.3942 22.3185 15.4899 21.8871 15.6732C21.5886 15.8004 21.4035 15.9639 21.3372 16.1583C21.2085 16.5354 21.3765 17.1918 21.9189 17.7297C21.909 17.7339 21.8973 17.7372 21.8874 17.7414C21.5886 17.8686 21.4035 18.0318 21.3369 18.2268C21.2895 18.3663 21.1434 18.9621 21.7893 19.5486C21.5508 19.668 21.3957 19.8132 21.3369 19.9845C21.2163 20.3394 21.3423 20.9301 21.873 21.4383C21.5832 21.5643 21.4023 21.7248 21.3369 21.9165C21.2106 22.2876 21.3132 22.911 21.7932 23.4345C21.4278 23.5566 21.1308 23.7486 21.045 24.0006C20.8563 24.555 21.6105 25.9716 22.8261 26.5413C23.2344 26.733 23.6871 26.8341 24.1344 26.8341C24.3348 26.8341 24.5274 26.8122 24.7077 26.7741V30.8649H16.671V28.2213C16.8513 28.2543 17.0436 28.2738 17.2443 28.2738C17.6841 28.2738 18.1296 28.1886 18.5328 28.0278C19.7088 27.5577 20.5542 26.3355 20.3268 25.7667C20.2266 25.5159 19.9119 25.3545 19.5567 25.2573C19.9308 24.8307 20.1714 24.3315 20.0352 23.9898C19.9659 23.8161 19.7655 23.6688 19.4916 23.5635C19.9011 23.1222 20.178 22.5846 20.0352 22.2261C19.8489 21.7593 18.7314 21.4776 17.7294 21.7239C17.7339 21.6468 17.7417 21.5712 17.7417 21.4926C17.7417 20.3097 16.9005 19.1079 16.296 19.1079C15.6777 19.1079 14.85 20.2869 14.85 21.4926C14.85 21.5712 14.8581 21.6468 14.8626 21.7239C13.8603 21.4779 12.7434 21.759 12.5571 22.2255C12.4164 22.5759 12.6891 23.1177 13.1004 23.5635C12.8268 23.6685 12.6264 23.8158 12.5568 23.9898C12.4218 24.3282 12.6624 24.8301 13.0353 25.257C12.6798 25.3542 12.3654 25.5156 12.2652 25.7664C12.0378 26.3352 12.8835 27.5574 14.0592 28.0275C14.4624 28.1883 14.9076 28.2735 15.3477 28.2735C15.5484 28.2735 15.741 28.2543 15.921 28.221V30.8646H12.4725C11.6781 30.8646 11.0316 31.5108 11.0316 32.3055C11.0316 32.5125 11.1996 32.6805 11.4066 32.6805C11.6136 32.6805 11.7816 32.5125 11.7816 32.3055C11.7816 31.9245 12.0915 31.6146 12.4725 31.6146H29.1993C29.5803 31.6146 29.8902 31.9245 29.8902 32.3055C29.8902 32.5125 30.0582 32.6805 30.2652 32.6805C30.4722 32.6805 30.6402 32.5125 30.6402 32.3055C30.6402 31.5111 29.9937 30.8649 29.1993 30.8649ZM22.8471 23.2941C22.1022 22.9206 22.0257 22.3587 22.0407 22.1952C22.2147 22.0656 22.9665 21.8175 23.7156 22.1688C24.2748 22.4307 24.63 22.9785 24.7569 23.202C24.8235 23.3193 24.948 23.3919 25.083 23.3919C25.218 23.3919 25.3425 23.3193 25.4091 23.202C25.536 22.9785 25.8909 22.4304 26.4501 22.1688C27.2016 21.8172 27.954 22.0671 28.1265 22.1961C28.1463 22.3839 28.0098 22.9401 27.3024 23.295C26.9277 23.3148 26.5692 23.3994 26.2356 23.5554C25.7274 23.7939 25.3467 24.1713 25.083 24.5112C24.8193 24.1713 24.4389 23.7939 23.9301 23.5554C23.592 23.3973 23.2278 23.3124 22.8471 23.2941ZM22.0377 18.5076C22.2063 18.3786 22.9617 18.1263 23.7156 18.4794C24.2754 18.7416 24.6303 19.2891 24.7566 19.5123C24.8235 19.6299 24.948 19.7025 25.083 19.7025C25.218 19.7025 25.3425 19.6299 25.4094 19.5123C25.5357 19.2891 25.8906 18.7413 26.4501 18.4794C27.2046 18.126 27.9594 18.3789 28.1283 18.5076C28.1532 18.6762 28.0155 18.9951 27.3861 19.3107C26.994 19.2948 26.5593 19.3575 26.1318 19.5579C25.674 19.7724 25.3272 20.1084 25.083 20.4162C24.8388 20.1084 24.492 19.7724 24.0339 19.5579C23.6055 19.3572 23.1696 19.2945 22.7772 19.311C22.1493 18.996 22.0125 18.6771 22.0377 18.5076ZM23.7156 20.2371C24.2748 20.499 24.63 21.0468 24.7569 21.2703C24.8235 21.3876 24.948 21.4602 25.083 21.4602C25.218 21.4602 25.3425 21.3876 25.4091 21.2703C25.536 21.0468 25.8909 20.4987 26.4501 20.2371C27.1977 19.8873 27.9462 20.1324 28.1238 20.2623C28.1286 20.4249 27.96 20.8872 27.2604 21.2403C26.9022 21.2421 26.514 21.3108 26.1318 21.4899C25.674 21.7044 25.3272 22.0404 25.083 22.3482C24.8388 22.0404 24.492 21.7044 24.0339 21.4899C23.6472 21.3087 23.2536 21.2397 22.8918 21.2397C22.1958 20.8878 22.0344 20.4258 22.0416 20.2629C22.2174 20.1333 22.9683 19.8867 23.7156 20.2371ZM25.0749 13.3179C25.2972 13.5381 25.7787 14.2881 25.7787 15.2565C25.7787 15.5079 25.7559 15.7494 25.7187 15.981C25.4604 16.1676 25.2465 16.3836 25.083 16.59C24.9195 16.3836 24.7056 16.1679 24.4476 15.9813C24.4104 15.7491 24.387 15.5079 24.387 15.2565C24.3867 14.3055 24.8388 13.539 25.0749 13.3179ZM23.7153 16.4103C24.2751 16.6728 24.63 17.2206 24.7566 17.4438C24.8901 17.6787 25.2756 17.6787 25.4094 17.4438C25.536 17.2206 25.8906 16.6728 26.4501 16.4103C27.1962 16.0608 27.9453 16.3059 28.1232 16.4355C28.1304 16.6221 27.9567 17.1915 27.2538 17.5509C26.8974 17.5536 26.5113 17.6226 26.1321 17.8005C25.674 18.015 25.3272 18.3507 25.0833 18.6585C24.8394 18.3507 24.4926 18.015 24.0342 17.8005C23.6679 17.6289 23.2959 17.5596 22.95 17.5524C22.2333 17.1888 22.0428 16.617 22.044 16.4349C22.2231 16.3053 22.9701 16.0608 23.7153 16.4103ZM23.1441 25.8624C22.2627 25.4493 21.7839 24.522 21.7563 24.2691C21.8691 24.1851 22.2225 24.0366 22.7022 24.0366C23.025 24.0366 23.3313 24.1032 23.6112 24.2346C24.228 24.5238 24.6174 25.1253 24.756 25.3704C24.8889 25.6053 25.2756 25.6053 25.4088 25.3704C25.5477 25.1253 25.9371 24.5238 26.5533 24.2346C26.8338 24.1032 27.1398 24.0366 27.4626 24.0366C27.9312 24.0366 28.2798 24.1785 28.4007 24.2634C28.3593 24.5631 27.882 25.4586 27.0207 25.8624C26.7108 26.0076 26.3685 26.0844 26.0304 26.0841C25.7346 26.0841 25.4484 26.0232 25.2645 25.9209C25.2078 25.8894 25.1448 25.8735 25.0821 25.8735C25.0194 25.8735 24.9564 25.8894 24.8997 25.9209C24.7161 26.0232 24.4296 26.0841 24.1338 26.0841C23.7963 26.0841 23.454 26.0076 23.1441 25.8624ZM13.9821 25.1415C13.9647 25.1205 13.9512 25.0968 13.929 25.0791C13.5648 24.7911 13.3602 24.4617 13.2927 24.2913C13.5486 24.1779 14.2563 24.0225 14.9487 24.2994C15.5079 24.5226 15.8589 24.9837 15.9837 25.1715C16.1226 25.3806 16.4694 25.3806 16.6083 25.1715C16.7331 24.9837 17.0841 24.5226 17.643 24.2994C18.3363 24.0222 19.044 24.1779 19.2993 24.2916C19.2285 24.4731 19.0029 24.8301 18.597 25.1292C18.5919 25.1331 18.5898 25.1388 18.5847 25.1427C18.192 25.1529 17.8164 25.2252 17.4684 25.3644C16.9494 25.5717 16.5618 25.9053 16.2957 26.202C16.0296 25.9053 15.642 25.5717 15.123 25.3641C14.7681 25.2222 14.3838 25.149 13.9821 25.1415ZM16.29 19.8813C16.5144 20.0475 16.992 20.7096 16.992 21.4926C16.992 21.6894 16.9713 21.8781 16.9386 22.0605C16.677 22.2243 16.4604 22.4142 16.296 22.5939C16.1316 22.4142 15.9153 22.2249 15.6537 22.0611C15.6213 21.8784 15.5997 21.6894 15.5997 21.4926C15.6 20.6895 16.0698 20.0379 16.29 19.8813ZM14.001 23.3694C13.5915 23.0694 13.3638 22.7103 13.2924 22.5276C13.5477 22.4136 14.2557 22.2588 14.9487 22.5348C15.5079 22.7586 15.8589 23.2197 15.9837 23.4075C16.1226 23.6166 16.4694 23.6166 16.6083 23.4075C16.7331 23.2197 17.0841 22.7586 17.643 22.5351C18.336 22.2579 19.0443 22.4139 19.2993 22.5273C19.2315 22.6986 19.0251 23.0304 18.657 23.3193C18.6288 23.3412 18.6102 23.37 18.5901 23.3979C18.1884 23.3865 17.7564 23.4462 17.3646 23.6028C16.896 23.79 16.5426 24.0876 16.296 24.3579C16.0494 24.0882 15.6957 23.7903 15.2271 23.6028C14.8434 23.4498 14.4213 23.3898 14.0268 23.3976C14.0172 23.3892 14.0118 23.3775 14.001 23.3694ZM14.3376 27.3309C13.5522 27.0171 13.0845 26.3502 12.9921 26.0664C13.1412 25.9926 13.4796 25.8882 13.9155 25.8882C14.2464 25.8882 14.559 25.9458 14.8452 26.0601C15.4614 26.3067 15.8469 26.8134 15.984 27.0195C16.1229 27.2286 16.4697 27.2286 16.6086 27.0195C16.7457 26.8131 17.1312 26.3067 17.7474 26.0604C18.0336 25.9458 18.3462 25.8882 18.6771 25.8882C19.1127 25.8882 19.4514 25.9926 19.6005 26.0664C19.5078 26.3502 19.0404 27.0171 18.255 27.3309C17.9397 27.4569 17.5902 27.5238 17.2449 27.5238C16.941 27.5238 16.6467 27.4698 16.4574 27.3801C16.4064 27.3558 16.3515 27.3438 16.2966 27.3438C16.2417 27.3438 16.1868 27.3558 16.1358 27.3801C15.9465 27.4698 15.6522 27.5238 15.3483 27.5238C15.0021 27.5238 14.6529 27.4569 14.3376 27.3309Z" fill="#12263A"/>
<path d="M12.7295 15.2064C13.2635 15.6162 13.9088 15.8877 14.6138 15.9585V18.1017C14.6138 18.3087 14.7818 18.4767 14.9888 18.4767C15.1958 18.4767 15.3638 18.3087 15.3638 18.1017V15.9585C16.0973 15.8847 16.7675 15.5958 17.3132 15.1575L18.8003 16.6446C18.8735 16.7178 18.9692 16.7544 19.0655 16.7544C19.1618 16.7544 19.2575 16.7178 19.3307 16.6446C19.4771 16.4982 19.4771 16.2609 19.3307 16.1142L17.8493 14.6328C18.311 14.0778 18.6152 13.3875 18.6914 12.6303H20.6735C20.8805 12.6303 21.0485 12.4623 21.0485 12.2553C21.0485 12.0483 20.8805 11.8803 20.6735 11.8803H18.6914C18.6206 11.175 18.3491 10.53 17.9393 9.99635L19.2173 8.71835C19.3637 8.57195 19.3637 8.33465 19.2173 8.18795C19.0709 8.04125 18.8336 8.04155 18.6869 8.18795L17.4257 9.44915C16.8605 8.95805 16.1489 8.63165 15.3638 8.55305V6.73145C15.3638 6.52445 15.1958 6.35645 14.9888 6.35645C14.7818 6.35645 14.6138 6.52445 14.6138 6.73145V8.55335C13.8572 8.62955 13.1666 8.93345 12.6119 9.39545L11.291 8.07485C11.1446 7.92845 10.9073 7.92845 10.7606 8.07485C10.6139 8.22125 10.6142 8.45855 10.7606 8.60525L12.0872 9.93155C11.6489 10.4772 11.36 11.1474 11.2862 11.8809H9.30376C9.09676 11.8809 8.92876 12.0489 8.92876 12.2559C8.92876 12.4629 9.09676 12.6309 9.30376 12.6309H11.2862C11.3651 13.416 11.6915 14.1279 12.1826 14.6928L10.6469 16.2282C10.5005 16.3746 10.5005 16.6119 10.6469 16.7586C10.7201 16.8318 10.8158 16.8684 10.9121 16.8684C11.0084 16.8684 11.1041 16.8318 11.1773 16.7586L12.7295 15.2064ZM14.9888 9.28445C16.6274 9.28445 17.9603 10.6173 17.9603 12.2556C17.9603 13.8942 16.6274 15.2274 14.9888 15.2274C13.3502 15.2274 12.0173 13.8942 12.0173 12.2556C12.0173 10.6176 13.3502 9.28445 14.9888 9.28445Z" fill="#12263A"/>
</svg>
