<svg width="40" height="40" viewBox="0 0 40 40" fill="none" xmlns="http://www.w3.org/2000/svg">
<rect width="40" height="40" rx="5" fill="#EBF5EE"/>
<path d="M18.125 5.46875C17.3497 5.46875 16.7188 6.09969 16.7188 6.875V11.0938C16.7188 11.352 16.5087 11.5625 16.25 11.5625C15.9913 11.5625 15.7812 11.352 15.7812 11.0938V6.875C15.7812 6.09969 15.1503 5.46875 14.375 5.46875C13.5997 5.46875 12.9688 6.09969 12.9688 6.875V11.0938C12.9688 11.352 12.7587 11.5625 12.5 11.5625C12.2413 11.5625 12.0312 11.352 12.0312 11.0938V6.875C12.0312 6.09969 11.4003 5.46875 10.625 5.46875C9.84969 5.46875 9.21875 6.09969 9.21875 6.875V11.5625C9.21875 13.7375 10.5744 15.598 12.4831 16.3545L12.0312 32.1875C12.0312 33.4798 13.0827 34.5312 14.375 34.5312C15.6673 34.5312 16.7188 33.4798 16.7188 32.1744L16.2669 16.3545C18.1756 15.598 19.5312 13.7375 19.5312 11.5625V6.875C19.5312 6.09969 18.9003 5.46875 18.125 5.46875ZM15.7812 32.1875C15.7812 32.9628 15.1503 33.5938 14.375 33.5938C13.5997 33.5938 12.9688 32.9628 12.9688 32.2006L13.4136 16.6255C13.7258 16.6845 14.0464 16.7188 14.375 16.7188C14.7036 16.7188 15.0242 16.6845 15.3364 16.6255L15.7812 32.1875ZM18.5938 11.5625C18.5938 13.8884 16.7014 15.7812 14.375 15.7812C12.0486 15.7812 10.1562 13.8884 10.1562 11.5625V6.875C10.1562 6.61672 10.3663 6.40625 10.625 6.40625C10.8837 6.40625 11.0938 6.61672 11.0938 6.875V11.0938C11.0938 11.8691 11.7247 12.5 12.5 12.5C13.2753 12.5 13.9062 11.8691 13.9062 11.0938V6.875C13.9062 6.61672 14.1163 6.40625 14.375 6.40625C14.6337 6.40625 14.8438 6.61672 14.8438 6.875V11.0938C14.8438 11.8691 15.4747 12.5 16.25 12.5C17.0253 12.5 17.6562 11.8691 17.6562 11.0938V6.875C17.6562 6.61672 17.8663 6.40625 18.125 6.40625C18.3837 6.40625 18.5938 6.61672 18.5938 6.875V11.5625Z" fill="#12263A"/>
<path d="M30.7812 11.5625C30.7812 8.2025 28.468 5.46875 25.625 5.46875C22.782 5.46875 20.4688 8.2025 20.4688 11.5625C20.4688 14.1331 21.8248 16.3325 23.7341 17.2264L23.2812 32.1875C23.2812 33.4798 24.3327 34.5312 25.625 34.5312C26.9173 34.5312 27.9688 33.4798 27.9688 32.1734L27.5159 17.2264C29.4252 16.3325 30.7812 14.1331 30.7812 11.5625ZM27.0312 32.1875C27.0312 32.9628 26.4003 33.5938 25.625 33.5938C24.8497 33.5938 24.2188 32.9628 24.2188 32.2016L24.6627 17.5456C24.9748 17.6159 25.2959 17.6562 25.625 17.6562C25.9541 17.6562 26.2752 17.6159 26.5873 17.5461L27.0312 32.1875ZM25.625 16.7188C23.2986 16.7188 21.4062 14.4055 21.4062 11.5625C21.4062 8.71953 23.2986 6.40625 25.625 6.40625C27.9514 6.40625 29.8438 8.71953 29.8438 11.5625C29.8438 14.4055 27.9514 16.7188 25.625 16.7188Z" fill="#12263A"/>
<path d="M27.9688 11.5625C27.9688 13.3719 26.9173 14.8438 25.625 14.8438V15.7812C27.4339 15.7812 28.9062 13.8884 28.9062 11.5625H27.9688Z" fill="#12263A"/>
<path d="M14.8438 31.7188H13.9062V32.6562H14.8438V31.7188Z" fill="#12263A"/>
<path d="M26.0938 31.7188H25.1562V32.6562H26.0938V31.7188Z" fill="#12263A"/>
</svg>
