<svg width="40" height="40" viewBox="0 0 40 40" fill="none" xmlns="http://www.w3.org/2000/svg">
<rect width="40" height="40" rx="5" fill="#EBF5EE"/>
<path d="M20 6C12.14 6 5.75 12.39 5.75 20.25C5.75 28.11 12.14 34.5 20 34.5C27.86 34.5 34.25 28.11 34.25 20.25C34.25 12.39 27.86 6 20 6ZM20 32.16C13.43 32.16 8.09 26.82 8.09 20.25C8.09 13.68 13.43 8.34 20 8.34C26.57 8.34 31.91 13.68 31.91 20.25C31.91 26.82 26.57 32.16 20 32.16Z" fill="#12263A"/>
<path d="M27.17 17.1597L22.4 17.0397L20.78 12.5097C20.66 12.1797 20.36 11.9697 20 11.9697C19.64 11.9697 19.34 12.1797 19.22 12.5097L17.63 17.0097L12.8 17.1297C12.44 17.1297 12.14 17.3697 12.02 17.6997C11.9 18.0297 12.02 18.3897 12.29 18.6297L16.07 21.5397L14.69 26.1597C14.6 26.4897 14.72 26.8497 14.99 27.0597C15.26 27.2697 15.65 27.2697 15.95 27.0597L19.88 24.3597L23.84 27.0897C23.99 27.1797 24.14 27.2397 24.32 27.2397C24.5 27.2397 24.65 27.1797 24.8 27.0897C25.07 26.8797 25.22 26.5197 25.1 26.1897L23.75 21.6297L27.56 18.6897C27.83 18.4797 27.95 18.1197 27.83 17.7597C27.83 17.3997 27.53 17.1897 27.17 17.1597Z" fill="#12263A"/>
</svg>
