<svg width="40" height="40" viewBox="0 0 40 40" fill="none" xmlns="http://www.w3.org/2000/svg">
<rect width="40" height="40" rx="5" fill="#EBF5EE"/>
<path d="M32.0875 17.3153C31.3842 14.6458 29.8169 12.2842 27.6302 10.599C25.4436 8.91388 22.7606 8 20 8C17.2394 8 14.5564 8.91388 12.3698 10.599C10.1831 12.2842 8.61584 14.6458 7.9125 17.3153C7.78456 17.4307 7.68187 17.5714 7.61088 17.7284C7.53989 17.8855 7.50214 18.0555 7.5 18.2278V22.7278C7.5 23.0593 7.6317 23.3773 7.86612 23.6117C8.10054 23.8461 8.41848 23.9778 8.75 23.9778H11.575C12.2673 25.6419 13.4369 27.0637 14.9363 28.0639C16.4357 29.064 18.1976 29.5978 20 29.5978C21.8024 29.5978 23.5643 29.064 25.0637 28.0639C26.5631 27.0637 27.7327 25.6419 28.425 23.9778H29.3625C28.6496 25.8858 27.3711 27.5306 25.6979 28.6922C24.0248 29.8538 22.0368 30.4768 20 30.4778C19.6685 30.4778 19.3505 30.6095 19.1161 30.8439C18.8817 31.0783 18.75 31.3963 18.75 31.7278C18.75 32.0593 18.8817 32.3773 19.1161 32.6117C19.3505 32.8461 19.6685 32.9778 20 32.9778C22.7636 32.9765 25.4488 32.0594 27.6358 30.37C29.8228 28.6805 31.3883 26.3139 32.0875 23.6403C32.2154 23.5248 32.3181 23.3842 32.3891 23.2272C32.4601 23.0701 32.4979 22.9001 32.5 22.7278V18.2278C32.4979 18.0555 32.4601 17.8855 32.3891 17.7284C32.3181 17.5714 32.2154 17.4307 32.0875 17.3153V17.3153ZM20 11.3528C18.1974 11.3549 16.4358 11.89 14.9366 12.8909C13.4375 13.8918 12.2679 15.3137 11.575 16.9778H10.6375C11.3479 15.064 12.6269 13.4135 14.3028 12.2479C15.9787 11.0824 17.9711 10.4576 20.0125 10.4576C22.0539 10.4576 24.0463 11.0824 25.7222 12.2479C27.3981 13.4135 28.6771 15.064 29.3875 16.9778H28.45C27.7555 15.3098 26.582 13.8852 25.078 12.884C23.5739 11.8828 21.8068 11.3499 20 11.3528V11.3528Z" fill="#12263A"/>
</svg>
