<svg width="40" height="40" viewBox="0 0 40 40" fill="none" xmlns="http://www.w3.org/2000/svg">
<rect width="40" height="40" rx="5" fill="#EBF5EE"/>
<path d="M22.3438 29.375C21.5684 29.375 20.9375 30.0059 20.9375 30.7812C20.9375 31.5566 21.5684 32.1875 22.3438 32.1875C23.1191 32.1875 23.75 31.5566 23.75 30.7812C23.75 30.0059 23.1191 29.375 22.3438 29.375ZM22.3438 31.25C22.085 31.25 21.875 31.0395 21.875 30.7812C21.875 30.523 22.085 30.3125 22.3438 30.3125C22.6025 30.3125 22.8125 30.523 22.8125 30.7812C22.8125 31.0395 22.6025 31.25 22.3438 31.25Z" fill="#12263A"/>
<path d="M31.5927 27.6058L28.9419 22.3042C29.3084 21.1244 31.25 14.4892 31.25 6.40657C31.25 6.18626 31.0967 5.99547 30.8811 5.9486C30.6655 5.90079 30.4475 6.01094 30.3552 6.21157L26.4978 14.628L23.2498 6.23735C23.1678 6.02688 22.9466 5.90454 22.7267 5.94579C22.5045 5.98704 22.3438 6.1811 22.3438 6.40657C22.3438 14.485 24.2844 21.1197 24.6519 22.3047L22.0466 27.5158C20.6511 27.6419 19.5078 28.6459 19.1684 29.9697C18.9894 29.8886 18.7948 29.8441 18.5938 29.8441H14.375C14.1163 29.8441 13.9062 29.6336 13.9062 29.3753C13.9062 29.117 14.1163 28.9066 14.375 28.9066H18.537C19.2477 28.9066 19.8678 28.4045 19.9803 27.738C20.0492 27.3274 19.9353 26.9102 19.6677 26.5938C19.3991 26.2764 19.0077 26.0941 18.5938 26.0941H14.375C14.1163 26.0941 13.9062 25.8836 13.9062 25.6253C13.9062 25.367 14.1163 25.1566 14.375 25.1566H18.537C19.2477 25.1566 19.8678 24.6545 19.9803 23.988C20.0492 23.5774 19.9353 23.1602 19.6677 22.8438C19.3991 22.5264 19.0077 22.3441 18.5938 22.3441H14.375C14.1163 22.3441 13.9062 22.1336 13.9062 21.8753C13.9062 21.617 14.1163 21.4066 14.375 21.4066H18.537C19.2477 21.4066 19.8678 20.9045 19.9803 20.238C20.0492 19.8274 19.9353 19.4102 19.6677 19.0938C19.3991 18.7764 19.0077 18.5941 18.5938 18.5941H14.375C14.1163 18.5941 13.9062 18.3836 13.9062 18.1253C13.9062 17.867 14.1163 17.6566 14.375 17.6566H18.537C19.2477 17.6566 19.8678 17.1545 19.9803 16.488C20.0492 16.0774 19.9353 15.6602 19.6677 15.3438C19.3991 15.0264 19.0077 14.8441 18.5938 14.8441H14.375C14.1163 14.8441 13.9062 14.6336 13.9062 14.3753C13.9062 14.117 14.1163 13.9066 14.375 13.9066H18.5938C19.0077 13.9066 19.3991 13.7242 19.6672 13.4069C19.9353 13.09 20.0492 12.6733 19.9803 12.2622C19.8641 11.5741 19.2941 11.0941 18.5938 11.0941H14.375C14.1163 11.0941 13.9062 10.8836 13.9062 10.6253C13.9062 10.367 14.1163 10.1566 14.375 10.1566H18.5938C19.2941 10.1566 19.8641 9.6761 19.9803 8.98797C20.0492 8.57735 19.9353 8.16016 19.6677 7.84376C19.3991 7.52641 19.0077 7.34407 18.5938 7.34407H12.8131C12.3312 6.46469 11.023 5.93782 10.1562 5.93782H8.28125C6.98891 5.93782 5.9375 6.98922 5.9375 8.28157V31.7191C5.9375 33.0114 6.98891 34.0628 8.28125 34.0628H10.1562C11.023 34.0628 12.3312 33.5359 12.8131 32.6566H18.537C18.8811 32.6566 19.2027 32.537 19.4572 32.3397C20.0127 33.3649 21.0983 34.0628 22.3438 34.0628C24.1527 34.0628 25.625 32.5909 25.625 30.7816C25.625 30.047 25.3794 29.3702 24.9697 28.8227L26.7969 24.9395L28.4572 28.4678C27.8661 29.0617 27.5 29.8797 27.5 30.7816C27.5 32.5909 28.9723 34.0628 30.7812 34.0628C32.5902 34.0628 34.0625 32.5909 34.0625 30.7816C34.0625 29.253 33.0097 27.9686 31.5927 27.6058ZM26.9698 15.8477L30.2619 8.66407C30.0477 13.5372 29.1922 17.6734 28.5945 20.0467L27.9069 18.2706L26.9698 15.8477ZM25.5758 22.5536C25.6311 22.4425 25.6405 22.3136 25.6011 22.1955C25.5805 22.1331 23.7397 16.5306 23.3525 9.09907L27.9688 21.0255V21.8753H27.5C27.3181 21.8753 27.1531 21.9803 27.0758 22.1444L26.3727 23.6388C26.3727 23.6388 26.3727 23.6388 26.3727 23.6392L24.2623 28.1238C24.2567 28.12 24.2511 28.1167 24.2455 28.113C24.1686 28.0581 24.0894 28.007 24.0083 27.9592C23.9966 27.9522 23.9853 27.9447 23.9731 27.9381C23.8873 27.8889 23.7987 27.8434 23.7083 27.8022C23.6994 27.798 23.6909 27.7938 23.682 27.7895C23.592 27.7492 23.5002 27.7136 23.4064 27.6813C23.3952 27.6775 23.3844 27.6728 23.3731 27.6691C23.2873 27.6405 23.1997 27.617 23.1111 27.5955C23.0947 27.5913 23.0788 27.5856 23.0619 27.5819L25.5758 22.5536ZM19.0555 31.3324C19.0189 31.5494 18.7916 31.7191 18.537 31.7191H12.5C12.2867 31.7191 12.1002 31.863 12.0462 32.0692C11.9042 32.613 10.8612 33.1253 10.1562 33.1253H8.28125C7.50594 33.1253 6.875 32.4944 6.875 31.7191V8.28157C6.875 7.50626 7.50594 6.87532 8.28125 6.87532H10.1562C10.8612 6.87532 11.9042 7.38766 12.0462 7.93141C12.1002 8.13766 12.2867 8.28157 12.5 8.28157H18.5938C18.7311 8.28157 18.8614 8.34251 18.9519 8.44938C19.0044 8.51126 19.0878 8.64391 19.0559 8.83235C19.0161 9.06719 18.8352 9.21907 18.5938 9.21907H14.375C13.5997 9.21907 12.9688 9.85001 12.9688 10.6253C12.9688 11.4006 13.5997 12.0316 14.375 12.0316H18.5938C18.8352 12.0316 19.0161 12.1834 19.0555 12.4178C19.0873 12.6067 19.0044 12.7394 18.9514 12.8013C18.8614 12.9081 18.7311 12.9691 18.5938 12.9691H14.375C13.5997 12.9691 12.9688 13.6 12.9688 14.3753C12.9688 15.1506 13.5997 15.7816 14.375 15.7816H18.5938C18.7311 15.7816 18.8614 15.8425 18.9519 15.9494C19.0044 16.0113 19.0878 16.1439 19.0559 16.3323C19.0189 16.5494 18.7916 16.7191 18.537 16.7191H14.375C13.5997 16.7191 12.9688 17.35 12.9688 18.1253C12.9688 18.9006 13.5997 19.5316 14.375 19.5316H18.5938C18.7311 19.5316 18.8614 19.5925 18.9519 19.6994C19.0044 19.7613 19.0878 19.8939 19.0559 20.0823C19.0189 20.2994 18.7916 20.4691 18.537 20.4691H14.375C13.5997 20.4691 12.9688 21.1 12.9688 21.8753C12.9688 22.6506 13.5997 23.2816 14.375 23.2816H18.5938C18.7311 23.2816 18.8614 23.3425 18.9519 23.4494C19.0044 23.5113 19.0878 23.6439 19.0559 23.8323C19.0189 24.0494 18.7916 24.2191 18.537 24.2191H14.375C13.5997 24.2191 12.9688 24.85 12.9688 25.6253C12.9688 26.4006 13.5997 27.0316 14.375 27.0316H18.5938C18.7311 27.0316 18.8614 27.0925 18.9519 27.1994C19.0044 27.2613 19.0878 27.3939 19.0559 27.5823C19.0189 27.7994 18.7916 27.9691 18.537 27.9691H14.375C13.5997 27.9691 12.9688 28.6 12.9688 29.3753C12.9688 30.1506 13.5997 30.7816 14.375 30.7816H18.5938C18.7311 30.7816 18.8614 30.8425 18.9519 30.9494C19.0044 31.0113 19.0878 31.1434 19.0555 31.3324ZM22.3438 33.1253C21.0514 33.1253 20 32.0739 20 30.7816C20 29.4892 21.0514 28.4378 22.3438 28.4378C22.5073 28.4378 22.6691 28.4552 22.827 28.4889C22.8317 28.4899 22.8359 28.4922 22.8406 28.4931C22.992 28.5264 23.1402 28.5742 23.2817 28.6366C23.2995 28.6445 23.315 28.6558 23.3323 28.6642C23.457 28.7228 23.5775 28.7899 23.6905 28.8695C23.7214 28.8916 23.7481 28.9183 23.7781 28.9417C23.8714 29.0149 23.9623 29.0917 24.0448 29.1789C24.4405 29.5984 24.6875 30.1605 24.6875 30.7816C24.6875 32.0739 23.6361 33.1253 22.3438 33.1253ZM27.7977 22.8128H28.1478L30.4977 27.512C30.4878 27.513 30.4784 27.5149 30.4691 27.5158C30.4212 27.5205 30.3748 27.5284 30.3275 27.535C30.2633 27.5439 30.1986 27.5519 30.1348 27.5645C30.0987 27.5716 30.0641 27.5819 30.0289 27.5903C29.9567 27.6072 29.8841 27.6241 29.8133 27.6456C29.7875 27.6536 29.7631 27.6639 29.7378 27.6724C29.66 27.6986 29.5827 27.7249 29.5072 27.7567C29.4856 27.7661 29.465 27.7774 29.4434 27.7872C29.3694 27.8205 29.2948 27.8538 29.2231 27.8927L27.3148 23.837L27.7977 22.8128ZM30.7812 33.1253C29.4889 33.1253 28.4375 32.0739 28.4375 30.7816C28.4375 30.0063 28.8205 29.3228 29.4027 28.8958C29.4528 28.8592 29.5039 28.825 29.5564 28.7927C29.6295 28.7477 29.705 28.7069 29.7828 28.6699C29.8316 28.6469 29.8798 28.6234 29.93 28.6038C30.0219 28.5677 30.1175 28.5395 30.2145 28.5152C30.2572 28.5044 30.2989 28.4903 30.3425 28.4824C30.4845 28.4552 30.6308 28.4378 30.7812 28.4378C32.0736 28.4378 33.125 29.4892 33.125 30.7816C33.125 32.0739 32.0736 33.1253 30.7812 33.1253Z" fill="#12263A"/>
<path d="M30.7812 29.375C30.0059 29.375 29.375 30.0059 29.375 30.7812C29.375 31.5566 30.0059 32.1875 30.7812 32.1875C31.5566 32.1875 32.1875 31.5566 32.1875 30.7812C32.1875 30.0059 31.5566 29.375 30.7812 29.375ZM30.7812 31.25C30.5225 31.25 30.3125 31.0395 30.3125 30.7812C30.3125 30.523 30.5225 30.3125 30.7812 30.3125C31.04 30.3125 31.25 30.523 31.25 30.7812C31.25 31.0395 31.04 31.25 30.7812 31.25Z" fill="#12263A"/>
</svg>
