<svg width="40" height="40" viewBox="0 0 40 40" fill="none" xmlns="http://www.w3.org/2000/svg">
<rect width="40" height="40" rx="5" fill="#EBF5EE"/>
<path d="M28.8918 24.6332H11.1085C11.1107 24.0728 10.9318 23.5266 10.5985 23.0761C10.2651 22.6256 9.79507 22.2949 9.25845 22.1332V10.0749C9.67187 9.95462 10.0482 9.73193 10.3527 9.42748C10.6571 9.12303 10.8798 8.74667 11.0001 8.33325H19.3335C19.4565 8.74525 19.6801 9.12017 19.9842 9.42421C20.2882 9.72826 20.6631 9.95188 21.0751 10.0749V13.9749L19.5168 15.5333L18.6835 14.6999C18.5442 14.5607 18.3554 14.4825 18.1585 14.4825C17.9615 14.4825 17.7727 14.5607 17.6335 14.6999C17.4942 14.8392 17.416 15.028 17.416 15.2249C17.416 15.4218 17.4942 15.6107 17.6335 15.7499L18.4668 16.5833L17.6335 17.4166C17.5644 17.4855 17.5096 17.5673 17.4723 17.6574C17.4349 17.7475 17.4157 17.8441 17.4157 17.9416C17.4157 18.0391 17.4349 18.1357 17.4723 18.2258C17.5096 18.3159 17.5644 18.3977 17.6335 18.4666C17.7747 18.6021 17.9628 18.6777 18.1585 18.6777C18.3541 18.6777 18.5422 18.6021 18.6835 18.4666L19.5168 17.6333L21.2918 19.4082C21.4321 19.5458 21.6203 19.6234 21.8168 19.6249C21.9142 19.6251 22.0108 19.606 22.1008 19.5688C22.1909 19.5317 22.2728 19.4771 22.3418 19.4082L24.1668 17.6249L25.0001 18.4582C25.069 18.5273 25.1508 18.5821 25.2409 18.6194C25.331 18.6568 25.4276 18.676 25.5251 18.676C25.6226 18.676 25.7192 18.6568 25.8093 18.6194C25.8994 18.5821 25.9812 18.5273 26.0501 18.4582C26.1192 18.3894 26.1739 18.3075 26.2113 18.2174C26.2487 18.1274 26.2679 18.0308 26.2679 17.9333C26.2679 17.8357 26.2487 17.7391 26.2113 17.6491C26.1739 17.559 26.1192 17.4771 26.0501 17.4082L25.2168 16.5749L26.0501 15.7416C26.1905 15.6023 26.2697 15.4131 26.2705 15.2154C26.2713 15.0177 26.1935 14.8278 26.0543 14.6874C25.915 14.5471 25.7258 14.4678 25.5281 14.467C25.3304 14.4662 25.1405 14.544 25.0001 14.6833L24.1668 15.5166L22.6085 13.9583V10.0749C23.0384 9.9465 23.4276 9.70868 23.738 9.38471C24.0484 9.06075 24.2694 8.66174 24.3794 8.22674C24.4893 7.79174 24.4844 7.33565 24.3652 6.9031C24.246 6.47054 24.0166 6.07635 23.6993 5.75908C23.382 5.44182 22.9878 5.21235 22.5553 5.09315C22.1227 4.97394 21.6666 4.96907 21.2316 5.07902C20.7966 5.18896 20.3976 5.40996 20.0737 5.72038C19.7497 6.0308 19.5119 6.42001 19.3835 6.84992H11.0001C10.8717 6.42001 10.6339 6.0308 10.3099 5.72038C9.98595 5.40996 9.58694 5.18896 9.15194 5.07902C8.71694 4.96907 8.26085 4.97394 7.8283 5.09315C7.39574 5.21235 7.00155 5.44182 6.68428 5.75908C6.36702 6.07635 6.13755 6.47054 6.01834 6.9031C5.89914 7.33565 5.89427 7.79174 6.00422 8.22674C6.11416 8.66174 6.33516 9.06075 6.64558 9.38471C6.956 9.70868 7.34521 9.9465 7.77512 10.0749V22.1499C7.2385 22.3116 6.76848 22.6423 6.43511 23.0928C6.10174 23.5433 5.92285 24.0895 5.92512 24.6499C5.92512 24.8916 5.92512 25.1166 5.92512 25.3166C5.92154 25.3387 5.92154 25.3612 5.92512 25.3832V29.8332C5.93172 31.2044 6.48047 32.5172 7.45158 33.4852C8.42269 34.4532 9.7373 34.9977 11.1085 34.9999H28.8918C30.2665 34.9999 31.5849 34.4538 32.557 33.4817C33.529 32.5097 34.0751 31.1913 34.0751 29.8166C34.0751 28.4419 33.529 27.1235 32.557 26.1514C31.5849 25.1793 30.2665 24.6332 28.8918 24.6332ZM21.8501 17.8249L20.6001 16.5749L21.8501 15.3249L23.1001 16.5749L21.8501 17.8249ZM21.8501 6.48325C22.1448 6.48324 22.4276 6.59975 22.6368 6.80737C22.846 7.01498 22.9646 7.29687 22.9668 7.59159C22.9688 7.74942 22.9362 7.90578 22.8715 8.04973C22.8067 8.19367 22.7112 8.32172 22.5918 8.42492C22.3882 8.60821 22.124 8.70964 21.8501 8.70964C21.5762 8.70964 21.312 8.60821 21.1085 8.42492C21.0792 8.40125 21.0539 8.37313 21.0335 8.34159C20.8433 8.14181 20.7387 7.8757 20.7418 7.59992C20.7404 7.32446 20.8448 7.05897 21.0335 6.85825C21.1352 6.74137 21.2606 6.64748 21.4014 6.58282C21.5422 6.51817 21.6952 6.48422 21.8501 6.48325ZM7.40845 7.59159C7.40845 7.29764 7.52522 7.01573 7.73308 6.80788C7.94093 6.60002 8.22284 6.48325 8.51679 6.48325C8.81084 6.4854 9.09237 6.6026 9.30109 6.80975C9.5098 7.01691 9.6291 7.29755 9.63345 7.59159C9.63235 7.86657 9.5283 8.13118 9.34179 8.33325C9.31837 8.36507 9.29027 8.39317 9.25845 8.41659C9.09861 8.56054 8.90033 8.65487 8.6878 8.68807C8.47527 8.72127 8.25767 8.6919 8.06154 8.60356C7.86541 8.51521 7.69923 8.3717 7.58327 8.19053C7.4673 8.00936 7.40656 7.79835 7.40845 7.58325V7.59159ZM7.77512 23.8082C7.97691 23.6214 8.24178 23.5176 8.51679 23.5176C8.79179 23.5176 9.05666 23.6214 9.25845 23.8082C9.3779 23.9114 9.47334 24.0395 9.53812 24.1834C9.60289 24.3274 9.63543 24.4837 9.63345 24.6416H7.40845C7.406 24.4845 7.43749 24.3287 7.50077 24.1849C7.56405 24.041 7.65763 23.9126 7.77512 23.8082ZM28.8918 33.5166H11.1085C10.6226 33.5166 10.1414 33.4209 9.69252 33.2349C9.24362 33.049 8.83573 32.7765 8.49216 32.4329C8.14858 32.0893 7.87604 31.6814 7.6901 31.2325C7.50416 30.7836 7.40845 30.3025 7.40845 29.8166V26.1082H28.8918C29.8438 26.1534 30.7419 26.5634 31.3996 27.2531C32.0574 27.9428 32.4244 28.8593 32.4244 29.8124C32.4244 30.7655 32.0574 31.682 31.3996 32.3717C30.7419 33.0614 29.8438 33.4714 28.8918 33.5166Z" fill="#12263A"/>
<path d="M11.1084 27.5918C10.6683 27.5918 10.2382 27.7223 9.87227 27.9668C9.50637 28.2113 9.22118 28.5588 9.05278 28.9653C8.88437 29.3719 8.84031 29.8193 8.92616 30.2509C9.01201 30.6825 9.22392 31.0789 9.5351 31.3901C9.84627 31.7013 10.2427 31.9132 10.6743 31.999C11.1059 32.0849 11.5533 32.0408 11.9599 31.8724C12.3664 31.704 12.7139 31.4188 12.9584 31.0529C13.2029 30.687 13.3334 30.2569 13.3334 29.8168C13.3334 29.2267 13.099 28.6608 12.6817 28.2435C12.2645 27.8262 11.6985 27.5918 11.1084 27.5918ZM11.1084 30.5585C10.9617 30.5585 10.8183 30.515 10.6964 30.4335C10.5744 30.352 10.4793 30.2361 10.4232 30.1006C10.3671 29.9651 10.3524 29.816 10.381 29.6721C10.4096 29.5282 10.4802 29.3961 10.584 29.2924C10.6877 29.1886 10.8198 29.118 10.9637 29.0894C11.1076 29.0608 11.2567 29.0754 11.3922 29.1316C11.5278 29.1877 11.6436 29.2828 11.7251 29.4047C11.8066 29.5267 11.8501 29.6701 11.8501 29.8168C11.8501 30.0135 11.7719 30.2021 11.6328 30.3412C11.4938 30.4803 11.3051 30.5585 11.1084 30.5585Z" fill="#12263A"/>
<path d="M17.0334 27.5918C16.5933 27.5918 16.1632 27.7223 15.7973 27.9668C15.4314 28.2113 15.1462 28.5588 14.9778 28.9653C14.8094 29.3719 14.7653 29.8193 14.8512 30.2509C14.937 30.6825 15.1489 31.0789 15.4601 31.3901C15.7713 31.7013 16.1677 31.9132 16.5993 31.999C17.0309 32.0849 17.4783 32.0408 17.8849 31.8724C18.2914 31.704 18.6389 31.4188 18.8834 31.0529C19.1279 30.687 19.2584 30.2569 19.2584 29.8168C19.2584 29.2267 19.024 28.6608 18.6067 28.2435C18.1894 27.8262 17.6235 27.5918 17.0334 27.5918ZM17.0334 30.5585C16.8867 30.5585 16.7433 30.515 16.6214 30.4335C16.4994 30.352 16.4043 30.2361 16.3482 30.1006C16.2921 29.9651 16.2774 29.816 16.306 29.6721C16.3346 29.5282 16.4052 29.3961 16.509 29.2924C16.6127 29.1886 16.7448 29.118 16.8887 29.0894C17.0326 29.0608 17.1817 29.0754 17.3172 29.1316C17.4528 29.1877 17.5686 29.2828 17.6501 29.4047C17.7316 29.5267 17.7751 29.6701 17.7751 29.8168C17.7762 29.9145 17.7578 30.0114 17.7209 30.1019C17.684 30.1924 17.6294 30.2746 17.5603 30.3437C17.4912 30.4128 17.409 30.4674 17.3185 30.5043C17.2281 30.5412 17.1311 30.5596 17.0334 30.5585Z" fill="#12263A"/>
<path d="M22.9667 27.5918C22.5263 27.5902 22.0953 27.7193 21.7283 27.9627C21.3613 28.2062 21.0749 28.5531 20.9052 28.9596C20.7355 29.366 20.6902 29.8136 20.7751 30.2458C20.8601 30.6779 21.0713 31.0751 21.3821 31.3872C21.693 31.6992 22.0894 31.9119 22.5213 31.9984C22.9531 32.085 23.4009 32.0414 23.8079 31.8732C24.215 31.7051 24.563 31.4199 24.8078 31.0538C25.0527 30.6877 25.1834 30.2572 25.1834 29.8168C25.1834 29.2281 24.9501 28.6635 24.5347 28.2464C24.1192 27.8294 23.5554 27.594 22.9667 27.5918ZM22.9667 30.5585C22.8197 30.5601 22.6755 30.518 22.5524 30.4376C22.4294 30.3571 22.333 30.2418 22.2756 30.1065C22.2182 29.9711 22.2023 29.8217 22.23 29.6773C22.2577 29.5329 22.3276 29.4 22.431 29.2954C22.5344 29.1908 22.6665 29.1194 22.8106 29.0901C22.9547 29.0608 23.1043 29.075 23.2403 29.1308C23.3763 29.1867 23.4926 29.2818 23.5745 29.4039C23.6563 29.5261 23.7001 29.6698 23.7001 29.8168C23.7001 30.0121 23.6231 30.1995 23.4858 30.3383C23.3485 30.4772 23.162 30.5563 22.9667 30.5585Z" fill="#12263A"/>
<path d="M28.8917 27.5918C28.4513 27.5902 28.0203 27.7193 27.6533 27.9627C27.2863 28.2062 26.9999 28.5531 26.8302 28.9596C26.6605 29.366 26.6152 29.8136 26.7002 30.2458C26.7851 30.6779 26.9963 31.0751 27.3071 31.3872C27.618 31.6992 28.0144 31.9119 28.4463 31.9984C28.8781 32.085 29.3259 32.0414 29.7329 31.8732C30.14 31.7051 30.488 31.4199 30.7328 31.0538C30.9777 30.6877 31.1084 30.2572 31.1084 29.8168C31.1084 29.2281 30.8751 28.6635 30.4597 28.2464C30.0442 27.8294 29.4804 27.594 28.8917 27.5918ZM28.8917 30.5585C28.7451 30.5585 28.6017 30.515 28.4797 30.4335C28.3577 30.352 28.2627 30.2362 28.2065 30.1006C28.1504 29.9651 28.1357 29.816 28.1643 29.6721C28.1929 29.5283 28.2636 29.3961 28.3673 29.2924C28.471 29.1887 28.6032 29.118 28.7471 29.0894C28.8909 29.0608 29.04 29.0755 29.1756 29.1316C29.3111 29.1877 29.4269 29.2828 29.5084 29.4048C29.5899 29.5267 29.6334 29.6701 29.6334 29.8168C29.6334 30.0135 29.5553 30.2022 29.4162 30.3412C29.2771 30.4803 29.0884 30.5585 28.8917 30.5585Z" fill="#12263A"/>
</svg>
