<svg width="40" height="40" viewBox="0 0 40 40" fill="none" xmlns="http://www.w3.org/2000/svg">
<rect width="40" height="40" rx="5" fill="#EBF5EE"/>
<path d="M34.2411 25.676L30.7724 16.9695C30.7275 16.8567 30.6406 16.7657 30.53 16.7157C30.4194 16.6657 30.2937 16.6606 30.1794 16.7013L26.398 18.0546C26.3386 18.0759 26.2841 18.109 26.2378 18.1518C26.1915 18.1947 26.1544 18.2464 26.1285 18.304C26.1027 18.3615 26.0888 18.4237 26.0876 18.4868C26.0863 18.5498 26.0978 18.6125 26.1214 18.671L26.3699 19.287L24.7995 19.8026C24.2155 19.5766 22.1591 18.7802 21.5797 18.5196C20.6563 18.1029 19.8097 18.4338 18.8281 19.0624C18.1367 18.5337 17.4894 18.5299 16.6124 19.0254C16.003 19.3695 15.0538 19.9427 14.6145 20.2085L13.8735 19.7909L14.2133 19.0812C14.2662 18.9709 14.2739 18.8443 14.2347 18.7285C14.1956 18.6126 14.1127 18.5166 14.0038 18.461L10.6044 16.7266C10.5494 16.6986 10.4895 16.6816 10.428 16.6768C10.3665 16.672 10.3046 16.6793 10.246 16.6984C10.1873 16.7176 10.133 16.7481 10.0861 16.7882C10.0393 16.8284 10.0008 16.8774 9.97298 16.9324L5.7758 25.2213C5.71988 25.3318 5.70993 25.4599 5.74814 25.5777C5.78634 25.6954 5.86959 25.7933 5.9797 25.8499L9.55251 27.6874C9.60824 27.7161 9.66914 27.7333 9.73162 27.738C9.79409 27.7427 9.85688 27.7348 9.91627 27.7149C9.97566 27.6949 10.0304 27.6632 10.0774 27.6217C10.1243 27.5802 10.1625 27.5297 10.1895 27.4732L10.4619 26.9055L10.8936 27.2009C10.81 27.3681 10.7366 27.5403 10.6738 27.7165C10.6588 27.7633 10.6512 27.8122 10.6513 27.8613C10.6513 29.0416 11.8658 29.6941 12.3781 29.9168C12.4614 30.178 12.6004 30.418 12.7854 30.6203C12.9704 30.8226 13.197 30.9824 13.4497 31.0887C13.5562 31.1201 13.6668 31.1359 13.7778 31.1355C13.9487 31.1334 14.1175 31.0977 14.2747 31.0306C14.4366 31.382 14.7027 31.6751 15.0369 31.8701C15.336 32.0291 15.6806 32.081 16.0133 32.0173C16.2189 32.3905 16.5344 32.6913 16.917 32.8788C17.0577 32.9369 17.2083 32.967 17.3605 32.9674C17.5188 32.9672 17.6755 32.9353 17.8213 32.8737C18.2221 32.697 18.5671 32.4144 18.8192 32.0562C19.0536 32.2437 19.4117 32.5249 19.8102 32.8427C20.1158 33.0732 20.4901 33.1941 20.8728 33.1859C21.1941 33.1857 21.5109 33.1112 21.7986 32.9684C22.0109 32.8671 22.1998 32.7226 22.3531 32.5443C22.5065 32.3659 22.6209 32.1575 22.6892 31.9324C23.0782 31.9276 23.4586 31.8177 23.7902 31.6143C24.1218 31.4109 24.3922 31.1215 24.5727 30.777C24.6622 30.7904 24.7526 30.7975 24.8431 30.798C25.2891 30.7953 25.7237 30.6576 26.0898 30.4031C26.456 30.1486 26.7365 29.7891 26.8944 29.3721C26.9145 29.3721 26.9342 29.3759 26.9549 29.3759C27.4415 29.3908 27.9149 29.2158 28.2749 28.8879C28.5165 28.6664 28.6813 28.3737 28.7453 28.0522C28.8093 27.7307 28.7691 27.3972 28.6306 27.1001L29.3844 26.7663L29.6591 27.4484C29.705 27.5625 29.794 27.6539 29.9067 27.703C30.0195 27.7521 30.1471 27.7549 30.2619 27.7109L33.9735 26.2887C34.0312 26.2664 34.084 26.233 34.1287 26.1903C34.1735 26.1475 34.2093 26.0964 34.2342 26.0397C34.2591 25.9831 34.2725 25.9221 34.2737 25.8602C34.2749 25.7983 34.2638 25.7369 34.2411 25.6793V25.676ZM9.55298 26.6341L6.82298 25.2279L10.5974 17.7748L13.1708 19.0873L9.55298 26.6341ZM11.5925 27.9335C11.7332 27.584 11.9141 27.2521 12.1316 26.9445C12.219 26.8756 12.3249 26.8344 12.4359 26.826C12.5469 26.8177 12.6578 26.8426 12.7545 26.8976C12.7928 26.909 12.8283 26.9285 12.8584 26.9548C12.8886 26.981 12.9128 27.0133 12.9295 27.0497C12.9462 27.086 12.9549 27.1255 12.9551 27.1654C12.9554 27.2054 12.9471 27.245 12.9308 27.2815C12.7517 27.858 12.5703 28.4815 12.448 28.9081C12.0711 28.6971 11.638 28.3554 11.5925 27.9335ZM13.7188 30.1896C13.5402 30.1366 13.3653 29.8559 13.2631 29.6102C13.6112 29.0208 13.992 28.4514 14.4036 27.9045C14.4973 27.7799 14.6328 27.6933 14.7851 27.6604C14.9375 27.6275 15.0966 27.6506 15.2333 27.7254C15.4208 27.8552 15.3158 28.1135 15.1949 28.3076C15.1911 28.3137 15.1911 28.3207 15.1878 28.3268C15.1845 28.3329 15.1705 28.3512 15.1644 28.3648C15.0819 28.5523 14.5442 29.4166 14.1641 30.0115C14.0436 30.1099 13.8594 30.2318 13.7188 30.1896ZM15.936 31.0755C15.8627 31.102 15.7847 31.113 15.7069 31.108C15.6292 31.1029 15.5533 31.0818 15.4841 31.046C15.2624 30.8906 15.1008 30.6637 15.0266 30.4034C15.3022 29.9693 15.8975 29.0238 16.0194 28.7496C16.073 28.6891 16.1458 28.649 16.2256 28.6362C16.3164 28.6204 16.4095 28.624 16.4988 28.6466C16.5882 28.6692 16.6717 28.7104 16.7441 28.7674C16.8386 28.8298 16.9091 28.9225 16.9441 29.0302C16.9791 29.1379 16.9765 29.2543 16.9367 29.3604L15.936 31.0755ZM17.458 32.0079C17.2152 32.1105 16.9513 31.7538 16.8017 31.5045L17.75 30.2093C17.8498 30.2065 17.9491 30.2238 18.042 30.2602C18.135 30.2966 18.2196 30.3513 18.291 30.4212C18.337 30.5107 18.3648 30.6084 18.3729 30.7087C18.3809 30.8091 18.369 30.91 18.3378 31.0057C18.1799 31.4374 17.8667 31.7948 17.4594 32.0079H17.458ZM27.6106 28.2237C27.474 28.3248 27.316 28.3932 27.1487 28.4237C26.9815 28.4541 26.8095 28.4458 26.646 28.3995C26.6417 28.3995 26.6385 28.3957 26.6342 28.3952C26.63 28.3948 26.6305 28.3952 26.6286 28.3952C26.5842 28.3822 26.5417 28.3631 26.5025 28.3385C26.226 28.1543 24.7808 26.7645 23.9347 25.932C23.8916 25.8853 23.8395 25.8479 23.7816 25.8221C23.7237 25.7962 23.6611 25.7823 23.5976 25.7813C23.5341 25.7804 23.4711 25.7923 23.4124 25.8164C23.3537 25.8405 23.3005 25.8763 23.256 25.9215C23.2115 25.9668 23.1767 26.0206 23.1537 26.0798C23.1306 26.1389 23.1198 26.2021 23.1219 26.2655C23.124 26.329 23.139 26.3913 23.1659 26.4488C23.1928 26.5063 23.2311 26.5577 23.2785 26.5999C23.6535 26.9702 25.5519 28.8307 25.9836 29.1185C25.9119 29.2732 25.8101 29.412 25.6841 29.5268C25.5582 29.6417 25.4106 29.7303 25.25 29.7874C25.1152 29.8467 24.9681 29.8725 24.8212 29.8626C24.6743 29.8528 24.5319 29.8075 24.4063 29.7307C23.7997 29.1916 22.1535 27.5463 22.137 27.5299C22.0486 27.4445 21.9302 27.3973 21.8073 27.3984C21.6844 27.3994 21.5669 27.4487 21.4799 27.5356C21.393 27.6225 21.3437 27.7401 21.3427 27.863C21.3416 27.9859 21.3888 28.1043 21.4742 28.1927C21.5403 28.2593 23.0614 29.779 23.7242 30.3776C23.6426 30.5211 23.5327 30.6466 23.4011 30.7463C23.2695 30.8461 23.119 30.9181 22.9588 30.9579C22.8469 30.9959 22.7282 31.01 22.6105 30.999C22.4929 30.9881 22.3788 30.9526 22.2758 30.8946L20.6094 29.2296L19.9461 29.8905L21.6111 31.556C21.6642 31.607 21.7225 31.6522 21.785 31.691C21.7498 31.7867 21.696 31.8745 21.6267 31.9493C21.5573 32.024 21.4738 32.0843 21.381 32.1265C21.2292 32.2085 21.0587 32.2499 20.8862 32.2465C20.7137 32.2431 20.545 32.1952 20.3966 32.1073C19.9035 31.7126 19.4708 31.3713 19.2575 31.204C19.3215 30.9793 19.3361 30.7434 19.3004 30.5125C19.2647 30.2816 19.1796 30.0611 19.0508 29.8662C18.9118 29.6918 18.737 29.5494 18.5383 29.4485C18.3395 29.3476 18.1213 29.2905 17.8986 29.2812C17.9201 29.0308 17.8737 28.7794 17.7643 28.5532C17.6549 28.327 17.4866 28.1345 17.277 27.9959C16.9795 27.7824 16.6187 27.6754 16.2528 27.6921C16.1936 27.3929 16.0201 27.1285 15.7691 26.9552C15.4816 26.7744 15.1436 26.6905 14.8049 26.7158C14.4662 26.7411 14.1445 26.8743 13.887 27.0959C13.8735 26.8736 13.7993 26.6594 13.6725 26.4763C13.5457 26.2933 13.3712 26.1485 13.168 26.0576C12.8751 25.9018 12.5379 25.8504 12.2118 25.9117C11.8858 25.9731 11.5904 26.1435 11.3741 26.3951L10.872 26.0515L13.467 20.6379L14.3933 21.1596C14.4659 21.2006 14.5482 21.2215 14.6316 21.2201C14.715 21.2187 14.7965 21.1951 14.8677 21.1516C14.8817 21.1432 16.2922 20.283 17.0741 19.8415C17.466 19.6198 17.7149 19.5466 17.9647 19.6343C17.2743 20.1584 16.81 20.9263 16.6667 21.7812C16.46 22.6052 16.5088 23.1785 16.8186 23.5859C17.0922 23.8943 17.4665 24.0955 17.8747 24.1535C18.0601 24.1922 18.2517 24.1899 18.4362 24.1468C18.6206 24.1037 18.7934 24.0209 18.9425 23.9041C19.3663 23.5935 19.6616 23.1385 19.7727 22.6249L20.2649 22.3024C21.6841 23.0915 23.1628 23.7684 24.6875 24.327C25.1239 24.746 27.1049 26.6524 27.5905 27.1966L27.5933 27.1999C27.6695 27.2611 27.7312 27.3383 27.7743 27.426C27.8173 27.5137 27.8406 27.6097 27.8423 27.7074C27.8441 27.8051 27.8244 27.902 27.7846 27.9912C27.7448 28.0804 27.6859 28.1598 27.612 28.2237H27.6106ZM28.0569 26.3266C27.253 25.4895 25.3381 23.6548 25.2481 23.5685C25.1907 23.5133 25.12 23.4737 25.0428 23.4537C23.6591 23.0909 20.4983 21.3626 20.4664 21.3443C20.392 21.3036 20.3079 21.2838 20.2231 21.2871C20.1383 21.2904 20.056 21.3166 19.985 21.363L19.0831 21.9527C19.0237 21.9916 18.9739 22.0434 18.9375 22.1043C18.901 22.1652 18.8788 22.2336 18.8727 22.3043C18.8546 22.4687 18.8032 22.6276 18.7216 22.7714C18.6399 22.9152 18.5298 23.0408 18.3978 23.1406C18.3532 23.18 18.3003 23.2088 18.243 23.2251C18.1857 23.2413 18.1256 23.2445 18.0669 23.2343C17.8818 23.213 17.7072 23.1375 17.5649 23.0173C17.4969 22.9282 17.4083 22.6784 17.5756 22.0076C17.885 20.7705 18.2961 20.5076 19.1155 19.9887L19.317 19.8602C20.3366 19.204 20.7767 19.1857 21.1953 19.3732C21.8928 19.6868 24.5075 20.6932 24.6172 20.7359C24.7179 20.7746 24.8288 20.7774 24.9313 20.7438L26.7195 20.1574L29.0319 25.8935L28.0569 26.3266ZM30.3538 26.6693L27.1719 18.7727L30.0674 17.7363L33.193 25.5818L30.3538 26.6693ZM17.9797 11.1265V10.7618C17.9802 10.3955 18.126 10.0443 18.385 9.78538C18.6441 9.52641 18.9953 9.38077 19.3616 9.38039H19.5313V9.1193C19.5313 8.99498 19.5806 8.87575 19.6686 8.78784C19.7565 8.69994 19.8757 8.65055 20 8.65055C20.1243 8.65055 20.2436 8.69994 20.3315 8.78784C20.4194 8.87575 20.4688 8.99498 20.4688 9.1193V9.38039H20.6385C20.9561 9.38076 21.2607 9.50702 21.4854 9.7315C21.7102 9.95599 21.8368 10.2604 21.8375 10.578C21.8375 10.7024 21.7881 10.8216 21.7002 10.9095C21.6123 10.9974 21.4931 11.0468 21.3688 11.0468C21.2444 11.0468 21.1252 10.9974 21.0373 10.9095C20.9494 10.8216 20.9 10.7024 20.9 10.578C20.8999 10.5088 20.8723 10.4424 20.8232 10.3934C20.7742 10.3444 20.7077 10.317 20.6385 10.317H19.3616C19.2438 10.3171 19.131 10.3639 19.0477 10.4471C18.9644 10.5303 18.9175 10.6431 18.9172 10.7609V11.1255C18.9175 11.2433 18.9644 11.3561 19.0477 11.4393C19.131 11.5225 19.2438 11.5693 19.3616 11.5695H20.6385C21.0047 11.5698 21.3558 11.7154 21.6148 11.9743C21.8739 12.2331 22.0197 12.5842 22.0203 12.9504V13.3155C22.0198 13.6818 21.8741 14.0329 21.615 14.2918C21.3559 14.5507 21.0047 14.6962 20.6385 14.6965H20.4688V14.958C20.4688 15.0824 20.4194 15.2016 20.3315 15.2895C20.2436 15.3774 20.1243 15.4268 20 15.4268C19.8757 15.4268 19.7565 15.3774 19.6686 15.2895C19.5806 15.2016 19.5313 15.0824 19.5313 14.958V14.6965H19.3616C19.0437 14.6962 18.739 14.5699 18.5142 14.3452C18.2894 14.1205 18.1629 13.8157 18.1625 13.4979C18.1625 13.3736 18.2119 13.2543 18.2998 13.1664C18.3877 13.0785 18.5069 13.0291 18.6313 13.0291C18.7556 13.0291 18.8748 13.0785 18.9627 13.1664C19.0506 13.2543 19.1 13.3736 19.1 13.4979C19.1001 13.5672 19.1278 13.6336 19.1768 13.6825C19.2258 13.7315 19.2923 13.759 19.3616 13.759H20.6385C20.7561 13.759 20.869 13.7123 20.9523 13.6292C21.0357 13.546 21.0826 13.4332 21.0828 13.3155V12.9504C21.0826 12.8327 21.0357 12.7199 20.9523 12.6368C20.869 12.5536 20.7561 12.507 20.6385 12.507H19.3616C18.9954 12.5066 18.6444 12.3611 18.3854 12.1023C18.1263 11.8435 17.9804 11.4926 17.9797 11.1265ZM20 17.2638C21.0334 17.2638 22.0435 16.9574 22.9027 16.3833C23.7619 15.8092 24.4316 14.9932 24.827 14.0385C25.2224 13.0839 25.3259 12.0333 25.1243 11.0199C24.9227 10.0064 24.4251 9.07542 23.6944 8.34473C22.9637 7.61405 22.0328 7.11644 21.0193 6.91485C20.0058 6.71325 18.9553 6.81672 18.0006 7.21216C17.0459 7.60761 16.2299 8.27727 15.6558 9.13646C15.0817 9.99566 14.7753 11.0058 14.7753 12.0391C14.7769 13.4243 15.3279 14.7523 16.3074 15.7318C17.2869 16.7112 18.6148 17.2622 20 17.2638ZM20 7.75196C20.8479 7.75196 21.6768 8.00339 22.3818 8.47448C23.0869 8.94556 23.6364 9.61513 23.9609 10.3985C24.2853 11.1819 24.3702 12.0439 24.2048 12.8755C24.0394 13.7072 23.6311 14.4711 23.0315 15.0706C22.4319 15.6702 21.668 16.0785 20.8364 16.244C20.0048 16.4094 19.1428 16.3245 18.3594 16C17.576 15.6755 16.9064 15.126 16.4353 14.421C15.9643 13.716 15.7128 12.8871 15.7128 12.0391C15.7142 10.9025 16.1663 9.81286 16.97 9.00915C17.7737 8.20544 18.8634 7.75332 20 7.75196Z" fill="#12263A"/>
</svg>
