<svg width="40" height="40" viewBox="0 0 40 40" fill="none" xmlns="http://www.w3.org/2000/svg">
<rect width="40" height="40" rx="5" fill="#EBF5EE"/>
<path d="M14.2039 11.9362C14.0599 11.9362 13.9159 11.9002 13.8079 11.7922C13.5919 11.5762 13.5919 11.2522 13.8079 11.0362L14.8159 10.0282C15.0319 9.81221 15.3559 9.81221 15.5719 10.0282C15.7879 10.2442 15.7879 10.5682 15.5719 10.7842L14.5999 11.7562C14.4919 11.8642 14.3479 11.9362 14.2039 11.9362Z" fill="#12263A"/>
<path d="M26.6241 31.7001C26.4801 31.7001 26.3361 31.6641 26.2281 31.5561L8.58809 13.8801C8.48009 13.7721 8.44409 13.6281 8.44409 13.4841C8.44409 13.3401 8.51609 13.1961 8.58809 13.0881L13.2681 8.40809C13.4841 8.19209 13.8081 8.19209 14.0241 8.40809L31.7001 26.1201C31.8081 26.2281 31.8441 26.3721 31.8441 26.5161C31.8441 26.6601 31.7721 26.8041 31.7001 26.9121L27.0201 31.5921C26.9121 31.6641 26.7681 31.7001 26.6241 31.7001ZM9.74009 13.5201L26.6601 30.4401L30.5481 26.4801L13.6281 9.56009L9.74009 13.5201Z" fill="#12263A"/>
<path d="M14.5639 14.06C14.4199 14.06 14.2759 14.024 14.1679 13.916C13.9519 13.7 13.9519 13.376 14.1679 13.16L16.0399 11.288C16.2559 11.072 16.5799 11.072 16.7959 11.288C17.0119 11.504 17.0119 11.828 16.7959 12.044L14.9599 13.88C14.8519 13.988 14.7079 14.06 14.5639 14.06Z" fill="#12263A"/>
<path d="M16.8681 14.6003C16.7241 14.6003 16.5801 14.5643 16.4721 14.4563C16.2561 14.2403 16.2561 13.9163 16.4721 13.7003L17.4801 12.6923C17.6961 12.4763 18.0201 12.4763 18.2361 12.6923C18.4521 12.9083 18.4521 13.2323 18.2361 13.4483L17.2281 14.4563C17.1561 14.5643 17.0121 14.6003 16.8681 14.6003Z" fill="#12263A"/>
<path d="M17.228 16.724C17.084 16.724 16.94 16.688 16.832 16.58C16.616 16.364 16.616 16.04 16.832 15.824L18.704 13.952C18.92 13.736 19.244 13.736 19.46 13.952C19.676 14.168 19.676 14.492 19.46 14.708L17.588 16.58C17.516 16.652 17.372 16.724 17.228 16.724Z" fill="#12263A"/>
<path d="M19.5681 17.2643C19.4241 17.2643 19.2801 17.2283 19.1721 17.1203C18.9561 16.9043 18.9561 16.5803 19.1721 16.3643L20.1801 15.3563C20.3961 15.1403 20.7201 15.1403 20.9361 15.3563C21.1521 15.5723 21.1521 15.8963 20.9361 16.1123L19.9281 17.1203C19.8561 17.2283 19.7121 17.2643 19.5681 17.2643Z" fill="#12263A"/>
<path d="M19.928 19.3881C19.784 19.3881 19.64 19.3521 19.532 19.2441C19.316 19.0281 19.316 18.7041 19.532 18.4881L21.404 16.6161C21.62 16.4001 21.944 16.4001 22.16 16.6161C22.376 16.8321 22.376 17.1561 22.16 17.3721L20.288 19.2441C20.18 19.3521 20.072 19.3881 19.928 19.3881Z" fill="#12263A"/>
<path d="M22.2321 19.9636C22.0881 19.9636 21.9441 19.9276 21.8361 19.8196C21.6201 19.6036 21.6201 19.2796 21.8361 19.0636L22.8441 18.0556C23.0601 17.8396 23.3841 17.8396 23.6001 18.0556C23.8161 18.2716 23.8161 18.5956 23.6001 18.8116L22.5921 19.8196C22.5201 19.8916 22.3761 19.9636 22.2321 19.9636Z" fill="#12263A"/>
<path d="M22.5921 22.0883C22.4481 22.0883 22.3041 22.0523 22.1961 21.9443C21.9801 21.7283 21.9801 21.4043 22.1961 21.1883L24.0681 19.3163C24.2841 19.1003 24.6081 19.1003 24.8241 19.3163C25.0401 19.5323 25.0401 19.8563 24.8241 20.0723L22.9521 21.9443C22.8801 22.0163 22.7361 22.0883 22.5921 22.0883Z" fill="#12263A"/>
<path d="M24.9321 22.6286C24.7881 22.6286 24.6441 22.5926 24.5361 22.4846C24.3201 22.2686 24.3201 21.9446 24.5361 21.7286L25.5441 20.7206C25.7601 20.5046 26.0841 20.5046 26.3001 20.7206C26.5161 20.9366 26.5161 21.2606 26.3001 21.4766L25.2921 22.4846C25.1841 22.5926 25.0401 22.6286 24.9321 22.6286Z" fill="#12263A"/>
<path d="M25.2921 24.7524C25.1481 24.7524 25.0041 24.7164 24.8961 24.6084C24.6801 24.3924 24.6801 24.0684 24.8961 23.8524L26.7681 21.9804C26.9841 21.7644 27.3081 21.7644 27.5241 21.9804C27.7401 22.1964 27.7401 22.5204 27.5241 22.7364L25.6521 24.6084C25.5441 24.7164 25.4001 24.7524 25.2921 24.7524Z" fill="#12263A"/>
<path d="M27.5962 25.3278C27.4522 25.3278 27.3082 25.2918 27.2002 25.1838C26.9842 24.9678 26.9842 24.6438 27.2002 24.4278L28.2082 23.4198C28.4242 23.2038 28.7482 23.2038 28.9642 23.4198C29.1802 23.6358 29.1802 23.9598 28.9642 24.1758L27.9562 25.1838C27.8842 25.2558 27.7402 25.3278 27.5962 25.3278Z" fill="#12263A"/>
<path d="M10.496 31.1246C10.352 31.1246 10.208 31.0886 10.136 30.9806C9.99202 30.8366 9.92002 30.6206 9.99202 30.4406L11.648 25.1486C11.684 25.0766 11.72 25.0046 11.792 24.9326L15.86 20.7206C16.076 20.5046 16.4 20.5046 16.616 20.7206C16.832 20.9366 16.832 21.2606 16.616 21.4766L12.62 25.5806L11.324 29.7566L15.464 28.3526L19.352 24.3566C19.568 24.1406 19.892 24.1406 20.108 24.3566C20.324 24.5726 20.324 24.8966 20.108 25.1126L16.148 29.2166C16.076 29.2886 16.004 29.3246 15.932 29.3606L10.676 31.1246C10.604 31.1246 10.568 31.1246 10.496 31.1246Z" fill="#12263A"/>
<path d="M24.7161 20.2156C24.5721 20.2156 24.4281 20.1796 24.3561 20.0716C24.1401 19.8556 24.1401 19.5316 24.3561 19.3156L30.2601 13.2676L27.4161 10.4956L21.6921 16.3276C21.4761 16.5436 21.1521 16.5436 20.9361 16.3276C20.7201 16.1116 20.7201 15.7876 20.9361 15.5716L27.0201 9.34364C27.2361 9.12764 27.5601 9.12764 27.7761 9.34364L31.3761 12.8716C31.4841 12.9796 31.5201 13.1236 31.5561 13.2676C31.5561 13.4116 31.5201 13.5556 31.4121 13.6636L25.1121 20.0716C25.0041 20.1796 24.8601 20.2156 24.7161 20.2156Z" fill="#12263A"/>
<path d="M29.0361 15.5358C28.8921 15.5358 28.7481 15.4998 28.6401 15.3918L25.2561 12.0078C25.0401 11.7918 25.0401 11.4678 25.2561 11.2518C25.4721 11.0358 25.7961 11.0358 26.0121 11.2518L29.3961 14.6358C29.6121 14.8518 29.6121 15.1758 29.3961 15.3918C29.3241 15.4998 29.1801 15.5358 29.0361 15.5358Z" fill="#12263A"/>
<path d="M14.42 29.4678C14.276 29.4678 14.132 29.4318 14.024 29.3238L11.792 27.0918C11.576 26.8758 11.576 26.5518 11.792 26.3358C12.008 26.1198 12.332 26.1198 12.548 26.3358L14.78 28.5678C14.996 28.7838 14.996 29.1078 14.78 29.3238C14.708 29.4318 14.564 29.4678 14.42 29.4678Z" fill="#12263A"/>
</svg>
