<svg width="40" height="40" viewBox="0 0 40 40" fill="none" xmlns="http://www.w3.org/2000/svg">
<rect width="40" height="40" rx="5" fill="#EBF5EE"/>
<g clip-path="url(#clip0)">
<path fill-rule="evenodd" clip-rule="evenodd" d="M8.13261 12.9924V33.9402H7.07541C6.78261 33.9402 6.54561 34.1778 6.54561 34.4706C6.54621 34.7622 6.78321 34.9998 7.07541 34.9998H32.9246C33.2168 34.9998 33.4538 34.7622 33.4538 34.47C33.4538 34.1772 33.2168 33.9396 32.9246 33.9396H31.8674V12.9924C31.8674 12.7002 31.6304 12.4626 31.3376 12.4626H8.66241C8.36961 12.4632 8.13261 12.7002 8.13261 12.9924ZM28.7054 29.0586H25.1042C24.8114 29.0586 24.575 29.2956 24.575 29.5884V31.707C24.575 31.9998 24.812 32.2368 25.1048 32.2368C25.3976 32.2368 25.6346 31.9998 25.6346 31.707V30.1182H28.706C28.9988 30.1182 29.2358 29.8812 29.2358 29.5884C29.2352 29.2962 28.9982 29.0586 28.7054 29.0586ZM21.6986 30.1182C21.9914 30.1182 22.2284 29.8812 22.2284 29.5884C22.2284 29.2956 21.9914 29.058 21.6986 29.058H18.0974C17.8046 29.058 17.5676 29.295 17.5676 29.5878V31.7064C17.5676 31.9992 17.8046 32.2362 18.0974 32.2362C18.3896 32.2362 18.6272 31.9992 18.6272 31.7064L18.6266 30.1176L21.6986 30.1182ZM15.089 30.1182C15.3818 30.1182 15.6188 29.8812 15.6188 29.5884C15.6188 29.2956 15.3818 29.058 15.089 29.058H11.4878C11.195 29.058 10.958 29.295 10.958 29.5878V31.7064C10.958 31.9992 11.195 32.2362 11.4878 32.2362C11.78 32.2362 12.0176 31.9992 12.0176 31.7064V30.1176L15.089 30.1182ZM12.0176 25.5336H15.089C15.3818 25.5336 15.6188 25.2966 15.6188 25.0044C15.6188 24.7116 15.3818 24.474 15.089 24.474H11.4878C11.195 24.474 10.958 24.711 10.958 25.0038V27.1224C10.958 27.4146 11.195 27.6522 11.4878 27.6522C11.78 27.6522 12.0176 27.4152 12.0176 27.1224V25.5336ZM17.5676 25.0038V27.1224C17.5676 27.4146 17.8046 27.6522 18.0974 27.6522C18.3896 27.6522 18.6272 27.4152 18.6272 27.1224L18.6266 25.533H21.698C21.9908 25.533 22.2278 25.296 22.2278 25.0038C22.2278 24.711 21.9908 24.4734 21.698 24.4734H18.0968C17.8046 24.474 17.5676 24.711 17.5676 25.0038ZM18.6272 20.9484L21.6986 20.949C21.9914 20.949 22.2284 20.7114 22.2284 20.4192C22.2284 20.1264 21.9914 19.8888 21.6986 19.8888H18.0974C17.8046 19.8888 17.5676 20.1258 17.5676 20.4186V22.5372C17.5676 22.83 17.8046 23.067 18.0974 23.067C18.3896 23.067 18.6272 22.83 18.6272 22.5372V20.9484ZM15.089 20.949C15.3818 20.949 15.6188 20.7114 15.6188 20.4192C15.6188 20.1264 15.3818 19.8888 15.089 19.8888H11.4878C11.195 19.8888 10.958 20.1258 10.958 20.4186V22.5372C10.958 22.83 11.195 23.067 11.4878 23.067C11.78 23.067 12.0176 22.83 12.0176 22.5372V20.9478L15.089 20.949ZM12.0176 16.3638L15.089 16.3644C15.3818 16.3644 15.6188 16.1268 15.6188 15.8346C15.6188 15.5424 15.3818 15.3048 15.089 15.3048H11.4878C11.195 15.3048 10.958 15.5418 10.958 15.8346V17.9532C10.958 18.2454 11.195 18.483 11.4878 18.483C11.78 18.483 12.0176 18.246 12.0176 17.9532V16.3638ZM17.5676 15.834V17.9526C17.5676 18.2448 17.8046 18.4824 18.0974 18.4824C18.3896 18.4824 18.6272 18.2454 18.6272 17.9526L18.6266 16.3632L21.698 16.3638C21.9908 16.3638 22.2278 16.1262 22.2278 15.834C22.2278 15.5418 21.9908 15.3042 21.698 15.3042H18.0968C17.8046 15.3042 17.5676 15.5418 17.5676 15.834ZM25.1042 15.3042C24.8114 15.3042 24.575 15.5412 24.575 15.834V17.9526C24.575 18.2448 24.812 18.4824 25.1048 18.4824C25.3976 18.4824 25.6346 18.2454 25.6346 17.9526V16.3632L28.706 16.3638C28.9988 16.3638 29.2358 16.1262 29.2358 15.834C29.2358 15.5418 28.9988 15.3042 28.706 15.3042H25.1042ZM28.7054 19.8894H25.1042C24.8114 19.8894 24.575 20.1264 24.575 20.4192V22.5378C24.575 22.8306 24.812 23.0676 25.1048 23.0676C25.3976 23.0676 25.6346 22.8306 25.6346 22.5378V20.9484L28.706 20.949C28.9988 20.949 29.2358 20.7114 29.2358 20.4192C29.2352 20.127 28.9982 19.8894 28.7054 19.8894ZM28.7054 24.474H25.1042C24.8114 24.474 24.575 24.711 24.575 25.0038V27.1224C24.575 27.4146 24.812 27.6522 25.1048 27.6522C25.3976 27.6522 25.6346 27.4152 25.6346 27.1224V25.533H28.706C28.9988 25.533 29.2358 25.296 29.2358 25.0038C29.2352 24.7116 28.9982 24.474 28.7054 24.474ZM26.8358 10.5822C26.2226 10.425 25.6802 10.0362 25.4108 9.39236C25.3268 9.18896 25.13 9.06656 24.9224 9.06536H15.0962C14.8658 9.06536 14.669 9.21296 14.5964 9.41936C14.3228 10.0476 13.787 10.4268 13.1828 10.5822C12.8948 10.656 12.587 10.68 12.2804 10.6578C11.9768 10.635 11.6768 10.5648 11.4038 10.4508C11.0786 10.3152 10.79 10.1154 10.5746 9.85915H12.0974C12.3104 9.85915 12.4946 9.73256 12.5786 9.55076C12.7856 9.16316 12.8924 8.76595 12.8942 8.36396C12.896 7.95056 12.785 7.54076 12.5564 7.13576C12.4598 6.96416 12.281 6.86756 12.0974 6.86456H10.5752C10.7906 6.60776 11.0786 6.40856 11.4044 6.27296C11.6774 6.15895 11.9768 6.08815 12.281 6.06595C12.5876 6.04315 12.8954 6.06775 13.1834 6.14155C13.796 6.29875 14.339 6.68695 14.6084 7.33136C14.6924 7.53475 14.8892 7.65716 15.0968 7.65836H24.923C25.154 7.65836 25.3502 7.51076 25.4222 7.30436C25.6958 6.67616 26.2316 6.29636 26.8358 6.14155C27.1232 6.06775 27.431 6.04375 27.7382 6.06595C28.0424 6.08875 28.3418 6.15835 28.6148 6.27296C28.94 6.40856 29.228 6.60776 29.4434 6.86456H27.9212C27.7028 6.86456 27.515 6.99716 27.434 7.18616C27.224 7.57376 27.122 7.96736 27.1244 8.36396C27.1262 8.77615 27.2396 9.18296 27.458 9.58196C27.5534 9.75776 27.7346 9.85736 27.9212 9.85915H29.4434C29.228 10.1154 28.9394 10.3152 28.6142 10.4508C28.3412 10.5648 28.0418 10.6356 27.7376 10.6578C27.4316 10.6806 27.1232 10.656 26.8358 10.5822ZM15.425 10.125H24.5936C25.0358 10.9128 25.766 11.3964 26.5748 11.604C26.9804 11.7084 27.4046 11.7438 27.8168 11.7126C28.2314 11.682 28.6424 11.5848 29.0198 11.4264C29.8562 11.0772 30.5372 10.4268 30.7928 9.51536C30.815 9.45716 30.827 9.39416 30.827 9.32876C30.827 9.03656 30.5894 8.79895 30.2972 8.79895H28.2596C28.2074 8.64896 28.1798 8.50256 28.1792 8.35856C28.1786 8.21516 28.2044 8.06996 28.256 7.92296L30.2966 7.92056L30.4268 7.90436C30.7088 7.83236 30.8792 7.54496 30.8072 7.26296C30.5648 6.32156 29.8724 5.65195 29.0192 5.29555C28.6418 5.13775 28.2308 5.04055 27.8162 5.00995C27.404 4.97875 26.9798 5.01475 26.5742 5.11855C25.7654 5.32615 25.0352 5.80976 24.593 6.59756H15.425C14.9822 5.80976 14.2532 5.32615 13.4438 5.11855C13.0382 5.01415 12.614 4.97875 12.2018 5.00995C11.7872 5.04055 11.3762 5.13775 10.9988 5.29555C10.1624 5.64595 9.48141 6.29575 9.22641 7.20715C9.20421 7.26536 9.19221 7.32836 9.19221 7.39436C9.19221 7.68656 9.42921 7.92416 9.72141 7.92416H11.762C11.8136 8.07176 11.8394 8.21636 11.8388 8.35976C11.8382 8.50376 11.8112 8.65016 11.7578 8.80016L9.72201 8.80195L9.59121 8.81816C9.30921 8.89016 9.13881 9.17756 9.21081 9.45956C9.45321 10.401 10.1456 11.0706 10.9988 11.427C11.3762 11.5848 11.7872 11.682 12.2018 11.7132C12.6146 11.7444 13.0382 11.7084 13.4438 11.6046C14.2532 11.3964 14.9828 10.9128 15.425 10.125ZM30.8078 13.5222V33.9402H9.19221V13.5222H30.8078Z" fill="#12263A"/>
</g>
<defs>
<clipPath id="clip0">
<rect width="30" height="30" fill="white" transform="translate(5 5)"/>
</clipPath>
</defs>
</svg>
