<svg width="40" height="40" viewBox="0 0 40 40" fill="none" xmlns="http://www.w3.org/2000/svg">
<rect width="40" height="40" rx="5" fill="#EBF5EE"/>
<path d="M31.1127 31.4498L28.3002 28.6373C28.2123 28.5494 28.0931 28.5 27.9688 28.5H13.9062V27.5625C13.9062 27.1895 13.7581 26.8319 13.4944 26.5681C13.2306 26.3044 12.873 26.1562 12.5 26.1562H9.6875C9.56318 26.1562 9.44395 26.1069 9.35604 26.019C9.26814 25.931 9.21875 25.8118 9.21875 25.6875C9.21875 25.5632 9.26814 25.444 9.35604 25.356C9.44395 25.2681 9.56318 25.2188 9.6875 25.2188H12.5C12.873 25.2188 13.2306 25.0706 13.4944 24.8069C13.7581 24.5431 13.9062 24.1855 13.9062 23.8125V22.875H17.1875V24.75H15.3125C15.1882 24.75 15.069 24.7994 14.981 24.8873C14.8931 24.9752 14.8438 25.0944 14.8438 25.2188V27.0938C14.8438 27.2181 14.8931 27.3373 14.981 27.4252C15.069 27.5131 15.1882 27.5625 15.3125 27.5625H24.6875C24.8118 27.5625 24.931 27.5131 25.019 27.4252C25.1069 27.3373 25.1562 27.2181 25.1562 27.0938V25.2188C25.1562 25.0944 25.1069 24.9752 25.019 24.8873C24.931 24.7994 24.8118 24.75 24.6875 24.75H22.8125V22.875H29.375C29.748 22.875 30.1056 22.7268 30.3694 22.4631C30.6331 22.1994 30.7812 21.8417 30.7812 21.4688V9.28125C30.7812 8.90829 30.6331 8.5506 30.3694 8.28688C30.1056 8.02316 29.748 7.875 29.375 7.875H25.625V8.8125H29.375C29.4993 8.8125 29.6185 8.86189 29.7065 8.94979C29.7944 9.0377 29.8438 9.15693 29.8438 9.28125V19.125H23.2812C23.6542 19.125 24.0119 18.9768 24.2756 18.7131C24.5393 18.4494 24.6875 18.0917 24.6875 17.7188V7.40625C24.6875 7.03329 24.5393 6.6756 24.2756 6.41188C24.0119 6.14816 23.6542 6 23.2812 6H16.7188C16.3458 6 15.9881 6.14816 15.7244 6.41188C15.4607 6.6756 15.3125 7.03329 15.3125 7.40625V17.7188C15.3125 18.0917 15.4607 18.4494 15.7244 18.7131C15.9881 18.9768 16.3458 19.125 16.7188 19.125H10.1562V9.28125C10.1562 9.15693 10.2056 9.0377 10.2935 8.94979C10.3815 8.86189 10.5007 8.8125 10.625 8.8125H14.375V7.875H10.625C10.252 7.875 9.89435 8.02316 9.63063 8.28688C9.36691 8.5506 9.21875 8.90829 9.21875 9.28125V21.4688C9.21875 21.8417 9.36691 22.1994 9.63063 22.4631C9.89435 22.7268 10.252 22.875 10.625 22.875H12.9688V23.8125C12.9688 23.9368 12.9194 24.056 12.8315 24.144C12.7435 24.2319 12.6243 24.2812 12.5 24.2812H9.6875C9.31454 24.2812 8.95685 24.4294 8.69313 24.6931C8.42941 24.9569 8.28125 25.3145 8.28125 25.6875C8.28125 26.0605 8.42941 26.4181 8.69313 26.6819C8.95685 26.9456 9.31454 27.0938 9.6875 27.0938H12.5C12.6243 27.0938 12.7435 27.1431 12.8315 27.231C12.9194 27.319 12.9688 27.4382 12.9688 27.5625V28.5H12.0312C11.9069 28.5 11.7877 28.5494 11.6998 28.6373L8.88734 31.4498C8.79943 31.5377 8.75003 31.6569 8.75 31.7812V33.1875C8.75 33.4361 8.84877 33.6746 9.02459 33.8504C9.2004 34.0262 9.43886 34.125 9.6875 34.125H30.3125C30.5611 34.125 30.7996 34.0262 30.9754 33.8504C31.1512 33.6746 31.25 33.4361 31.25 33.1875V31.7812C31.25 31.6569 31.2006 31.5377 31.1127 31.4498V31.4498ZM16.25 17.7188V7.40625C16.25 7.28193 16.2994 7.1627 16.3873 7.07479C16.4752 6.98689 16.5944 6.9375 16.7188 6.9375H23.2812C23.4056 6.9375 23.5248 6.98689 23.6127 7.07479C23.7006 7.1627 23.75 7.28193 23.75 7.40625V17.7188C23.75 17.8431 23.7006 17.9623 23.6127 18.0502C23.5248 18.1381 23.4056 18.1875 23.2812 18.1875H16.7188C16.5944 18.1875 16.4752 18.1381 16.3873 18.0502C16.2994 17.9623 16.25 17.8431 16.25 17.7188ZM24.2188 26.625H15.7812V25.6875H24.2188V26.625ZM21.875 24.75H18.125V22.875H21.875V24.75ZM10.1562 21.4688V20.0625H29.8438V21.4688C29.8438 21.5931 29.7944 21.7123 29.7065 21.8002C29.6185 21.8881 29.4993 21.9375 29.375 21.9375H10.625C10.5007 21.9375 10.3815 21.8881 10.2935 21.8002C10.2056 21.7123 10.1562 21.5931 10.1562 21.4688ZM12.2253 29.4375H27.7747L29.6497 31.3125H10.3503L12.2253 29.4375ZM9.6875 33.1875V32.25H30.3125V33.1875H9.6875Z" fill="#12263A"/>
<path d="M13.4375 29.9062H12.5V30.8438H13.4375V29.9062Z" fill="#12263A"/>
<path d="M15.3125 29.9062H14.375V30.8438H15.3125V29.9062Z" fill="#12263A"/>
<path d="M25.625 29.9062H24.6875V30.8438H25.625V29.9062Z" fill="#12263A"/>
<path d="M23.75 29.9062H16.25V30.8438H23.75V29.9062Z" fill="#12263A"/>
<path d="M27.5 29.9062H26.5625V30.8438H27.5V29.9062Z" fill="#12263A"/>
<path d="M27.9688 20.5312H27.0312V21.4688H27.9688V20.5312Z" fill="#12263A"/>
<path d="M17.6562 17.25H22.3438C22.4681 17.25 22.5873 17.2006 22.6752 17.1127C22.7631 17.0248 22.8125 16.9056 22.8125 16.7812V12.0938C22.8125 11.9694 22.7631 11.8502 22.6752 11.7623C22.5873 11.6744 22.4681 11.625 22.3438 11.625H17.6562C17.5319 11.625 17.4127 11.6744 17.3248 11.7623C17.2369 11.8502 17.1875 11.9694 17.1875 12.0938V16.7812C17.1875 16.9056 17.2369 17.0248 17.3248 17.1127C17.4127 17.2006 17.5319 17.25 17.6562 17.25ZM18.125 14.9062H19.5312V16.3125H18.125V14.9062ZM20.4688 16.3125V14.9062H21.875V16.3125H20.4688ZM21.875 13.9688H20.4688V12.5625H21.875V13.9688ZM19.5312 12.5625V13.9688H18.125V12.5625H19.5312Z" fill="#12263A"/>
<path d="M17.6562 10.6875H22.3438C22.4681 10.6875 22.5873 10.6381 22.6752 10.5502C22.7631 10.4623 22.8125 10.3431 22.8125 10.2188V8.34375C22.8125 8.21943 22.7631 8.1002 22.6752 8.01229C22.5873 7.92439 22.4681 7.875 22.3438 7.875H17.6562C17.5319 7.875 17.4127 7.92439 17.3248 8.01229C17.2369 8.1002 17.1875 8.21943 17.1875 8.34375V10.2188C17.1875 10.3431 17.2369 10.4623 17.3248 10.5502C17.4127 10.6381 17.5319 10.6875 17.6562 10.6875ZM18.125 8.8125H21.875V9.75H18.125V8.8125Z" fill="#12263A"/>
</svg>
