<svg width="40" height="40" viewBox="0 0 40 40" fill="none" xmlns="http://www.w3.org/2000/svg">
<rect width="40" height="40" rx="5" fill="#EBF5EE"/>
<g clip-path="url(#clip0)">
<path d="M10.2221 19.4698H15.9665L17.5733 24.3873H20.0978L21.8273 9.86671C25.155 8.25094 28.4769 6.62314 31.8011 5V9.15074C33.1415 9.44861 34.1073 10.6478 34.1073 12.0255C34.1073 13.6478 32.7847 14.9704 31.1624 14.9704C29.5404 14.9704 28.2178 13.6478 28.2178 12.0255C28.2178 11.1908 29.4876 11.1908 29.4876 12.0255C29.4876 12.9532 30.235 13.7006 31.1624 13.7006C32.0901 13.7006 32.8375 12.9532 32.8375 12.0255C32.8375 11.0981 32.0901 10.3507 31.1624 10.3507C30.8501 10.3507 30.5313 10.0889 30.5313 9.78565C30.4836 8.91377 30.5313 7.91816 30.5313 7.03193L23.0051 10.7045L21.3599 24.5138C22.0006 24.7767 22.4241 25.4008 22.4241 26.0966V27.6681C24.0391 28.1107 25.1693 29.5864 25.1693 31.2674C25.1693 33.3245 23.4938 34.9996 21.4375 34.9996C19.3776 34.9996 17.7052 33.3264 17.7052 31.2674C17.7052 30.9621 17.7428 30.6658 17.8119 30.3811H13.25C13.3194 30.6658 13.3567 30.9621 13.3567 31.2674C13.3567 33.3245 11.6812 34.9996 9.62479 34.9996C7.56494 34.9996 5.89254 33.3264 5.89254 31.2674C5.89254 29.806 6.74386 28.4853 8.06487 27.8772V24.3869H9.58717V19.4694H10.2221V19.4698ZM21.6678 28.8158C20.2029 28.718 18.975 29.7893 18.975 31.2677C18.975 32.6299 20.0753 33.7302 21.4375 33.7302C22.8007 33.7302 23.8995 32.631 23.8995 31.2677C23.8995 29.9968 22.9326 28.9333 21.6678 28.8158ZM18.3909 29.1117C19.0363 28.2018 20.0354 27.6367 21.1505 27.5467L21.1543 26.097C21.1543 25.8557 20.9554 25.6571 20.7141 25.6571H9.33468V27.5467C10.762 27.5467 11.8894 28.0114 12.6698 29.1117H18.3909ZM9.22531 28.8375C8.05944 28.967 7.16235 30.117 7.16235 31.2677C7.16235 32.6299 8.26267 33.7302 9.62479 33.7302C10.9877 33.7302 12.0868 32.631 12.0868 31.2677C12.0868 29.7195 10.7236 28.6153 9.22531 28.8375ZM15.0481 20.7396H10.857V24.3873H16.2407L15.0481 20.7396Z" fill="#12263A"/>
</g>
<defs>
<clipPath id="clip0">
<rect width="30" height="30" fill="white" transform="translate(5 5)"/>
</clipPath>
</defs>
</svg>
