<svg width="40" height="40" viewBox="0 0 40 40" fill="none" xmlns="http://www.w3.org/2000/svg">
<rect width="40" height="40" rx="5" fill="#EBF5EE"/>
<path d="M28.9735 20.2836C29.0204 20.2924 29.0643 20.3041 29.1112 20.3158C29.2372 20.3481 28.9969 20.2485 29.1053 20.3129C29.1258 20.3246 29.2782 20.4272 29.1844 20.3569C29.0965 20.2895 29.2196 20.3979 29.243 20.4213C29.3309 20.5092 29.1727 20.3041 29.2342 20.4125C29.2547 20.4477 29.2723 20.5004 29.2987 20.5297C29.2958 20.5268 29.2518 20.3862 29.2665 20.4594C29.2723 20.4828 29.2811 20.5063 29.287 20.5297C29.2958 20.5619 29.2958 20.6059 29.3104 20.6352C29.3075 20.6323 29.3016 20.477 29.2987 20.5531C29.2987 20.5766 29.3016 20.5971 29.3016 20.6205C29.3016 20.644 29.2987 20.6674 29.2987 20.6879C29.3045 20.7641 29.3104 20.6088 29.3133 20.6059C29.2987 20.644 29.2928 20.6967 29.2811 20.7377C29.2665 20.7992 29.2254 20.811 29.3075 20.6879C29.2899 20.7114 29.2811 20.7436 29.2665 20.767C29.2547 20.7875 29.2401 20.8051 29.2313 20.8256C29.1991 20.8901 29.2753 20.7729 29.2782 20.7699C29.2518 20.7934 29.2313 20.8256 29.2079 20.852C29.1551 20.9106 29.1024 20.9692 29.0497 21.0248C28.5721 21.5492 28.0887 22.0678 27.6024 22.5834C27.371 22.8295 27.1395 23.0756 26.9081 23.3217C26.6444 23.6 26.6122 24.0834 26.9081 24.3588C27.1922 24.6196 27.6639 24.6576 27.9452 24.3588C28.4549 23.8197 28.9647 23.2778 29.4686 22.7328C29.7206 22.4604 29.9725 22.1879 30.2215 21.9125C30.4295 21.6811 30.5878 21.4467 30.6874 21.1479C30.787 20.8432 30.784 20.5092 30.7137 20.2016C30.5672 19.5512 30.0135 19.0004 29.3602 18.8715C28.9852 18.7983 28.5516 18.977 28.4579 19.3842C28.3788 19.7446 28.5721 20.2045 28.9735 20.2836Z" fill="#12263A"/>
<path d="M23.082 27.9365C23.0585 27.3037 23.0322 26.6738 23.0087 26.041C23.0058 25.9678 22.9999 25.8916 22.9999 25.8184C22.9999 25.7891 22.997 25.584 23.0175 25.5781C23.0234 25.5752 22.9882 25.7393 23.0146 25.6221C23.0263 25.5693 23.0351 25.5195 23.0468 25.4668C23.082 25.3086 23.1318 25.1562 23.1904 25.0068C23.246 24.8574 23.1171 25.165 23.1845 25.0215C23.1962 24.9951 23.2079 24.9687 23.2226 24.9424C23.2607 24.8633 23.3017 24.7871 23.3456 24.7139C23.3808 24.6523 23.4218 24.5908 23.4599 24.5322C23.4775 24.5088 23.4921 24.4853 23.5097 24.4619C23.5273 24.4385 23.5449 24.415 23.5595 24.3916C23.4892 24.4824 23.4775 24.4971 23.5244 24.4385C23.6181 24.3271 23.7148 24.2217 23.8173 24.1221C23.8701 24.0723 23.9228 24.0254 23.9785 23.9785C23.9902 23.9697 24.0019 23.9609 24.0107 23.9521C24.0722 23.9053 24.0546 23.917 23.9638 23.9873C24.0078 23.9668 24.0488 23.9258 24.0869 23.8994C24.3505 23.7178 24.6435 23.5859 24.9306 23.4453C25.2851 23.2725 25.6396 23.0996 25.9941 22.9238C26.3603 22.7451 26.6767 22.5547 26.9872 22.2764C27.1982 22.0889 27.3857 21.8662 27.579 21.6611C27.8808 21.3359 28.1826 21.0137 28.4814 20.6885C28.5634 20.6006 28.6425 20.5127 28.7245 20.4277C28.7275 20.4248 28.7333 20.4189 28.7363 20.416C28.7451 20.4072 28.8359 20.331 28.8359 20.3223C28.7451 20.3896 28.7333 20.4014 28.7978 20.3574C28.8095 20.3486 28.8242 20.3428 28.8359 20.334C28.8476 20.3281 28.8622 20.3193 28.874 20.3135C28.9443 20.2812 28.9267 20.2871 28.8212 20.334C28.8359 20.3428 28.9501 20.2988 28.9706 20.293C29.0644 20.2666 28.7802 20.293 28.9326 20.2988C28.9882 20.3018 29.1933 20.3223 28.9648 20.2871C29.1581 20.3164 29.3544 20.3252 29.5302 20.2139C29.6884 20.1113 29.8232 19.9619 29.8671 19.7773C30.0019 19.1973 30.1425 18.6172 30.2744 18.0371C30.3447 17.7295 30.3212 17.4629 30.2978 17.1553C30.2714 16.7861 30.248 16.4199 30.2216 16.0508C30.2099 15.8838 30.2011 15.7139 30.2011 15.5439C30.2011 15.4648 30.2011 15.3857 30.207 15.3066C30.207 15.292 30.2099 15.2744 30.2099 15.2598C30.2187 15.1777 30.2158 15.1982 30.2011 15.3154C30.207 15.3125 30.2216 15.2217 30.2216 15.2246C30.2333 15.1777 30.248 15.1338 30.2626 15.0898C30.3037 14.9551 30.248 15.1338 30.2451 15.1309C30.2363 15.1162 30.3124 15.0137 30.3183 14.999C30.3886 14.8643 30.2245 15.0898 30.3212 14.9902C30.3681 14.9434 30.4443 14.8906 30.4794 14.835C30.4501 14.8584 30.4238 14.8789 30.3945 14.9023C30.415 14.8877 30.4355 14.873 30.4589 14.8613C30.4824 14.8496 30.5937 14.7939 30.4706 14.8496C30.3476 14.9053 30.4589 14.8584 30.4882 14.8496C30.5234 14.8408 30.5673 14.8379 30.5995 14.8262C30.5878 14.832 30.4062 14.8408 30.5263 14.8379C30.579 14.8379 30.6288 14.832 30.6816 14.832C30.7988 14.832 30.7226 14.873 30.6464 14.8174C30.6523 14.8203 30.7724 14.8496 30.7753 14.8496C30.7636 14.8584 30.6142 14.7588 30.7197 14.8262C30.7314 14.832 30.746 14.8408 30.7578 14.8467C30.8222 14.8877 30.8076 14.876 30.7138 14.8086C30.7285 14.8262 30.7578 14.8525 30.7753 14.8672C30.8867 14.958 30.7021 14.7266 30.7665 14.8525C30.7783 14.873 30.831 14.999 30.79 14.8789C30.7402 14.7412 30.7988 14.9551 30.8046 14.958C30.787 14.9434 30.7841 14.7998 30.7929 14.8789C30.7958 14.9111 30.8017 14.9463 30.8046 14.9785C30.8193 15.1016 30.8339 15.2246 30.8486 15.3477C30.8925 15.7227 30.9394 16.1006 30.9833 16.4756C31.0478 17.0264 31.1357 17.5771 31.1796 18.1279C31.1972 18.3535 31.1855 18.585 31.1884 18.8105C31.1913 19.2031 31.1943 19.5957 31.1972 19.9912C31.2001 20.2373 31.2089 20.4834 31.2001 20.7295C31.1972 20.8086 31.1943 20.8877 31.1855 20.9668C31.1826 20.9814 31.1826 20.999 31.1796 21.0137C31.1708 21.0957 31.1738 21.0752 31.1884 20.9609C31.1796 20.9785 31.1767 21.0371 31.1738 21.0547C31.1445 21.2246 31.1035 21.3916 31.0537 21.5557C31.0302 21.6289 31.0038 21.7051 30.9775 21.7754C30.9716 21.79 30.9658 21.8047 30.9599 21.8193C30.9306 21.8926 30.9365 21.8779 30.9804 21.7725C30.9716 21.7725 30.9365 21.8662 30.9306 21.8779C30.8574 22.0332 30.7695 22.1826 30.6757 22.3262C30.6552 22.3584 30.6318 22.3906 30.6083 22.4228C30.5995 22.4346 30.5908 22.4492 30.582 22.4609C30.5351 22.5225 30.5439 22.5107 30.6113 22.4258C30.6201 22.4521 30.4794 22.584 30.4589 22.6074C30.4121 22.6602 30.3652 22.71 30.3154 22.7598C30.2597 22.8184 30.2011 22.874 30.1454 22.9326C29.8964 23.1846 29.6474 23.4365 29.3984 23.6885C28.9882 24.1016 28.5663 24.5059 28.1679 24.9307C27.8896 25.2295 27.6699 25.6133 27.5937 26.0176C27.5585 26.1992 27.5468 26.3809 27.5351 26.5654C27.5117 26.9346 27.4882 27.3037 27.4648 27.6728C27.4589 27.7607 27.4531 27.8486 27.4472 27.9365C27.4238 28.3203 27.8017 28.6865 28.1796 28.6689C28.5986 28.6514 28.8857 28.3467 28.9121 27.9365C28.9296 27.6406 28.9501 27.3477 28.9677 27.0518C28.9794 26.876 28.9912 26.6973 29.0029 26.5215C29.0058 26.4834 29.0087 26.4453 29.0087 26.4072C29.0117 26.3164 29.0615 26.3574 28.997 26.4541C29.0058 26.4394 29.0117 26.3779 29.0146 26.3633C29.0263 26.3047 29.0468 26.2461 29.0644 26.1875C29.0996 26.0674 29.0556 26.2285 29.041 26.2344C29.0585 26.2256 29.0908 26.1318 29.1025 26.1113C29.1201 26.0791 29.1406 26.0469 29.1611 26.0146C29.2402 25.8945 29.1669 26.041 29.1406 26.0352C29.1552 26.0381 29.2255 25.9414 29.2519 25.915C29.3134 25.8506 29.3779 25.7861 29.4423 25.7246C29.7031 25.4609 29.9638 25.1973 30.2275 24.9336C30.6699 24.4853 31.1474 24.0547 31.5576 23.5771C32.0644 22.9824 32.4394 22.2646 32.5829 21.4912C32.6562 21.084 32.6708 20.6826 32.6679 20.2725C32.6621 19.5898 32.6621 18.9043 32.6533 18.2217C32.6503 18.0752 32.6269 17.9287 32.6093 17.7852C32.5654 17.4277 32.5244 17.0674 32.4804 16.71C32.4072 16.0947 32.3339 15.4766 32.2607 14.8613C32.2109 14.46 32.0937 14.0879 31.7861 13.8008C31.4316 13.4697 30.9687 13.3291 30.4882 13.376C30.04 13.4199 29.6386 13.5781 29.3251 13.915C28.9736 14.2959 28.8007 14.75 28.7509 15.2598C28.7128 15.6406 28.7597 16.0361 28.7861 16.4199C28.8095 16.7832 28.8359 17.1465 28.8593 17.5127C28.8622 17.542 28.8652 17.5713 28.8652 17.6006C28.8652 17.6182 28.8652 17.6357 28.8652 17.6504C28.8652 17.7676 28.8476 17.6475 28.871 17.6064C28.8681 17.6152 28.8681 17.6269 28.8652 17.6328C28.83 17.7559 28.8066 17.8848 28.7773 18.0078C28.6894 18.3887 28.5986 18.7695 28.5107 19.1475C28.4931 19.2266 28.4726 19.3057 28.455 19.3848C28.7568 19.2148 29.0556 19.0449 29.3574 18.8721C29.079 18.8281 28.8417 18.8193 28.5634 18.8809C28.291 18.9424 28.0507 19.083 27.8369 19.2559C27.749 19.3262 27.6787 19.4053 27.6025 19.4844C27.3476 19.7598 27.0898 20.0352 26.8349 20.3105C26.621 20.542 26.4072 20.7705 26.1933 21.0019C26.1611 21.0371 26.1288 21.0693 26.0966 21.1016C26.038 21.1602 25.9765 21.2187 25.915 21.2715C25.8798 21.3008 25.8388 21.3447 25.8007 21.3682C25.8828 21.3037 25.8915 21.2978 25.83 21.3447C25.8037 21.3652 25.7744 21.3828 25.748 21.4004C25.6542 21.4619 25.5634 21.5088 25.4638 21.5586C24.8662 21.8516 24.2538 22.124 23.6679 22.4404C23.0146 22.792 22.4521 23.3398 22.0771 23.9785C21.7519 24.5322 21.5204 25.2178 21.538 25.8652C21.5556 26.5566 21.5908 27.248 21.6171 27.9365C21.6318 28.3203 21.9423 28.6865 22.3496 28.6689C22.7333 28.6514 23.0966 28.3467 23.082 27.9365Z" fill="#12263A"/>
<path d="M28.8359 28.3783C28.8359 29.1517 28.8388 29.9251 28.8388 30.6986C28.8388 30.7894 28.8212 30.9007 28.8359 30.9915C28.8388 31.0003 28.8564 30.8187 28.8417 30.8949C28.8271 30.9681 28.8798 30.804 28.8769 30.8099C28.8681 30.8304 28.8242 30.9007 28.8886 30.7982C28.9736 30.6634 28.8183 30.8509 28.9355 30.7454C29.0087 30.6781 28.9736 30.7103 28.9443 30.7279C28.9355 30.7337 29.1025 30.6605 29.0263 30.6868C28.9589 30.7103 29.1201 30.6722 29.1201 30.6722C29.1083 30.6693 29.0966 30.6722 29.0849 30.6722C28.8916 30.6605 28.6894 30.6722 28.496 30.6722C27.6259 30.6722 26.7587 30.6751 25.8886 30.6751C24.913 30.6751 23.9345 30.6781 22.9589 30.6781C22.4902 30.6781 22.0185 30.6663 21.5498 30.681C21.4238 30.6839 21.6757 30.6956 21.6054 30.6839C21.5175 30.6693 21.7519 30.7513 21.6757 30.7074C21.6083 30.6693 21.7548 30.7689 21.749 30.763C21.6582 30.6868 21.8369 30.889 21.7753 30.7865C21.7695 30.7777 21.8457 30.9417 21.8164 30.8685C21.7929 30.8099 21.8544 30.848 21.831 30.9622C21.8369 30.9388 21.831 30.9066 21.831 30.8831C21.831 30.7161 21.831 30.5521 21.831 30.3851C21.831 29.8929 21.831 29.4007 21.8281 28.9085C21.8281 28.7533 21.8281 28.6009 21.8281 28.4456C21.8281 28.4105 21.831 28.2845 21.8251 28.4076C21.8193 28.5101 21.8222 28.4603 21.831 28.4281C21.7988 28.557 21.7753 28.5599 21.8105 28.5013C21.8164 28.4925 21.708 28.6361 21.7607 28.5775C21.8105 28.5218 21.6845 28.639 21.6904 28.6361C21.7871 28.5658 21.5439 28.6917 21.6611 28.6566C21.4238 28.7269 21.5205 28.6712 21.5585 28.6742C21.7578 28.6976 21.9775 28.6742 22.1767 28.6742C22.247 28.6742 22.3144 28.6742 22.3847 28.6742C23.0644 28.6742 23.747 28.6712 24.4267 28.6712C25.3906 28.6712 26.3544 28.6683 27.3212 28.6683C27.8574 28.6683 28.3906 28.6683 28.9267 28.6654C28.9912 28.6654 29.0527 28.6654 29.1171 28.6654C29.2197 28.6624 29.0673 28.6595 29.0439 28.6536C29.164 28.6742 28.9062 28.5892 29.0087 28.6449C29.0175 28.6507 28.871 28.5452 28.9326 28.5951C29 28.6507 28.8388 28.4661 28.8857 28.5394C28.9267 28.6038 28.8447 28.4456 28.8476 28.4544C28.8652 28.5013 28.8447 28.5804 28.8359 28.3783C28.8535 28.7591 29.1611 29.1283 29.5683 29.1107C29.9492 29.0931 30.3183 28.7884 30.3007 28.3783C30.2714 27.7161 29.7705 27.2064 29.0996 27.1976C28.8798 27.1947 28.6601 27.1976 28.4404 27.1976C28.2646 27.1976 28.0888 27.1976 27.913 27.1976C27.0253 27.1976 26.1406 27.2005 25.2529 27.2005C24.371 27.2005 23.4892 27.2035 22.6074 27.2035C22.4199 27.2035 22.2353 27.2035 22.0478 27.2035C21.7929 27.2035 21.5234 27.1829 21.2714 27.2386C20.7265 27.3529 20.372 27.8714 20.3662 28.4076C20.3544 29.2308 20.3691 30.054 20.3691 30.8773C20.3691 31.2669 20.5039 31.6331 20.8173 31.8763C21.0458 32.0521 21.3066 32.137 21.5966 32.14C21.8164 32.14 22.0361 32.14 22.2558 32.14C23.1845 32.14 24.1162 32.137 25.0449 32.137C26.038 32.137 27.0312 32.1341 28.0273 32.1341C28.3261 32.1341 28.625 32.1341 28.9238 32.1341C28.9853 32.1341 29.0468 32.1341 29.1084 32.1341C29.6298 32.1224 30.0459 31.8206 30.2363 31.3402C30.3095 31.1556 30.3066 30.9622 30.3066 30.7689C30.3066 30.5579 30.3066 30.347 30.3066 30.1361C30.3066 29.6439 30.3066 29.1488 30.3037 28.6566C30.3037 28.5628 30.3037 28.472 30.3037 28.3783C30.3037 27.9945 29.9667 27.6283 29.5712 27.6458C29.1728 27.6634 28.8359 27.9652 28.8359 28.3783Z" fill="#12263A"/>
<path d="M25.3582 10.1353C25.4227 10.1998 25.4871 10.2701 25.5457 10.3404C25.5779 10.3785 25.6072 10.4166 25.6395 10.4547C25.6424 10.4605 25.5457 10.3258 25.5897 10.3902C25.6043 10.4137 25.6219 10.4342 25.6395 10.4576C25.7449 10.6099 25.8387 10.7711 25.9207 10.9381C25.9354 10.9674 25.9998 11.1168 25.95 10.9996C25.9031 10.8824 25.9559 11.0172 25.9676 11.0435C25.9998 11.1314 26.032 11.2222 26.0584 11.3131C26.0819 11.398 26.1053 11.483 26.1229 11.568C26.1317 11.6148 26.1404 11.6588 26.1492 11.7056C26.1522 11.7262 26.1551 11.7467 26.158 11.7642C26.1756 11.8668 26.1492 11.7086 26.1492 11.6881C26.1551 11.8697 26.1785 12.0455 26.1727 12.2301C26.1697 12.318 26.161 12.4029 26.1551 12.4908C26.1434 12.6139 26.1844 12.3121 26.158 12.4762C26.1492 12.523 26.1434 12.5699 26.1346 12.6139C26.0965 12.7984 26.0467 12.9801 25.9793 13.1558C25.9647 13.1939 25.9471 13.232 25.9354 13.2701C25.9324 13.2789 26.0028 13.1178 25.9676 13.1881C25.9559 13.2115 25.9442 13.2379 25.9324 13.2613C25.8914 13.3463 25.8475 13.4312 25.7977 13.5162C25.7537 13.5924 25.7039 13.6685 25.6541 13.7447C25.6307 13.7799 25.6014 13.8121 25.5809 13.8472C25.5779 13.8531 25.6805 13.7213 25.6307 13.7828C25.6072 13.8092 25.5867 13.8385 25.5633 13.8648C25.4988 13.941 25.4285 14.0172 25.3582 14.0875C25.326 14.1197 25.2908 14.1549 25.2586 14.1871C25.0799 14.3658 24.8983 14.5474 24.7195 14.7262C24.0721 15.3736 23.4217 16.024 22.7742 16.6715C22.0682 17.3775 21.3621 18.0836 20.6561 18.7896C20.2723 19.1734 19.8738 19.5455 19.5047 19.941C19.4988 19.9469 19.493 19.9527 19.4871 19.9586C19.8328 19.9586 20.1785 19.9586 20.5242 19.9586C20.0115 19.4459 19.4959 18.9303 18.9832 18.4176C18.034 17.4683 17.0848 16.5191 16.1356 15.5699C15.6111 15.0455 15.0662 14.5357 14.5594 13.9908C14.5213 13.9498 14.4832 13.9058 14.4481 13.8648C14.4305 13.8443 14.4129 13.8209 14.3953 13.8004C14.3192 13.7096 14.4276 13.8385 14.4334 13.8502C14.3865 13.7359 14.2781 13.6275 14.2166 13.5221C14.158 13.4224 14.1082 13.317 14.0555 13.2115C14.0028 13.106 14.0789 13.2642 14.0819 13.273C14.0731 13.2408 14.0555 13.2086 14.0438 13.1793C14.0203 13.1148 13.9969 13.0533 13.9764 12.9889C13.9412 12.8805 13.9119 12.7691 13.8885 12.6578C13.8768 12.6051 13.868 12.5523 13.8592 12.4996C13.8563 12.4762 13.8328 12.3385 13.8563 12.4791C13.8768 12.6109 13.8592 12.4879 13.8563 12.4556C13.8328 12.2154 13.8416 11.9752 13.8592 11.7349C13.868 11.6148 13.8504 11.8023 13.8475 11.8111C13.8533 11.7789 13.8563 11.7437 13.8621 11.7115C13.8709 11.6529 13.8826 11.5914 13.8973 11.5328C13.9236 11.4156 13.9559 11.2984 13.994 11.1842C14.0115 11.1344 14.0291 11.0816 14.0496 11.0318C14.0584 11.0113 14.1082 10.8824 14.0584 11.0055C14.0145 11.1168 14.0496 11.026 14.0613 10.9996C14.117 10.8824 14.1756 10.7681 14.243 10.6568C14.2723 10.6099 14.3016 10.5631 14.3309 10.5162C14.3514 10.4869 14.4774 10.3228 14.3953 10.4195C14.3104 10.5191 14.4539 10.3492 14.4715 10.3287C14.5184 10.276 14.5653 10.2232 14.6151 10.1705C14.7059 10.0797 14.8026 9.99471 14.8992 9.90975C15.0223 9.80135 14.7967 9.98006 14.8846 9.92147C14.911 9.90389 14.9373 9.88338 14.9608 9.8658C15.0252 9.81893 15.0926 9.77791 15.16 9.7369C15.2742 9.66658 15.3914 9.60799 15.5115 9.5494C15.6287 9.4908 15.4764 9.56991 15.4647 9.56698C15.4852 9.57283 15.5496 9.53182 15.5731 9.52596C15.6463 9.49959 15.7195 9.47323 15.7928 9.45272C15.9188 9.41463 16.0447 9.38533 16.1736 9.3619C16.2029 9.35604 16.2352 9.35311 16.2645 9.34725C16.3904 9.32381 16.2176 9.35897 16.2059 9.35604C16.2615 9.37069 16.3729 9.34139 16.4344 9.33553C16.5721 9.32967 16.7098 9.32967 16.8475 9.33846C16.9002 9.34139 16.9793 9.36776 17.0291 9.35604C16.9324 9.37948 16.8885 9.3326 16.9705 9.34725C17.0145 9.35604 17.0613 9.3619 17.1053 9.37069C17.2401 9.39705 17.3748 9.43221 17.5067 9.47323C17.5653 9.4908 17.6238 9.51131 17.6824 9.53475C17.6883 9.53768 17.7557 9.56991 17.7703 9.56991C17.6736 9.52889 17.6502 9.5201 17.7029 9.54354C17.7235 9.55233 17.7469 9.56405 17.7674 9.57284C17.8875 9.63143 18.0047 9.69295 18.119 9.76619C18.1805 9.80428 18.2391 9.84237 18.2977 9.88631C18.324 9.90389 18.3475 9.92733 18.3738 9.94198C18.2127 9.84237 18.3387 9.91561 18.3768 9.94783C18.4793 10.0357 18.576 10.1295 18.6727 10.2262C18.8924 10.4459 19.1092 10.6627 19.3289 10.8824C19.3817 10.9351 19.4344 10.9879 19.4901 11.0435C19.7684 11.3219 20.2459 11.3248 20.5272 11.0435C20.7147 10.856 20.8992 10.6715 21.0867 10.484C21.1863 10.3844 21.286 10.2847 21.3856 10.1851C21.409 10.1617 21.4295 10.1412 21.4529 10.1178C21.4998 10.0738 21.5467 10.0299 21.5936 9.98885C21.6199 9.96541 21.6463 9.94198 21.6756 9.92147C21.6873 9.91268 21.6961 9.90389 21.7078 9.8951C21.7664 9.84823 21.7518 9.85994 21.658 9.93319C21.7664 9.88338 21.866 9.7867 21.9686 9.72518C22.0799 9.6578 22.1971 9.60213 22.3143 9.54647C22.4051 9.50252 22.1356 9.61678 22.2703 9.56405C22.2967 9.55526 22.3201 9.54354 22.3465 9.53475C22.411 9.51131 22.4725 9.48787 22.5369 9.4703C22.66 9.43221 22.783 9.40291 22.909 9.37655C22.9676 9.36483 23.0291 9.35604 23.0877 9.34725C22.8416 9.38826 23.0526 9.35311 23.1111 9.35018C23.2371 9.34139 23.366 9.33553 23.492 9.34139C23.5594 9.34432 23.6268 9.34725 23.6912 9.35311C23.7176 9.35604 23.744 9.35897 23.7703 9.3619C23.9168 9.37362 23.6151 9.33846 23.7147 9.35311C23.8406 9.37362 23.9666 9.39705 24.0897 9.42928C24.2332 9.46737 24.3738 9.51424 24.5115 9.56698C24.5584 9.58455 24.6229 9.6285 24.45 9.54061C24.4852 9.55819 24.5233 9.57283 24.5613 9.59334C24.6229 9.62264 24.6844 9.65487 24.743 9.68709C24.8778 9.76326 24.9979 9.85116 25.1268 9.93612C24.9393 9.816 25.1268 9.93612 25.1766 9.98006C25.2352 10.0152 25.2967 10.0738 25.3582 10.1353C25.6307 10.4049 26.1258 10.4283 26.3953 10.1353C26.6619 9.8453 26.6854 9.38826 26.3953 9.09823C25.5106 8.22518 24.2332 7.73885 22.9881 7.87948C22.3436 7.95272 21.7283 8.13436 21.1717 8.47713C20.7996 8.70565 20.4832 8.99569 20.1785 9.30037C19.9471 9.53182 19.7156 9.76326 19.4842 9.99471C19.8299 9.99471 20.1756 9.99471 20.5213 9.99471C20.1229 9.59627 19.742 9.15975 19.2996 8.81112C18.2332 7.96737 16.8387 7.65389 15.5145 8.00252C14.3192 8.31893 13.2615 9.19198 12.7606 10.3258C12.3006 11.3746 12.2274 12.5846 12.6639 13.6568C12.9129 14.2721 13.282 14.7877 13.7508 15.2535C14.0438 15.5465 14.3397 15.8424 14.6326 16.1353C15.5906 17.0933 16.5486 18.0514 17.5067 19.0094C18.157 19.6597 18.7986 20.3189 19.4578 20.9605C19.4695 20.9693 19.4783 20.981 19.4871 20.9898C19.7654 21.2681 20.243 21.2711 20.5242 20.9898C20.8524 20.6617 21.1776 20.3365 21.5057 20.0084C22.2176 19.2965 22.9266 18.5875 23.6385 17.8756C24.3153 17.1988 24.992 16.5221 25.6688 15.8453C26.1111 15.4029 26.5799 14.9781 26.9315 14.4625C27.8895 13.0562 27.8748 11.0465 26.8729 9.66658C26.7293 9.46737 26.574 9.27401 26.4012 9.10116C26.1317 8.82869 25.6307 8.81112 25.3641 9.10116C25.0858 9.39412 25.0682 9.8453 25.3582 10.1353Z" fill="#12263A"/>
<path d="M10.6366 18.8721C10.0037 18.9981 9.5057 19.4903 9.31234 20.0938C9.11605 20.6944 9.28597 21.333 9.68148 21.8076C10.1766 22.4024 10.7303 22.9532 11.2577 23.5157C11.5213 23.7969 11.785 24.0782 12.0516 24.3565C12.3153 24.6348 12.825 24.6436 13.0887 24.3565C13.3641 24.0577 13.37 23.6182 13.0887 23.3194C12.6375 22.8418 12.1864 22.3643 11.7411 21.8838C11.5037 21.6289 11.2694 21.3741 11.0321 21.1192C10.9325 21.0108 10.8358 20.8965 10.7332 20.7881C10.6805 20.7325 10.7772 20.8438 10.7772 20.8467C10.7743 20.8321 10.7479 20.8028 10.742 20.7881C10.7303 20.7676 10.7215 20.7471 10.7098 20.7295C10.6483 20.6211 10.7332 20.7647 10.7303 20.7793C10.7332 20.7471 10.7039 20.6826 10.6952 20.6504C10.6893 20.627 10.6776 20.545 10.6952 20.6592C10.7127 20.7764 10.701 20.6709 10.701 20.6446C10.701 20.6211 10.701 20.6006 10.701 20.5772C10.701 20.4746 10.7069 20.6094 10.6893 20.6358C10.7069 20.6065 10.7069 20.5596 10.7157 20.5244C10.7215 20.5039 10.7303 20.4805 10.7362 20.46C10.7537 20.378 10.6688 20.583 10.7157 20.5098C10.7391 20.4746 10.783 20.416 10.7948 20.375C10.7948 20.378 10.6952 20.4864 10.7479 20.4366C10.7684 20.416 10.786 20.3926 10.8094 20.3721C10.8211 20.3604 10.8504 20.3428 10.8592 20.3252C10.8446 20.3545 10.7332 20.4073 10.8211 20.3575C10.8475 20.3428 10.8739 20.3282 10.9002 20.3106C10.9852 20.2578 10.8856 20.3311 10.8504 20.3282C10.9002 20.3311 10.9823 20.2901 11.0321 20.2784C11.41 20.2051 11.659 19.7334 11.5448 19.376C11.4071 18.9834 11.0409 18.7901 10.6366 18.8721Z" fill="#12263A"/>
<path d="M18.3827 27.9362C18.4091 27.2887 18.4325 26.6383 18.4589 25.9908C18.5087 24.6754 17.7763 23.4567 16.7392 22.6949C16.4579 22.4869 16.1415 22.3434 15.828 22.1881C15.4648 22.0123 15.1044 21.8336 14.7411 21.6578C14.6298 21.6022 14.5155 21.5494 14.4042 21.4938C14.3515 21.4645 14.3017 21.4323 14.2519 21.4C14.2226 21.3795 14.1464 21.3444 14.1288 21.3151C14.1523 21.3326 14.1757 21.3502 14.1991 21.3678C14.1728 21.3473 14.1464 21.3268 14.123 21.3033C14.0468 21.2389 13.9735 21.1715 13.9032 21.1012C13.7187 20.9137 13.5458 20.7174 13.3671 20.527C13.0653 20.2018 12.7636 19.8795 12.4618 19.5543C12.3915 19.4781 12.3241 19.399 12.2509 19.3287C12.0429 19.1324 11.7968 18.9889 11.5243 18.9039C11.2314 18.8131 10.9413 18.8278 10.6425 18.8717C10.9442 19.0416 11.2431 19.2115 11.5448 19.3844C11.4833 19.1149 11.4189 18.8483 11.3573 18.5787C11.2841 18.2623 11.2284 17.9342 11.1347 17.6237C11.1317 17.6178 11.1317 17.609 11.1288 17.6031C11.1581 17.6471 11.1347 17.7438 11.1376 17.6735C11.1376 17.65 11.1347 17.6207 11.1376 17.5973C11.1376 17.5651 11.1405 17.5328 11.1435 17.5006C11.1552 17.3395 11.1669 17.1783 11.1757 17.0143C11.1991 16.6686 11.2255 16.3199 11.246 15.9742C11.2607 15.7194 11.2753 15.4645 11.246 15.2096C11.1903 14.7057 11.0087 14.2457 10.6454 13.8795C10.0097 13.2379 8.89054 13.1735 8.21671 13.7975C7.90909 14.0846 7.7919 14.4567 7.7421 14.861C7.73331 14.9342 7.72452 15.0045 7.71573 15.0778C7.67472 15.4205 7.6337 15.7604 7.59269 16.1031C7.51358 16.7653 7.42862 17.4274 7.35538 18.0895C7.3378 18.2477 7.34659 18.4117 7.34366 18.5729C7.34073 18.9655 7.3378 19.358 7.33487 19.7506C7.33194 20.026 7.32901 20.3014 7.32901 20.5768C7.32608 21.2975 7.49601 21.9977 7.81241 22.6422C8.17276 23.3776 8.77628 23.9313 9.34464 24.5026C9.81339 24.9742 10.2821 25.443 10.748 25.9176C10.7743 25.944 10.8417 26.0406 10.8564 26.0377C10.8241 26.0465 10.7685 25.9088 10.8241 25.9996C10.8476 26.0377 10.8739 26.0758 10.8974 26.1168C10.9091 26.1344 10.9413 26.2311 10.9589 26.2399C10.9472 26.2106 10.9325 26.1783 10.9208 26.149C10.9325 26.1783 10.9413 26.2047 10.9501 26.234C10.9735 26.3072 10.9823 26.3834 11.0028 26.4567C10.9589 26.2897 10.9882 26.3453 10.9911 26.4069C10.9941 26.4508 10.997 26.4947 10.9999 26.5416C11.0234 26.9166 11.0468 27.2916 11.0702 27.6666C11.0761 27.7574 11.0819 27.8483 11.0878 27.942C11.1112 28.3229 11.4071 28.692 11.8202 28.6744C12.1952 28.6569 12.579 28.3522 12.5526 27.942C12.5351 27.6578 12.5175 27.3707 12.497 27.0865C12.4735 26.7291 12.4706 26.3571 12.4003 26.0026C12.2392 25.2057 11.5536 24.6578 11.0116 24.11C10.5692 23.6617 10.1239 23.2164 9.68155 22.7682C9.63468 22.7184 9.5878 22.6715 9.54093 22.6188C9.48819 22.5602 9.44132 22.4957 9.38858 22.4371C9.52335 22.5836 9.41788 22.4723 9.39151 22.4342C9.36515 22.3961 9.33878 22.358 9.31241 22.317C9.22745 22.1852 9.14835 22.0504 9.08097 21.9098C9.07511 21.8981 9.03116 21.7838 9.02237 21.7838C9.04874 21.7867 9.08683 21.942 9.03409 21.8073C8.99894 21.7194 8.96964 21.6315 8.94034 21.5406C8.89054 21.3824 8.85245 21.2242 8.82608 21.0602C8.82023 21.028 8.8173 20.9987 8.81144 20.9664C8.85538 21.1774 8.82023 21.025 8.81437 20.9723C8.80558 20.8785 8.79972 20.7819 8.79972 20.6881C8.79972 20.6061 8.79972 20.5211 8.79972 20.4391C8.80558 19.7418 8.81144 19.0475 8.81437 18.3502C8.8173 17.9254 8.89347 17.5006 8.94327 17.0787C9.02823 16.3785 9.11026 15.6783 9.19523 14.9781C9.19815 14.9459 9.20401 14.9166 9.20694 14.8844C9.21866 14.7789 9.16007 15.0631 9.20694 14.9196C9.20694 14.9196 9.23624 14.8434 9.23331 14.8346C9.21866 14.8668 9.20694 14.899 9.1923 14.9283C9.20401 14.902 9.21866 14.8785 9.23331 14.8522C9.29776 14.7262 9.14249 14.943 9.20987 14.8815C9.22452 14.8668 9.28019 14.8258 9.28605 14.8082C9.25968 14.8287 9.23331 14.8492 9.20694 14.8698C9.23038 14.8522 9.25675 14.8375 9.28019 14.8258C9.36515 14.7701 9.2714 14.8756 9.22452 14.8492C9.22745 14.8522 9.34757 14.8199 9.35343 14.817C9.23917 14.8287 9.2128 14.8346 9.2714 14.8317C9.29483 14.8317 9.31827 14.8317 9.34171 14.8317C9.38565 14.8317 9.4296 14.8375 9.47355 14.8375C9.54093 14.8405 9.54972 14.8785 9.4003 14.8258C9.45011 14.8434 9.52921 14.8668 9.58194 14.8727C9.43839 14.858 9.45304 14.8112 9.54093 14.861C9.56437 14.8756 9.65812 14.9489 9.56144 14.8668C9.4589 14.7789 9.56437 14.8756 9.58194 14.8873C9.61417 14.9196 9.6464 14.9547 9.67569 14.9869C9.78702 15.1041 9.60538 14.8522 9.67862 14.9957C9.6962 15.0309 9.71964 15.0719 9.74015 15.1041C9.79581 15.1891 9.69034 14.9371 9.73429 15.0865C9.74894 15.1334 9.76358 15.1774 9.7753 15.2213C9.78116 15.2477 9.78409 15.2887 9.79581 15.3121C9.79288 15.277 9.78702 15.2448 9.78409 15.2096C9.78702 15.2418 9.78995 15.2711 9.79288 15.3033C9.79874 15.4 9.79874 15.4938 9.79874 15.5905C9.78702 16.2496 9.70792 16.9059 9.67569 17.5651C9.66105 17.8522 9.75773 18.1539 9.82218 18.4323C9.91007 18.8043 9.99503 19.1764 10.0829 19.5455C10.1005 19.6217 10.1181 19.6979 10.1357 19.774C10.1737 19.941 10.3202 20.1315 10.4726 20.2106C10.6571 20.3073 10.83 20.316 11.038 20.2838C10.8212 20.316 10.9735 20.2955 11.0263 20.2955C11.0497 20.2955 11.1933 20.3131 11.0644 20.2926C10.9325 20.2721 11.079 20.2985 11.0995 20.3043C11.1757 20.3248 11.2284 20.3864 11.0937 20.2897C11.1171 20.3043 11.1493 20.316 11.1728 20.3307C11.1845 20.3395 11.1991 20.3453 11.2109 20.3541C11.2753 20.3981 11.2607 20.3864 11.1728 20.319C11.1728 20.3307 11.2577 20.3981 11.2753 20.4156C11.3368 20.4801 11.3954 20.5446 11.4569 20.609C11.7177 20.8903 11.9784 21.1686 12.2392 21.4498C12.7167 21.9625 13.1767 22.5104 13.8212 22.8268C14.3896 23.1051 14.9638 23.3776 15.5292 23.6617C15.661 23.7291 15.787 23.8024 15.9071 23.8844C15.9423 23.9078 15.9775 23.9342 16.0126 23.9606C16.1415 24.0514 15.8837 23.8492 16.0009 23.9518C16.0653 24.0074 16.1327 24.0631 16.1972 24.1246C16.3026 24.2242 16.3964 24.3326 16.4901 24.441C16.5927 24.5612 16.3905 24.3004 16.4814 24.4293C16.4989 24.4528 16.5165 24.4762 16.5312 24.4996C16.581 24.5699 16.6278 24.6432 16.6718 24.7194C16.7128 24.7867 16.7509 24.8571 16.786 24.9303C16.8007 24.9625 16.8153 24.9947 16.8329 25.027C16.9032 25.1676 16.7743 24.8629 16.8271 25.0123C16.8827 25.1647 16.9325 25.3141 16.9706 25.4723C16.9794 25.5162 16.9882 25.5573 16.997 25.6012C17.0263 25.7535 17.0146 25.5865 16.997 25.5836C17.0146 25.5895 17.0116 25.7799 17.0146 25.8063C17.0146 25.8356 17.0146 25.8649 17.0116 25.8942C16.9911 26.5768 16.9589 27.2594 16.9325 27.9391C16.9179 28.3229 17.2812 28.6891 17.665 28.6715C18.0605 28.651 18.3681 28.3463 18.3827 27.9362Z" fill="#12263A"/>
<path d="M9.69922 28.3789C9.69922 29.1787 9.69629 29.9785 9.69629 30.7754C9.69629 31.0302 9.71387 31.2793 9.83984 31.5136C10.0508 31.9062 10.458 32.123 10.8945 32.1347C11.082 32.1406 11.2725 32.1347 11.46 32.1347C12.3623 32.1347 13.2646 32.1377 14.167 32.1377C15.1777 32.1377 16.1885 32.1406 17.1992 32.1406C17.5244 32.1406 17.8496 32.1406 18.1719 32.1406C18.251 32.1406 18.3271 32.1406 18.4063 32.1406C18.7256 32.1377 19.0156 32.0351 19.2559 31.8213C19.6924 31.4316 19.6309 30.8545 19.6309 30.333C19.6309 29.8261 19.6309 29.3193 19.6338 28.8125C19.6338 28.6777 19.6367 28.5429 19.6338 28.4052C19.625 27.8691 19.2617 27.333 18.708 27.2363C18.3564 27.1748 17.9844 27.2041 17.627 27.2041C16.9268 27.2041 16.2266 27.2011 15.5293 27.2011C14.5332 27.2011 13.5371 27.1982 12.5439 27.1982C11.9961 27.1982 11.4424 27.1806 10.8945 27.1953C10.2236 27.2158 9.72852 27.7138 9.69922 28.3789C9.68164 28.7627 10.0479 29.1289 10.4316 29.1113C10.8447 29.0937 11.1465 28.789 11.1641 28.3789C11.1641 28.373 11.126 28.5459 11.1494 28.4726C11.1758 28.3994 11.1025 28.5634 11.1084 28.5547C11.167 28.458 11.0615 28.6015 11.0557 28.6074C11.0791 28.584 11.1201 28.5547 11.0381 28.6133C10.9385 28.6806 11.0059 28.6338 11.0264 28.625C11.0322 28.622 10.8682 28.6748 10.9414 28.6601C11.0059 28.6484 10.7568 28.6601 10.8887 28.6631C10.9561 28.666 11.0234 28.6631 11.0908 28.6631C11.3164 28.6631 11.542 28.6631 11.7676 28.6631C11.9111 28.6631 12.0576 28.6631 12.2012 28.6631C13.0771 28.6631 13.9531 28.666 14.8262 28.666C15.6758 28.666 16.5225 28.6689 17.3721 28.6689C17.5273 28.6689 17.6855 28.6689 17.8408 28.6689C17.9639 28.6689 18.0898 28.6689 18.2129 28.6689C18.2773 28.6689 18.3916 28.6924 18.4502 28.6689C18.4824 28.6572 18.3477 28.6513 18.3447 28.6513C18.4619 28.6865 18.2188 28.5634 18.3154 28.6308C18.3213 28.6338 18.1953 28.5195 18.2451 28.5722C18.2949 28.6308 18.1895 28.4873 18.1953 28.4961C18.251 28.5957 18.1777 28.4316 18.1748 28.4228C18.2012 28.5224 18.1719 28.3613 18.1748 28.3437C18.1689 28.373 18.1777 28.414 18.1777 28.4433C18.1777 29.2549 18.1748 30.0693 18.1748 30.8808C18.1748 30.9043 18.1689 30.9336 18.1748 30.957C18.1748 30.957 18.2129 30.7959 18.1895 30.8633C18.1631 30.9365 18.2363 30.7724 18.2305 30.7812C18.1689 30.8838 18.3477 30.6816 18.2568 30.7578C18.2686 30.749 18.4121 30.667 18.3154 30.7138C18.3096 30.7168 18.4736 30.664 18.4004 30.6787C18.333 30.6933 18.585 30.6787 18.4561 30.6758C18.4209 30.6758 18.3828 30.6758 18.3477 30.6758C18.0986 30.6758 17.8525 30.6758 17.6035 30.6758C16.6953 30.6758 15.7842 30.6728 14.876 30.6728C13.9209 30.6728 12.9688 30.6699 12.0137 30.6699C11.7178 30.6699 11.4219 30.6699 11.126 30.6699C11.0557 30.6699 10.9854 30.664 10.918 30.6699C10.9092 30.6699 10.8945 30.667 10.8857 30.6699C10.8857 30.6699 11.0469 30.708 10.9795 30.6845C10.9063 30.6582 11.0703 30.7314 11.0615 30.7256C11.0029 30.6904 11.0205 30.6816 11.1143 30.7783C11.0322 30.6933 11.1816 30.916 11.1318 30.8105C11.1289 30.8047 11.1816 30.9687 11.167 30.8955C11.1494 30.8105 11.1641 31.0625 11.1729 30.9717C11.1963 30.664 11.1729 30.3476 11.1729 30.04C11.1729 29.5742 11.1729 29.1054 11.1758 28.6396C11.1758 28.5517 11.1758 28.4668 11.1758 28.3789C11.1758 27.9951 10.8389 27.6289 10.4434 27.6465C10.0332 27.664 9.69922 27.9658 9.69922 28.3789Z" fill="#12263A"/>
</svg>
