<svg width="40" height="40" viewBox="0 0 40 40" fill="none" xmlns="http://www.w3.org/2000/svg">
<rect width="40" height="40" rx="5" fill="#EBF5EE"/>
<path d="M29.3589 9.44141H10.6406C9.18457 9.44141 8 10.626 8 12.082V23.4795C8 24.9355 9.18457 26.1201 10.6406 26.1201H12.5903V30.0596C12.5903 30.2544 12.7036 30.4316 12.8804 30.5132C12.9473 30.5444 13.019 30.5596 13.0903 30.5596C13.2065 30.5596 13.3218 30.519 13.4136 30.4409L18.5093 26.1201H29.3589C30.8154 26.1201 32 24.9355 32 23.4795V12.082C32 10.626 30.8154 9.44141 29.3589 9.44141ZM31 23.4795C31 24.3843 30.2637 25.1201 29.3589 25.1201H18.3257C18.207 25.1201 18.0928 25.1621 18.0024 25.2388L13.5903 28.98V25.6201C13.5903 25.3437 13.3667 25.1201 13.0903 25.1201H10.6406C9.73584 25.1201 9 24.3843 9 23.4795V12.082C9 11.1772 9.73584 10.4414 10.6406 10.4414H29.3589C30.2637 10.4414 31 11.1772 31 12.082V23.4795Z" fill="#12263A"/>
<path d="M24.4453 15.7881H21.8203V13.1631C21.8203 12.8867 21.5967 12.6631 21.3203 12.6631H18.6792C18.4028 12.6631 18.1792 12.8867 18.1792 13.1631V15.7881H15.5547C15.2783 15.7881 15.0547 16.0117 15.0547 16.2881V18.9287C15.0547 19.2051 15.2783 19.4287 15.5547 19.4287H18.1792V22.0537C18.1792 22.3301 18.4028 22.5537 18.6792 22.5537H21.3203C21.5967 22.5537 21.8203 22.3301 21.8203 22.0537V19.4287H24.4453C24.7217 19.4287 24.9453 19.2051 24.9453 18.9287V16.2881C24.9453 16.0117 24.7217 15.7881 24.4453 15.7881ZM23.9453 18.4287H21.3203C21.0439 18.4287 20.8203 18.6523 20.8203 18.9287V21.5537H19.1792V18.9287C19.1792 18.6523 18.9556 18.4287 18.6792 18.4287H16.0547V16.7881H18.6792C18.9556 16.7881 19.1792 16.5645 19.1792 16.2881V13.6631H20.8203V16.2881C20.8203 16.5645 21.0439 16.7881 21.3203 16.7881H23.9453V18.4287Z" fill="#12263A"/>
</svg>
