<svg width="40" height="40" viewBox="0 0 40 40" fill="none" xmlns="http://www.w3.org/2000/svg">
<rect width="40" height="40" rx="5" fill="#EBF5EE"/>
<path d="M15.14 22.2493L9.17004 28.2193C8.93004 28.4593 8.93004 28.8493 9.17004 29.0893C9.29004 29.2093 9.44004 29.2693 9.59004 29.2693C9.74004 29.2693 9.89004 29.2093 10.01 29.0893L15.98 23.1193C16.22 22.8793 16.22 22.4893 15.98 22.2493C15.77 22.0093 15.38 22.0093 15.14 22.2493Z" fill="#12263A"/>
<path d="M10.9099 30.7993C11.0299 30.9193 11.1799 30.9793 11.3299 30.9793C11.4799 30.9793 11.6299 30.9193 11.7499 30.7993L17.7199 24.8293C17.9599 24.5893 17.9599 24.1993 17.7199 23.9593C17.4799 23.7193 17.0899 23.7193 16.8499 23.9593L10.9099 29.9593C10.6699 30.1993 10.6699 30.5593 10.9099 30.7993Z" fill="#12263A"/>
<path d="M32.72 24.7696C31.4 23.4496 29.42 22.9396 27.59 23.4496L23.33 19.1596L29.9 12.5896L31.43 12.2596C31.7 12.1996 31.91 12.0496 32.03 11.8396L33.95 8.71965C34.19 8.35965 34.13 7.87965 33.8 7.54965L32.42 6.16965C32.12 5.86965 31.64 5.80965 31.25 6.01965L28.16 7.93965C27.95 8.08965 27.8 8.29965 27.74 8.53965L27.41 10.0996L20.84 16.6696L16.55 12.3796C16.67 11.9296 16.76 11.4496 16.76 10.9696C16.76 9.58965 16.22 8.26965 15.23 7.27965C13.7 5.74965 11.33 5.32965 9.38 6.22965C9.2 6.31965 9.08 6.46965 9.02 6.67965C8.99 6.88965 9.05 7.06965 9.2 7.21965L11.15 9.16965C11.42 9.43965 11.57 9.76965 11.57 10.1596C11.57 10.5496 11.42 10.8796 11.15 11.1496C10.61 11.6896 9.71 11.6896 9.17 11.1496L7.22 9.16965C7.07 9.01965 6.86 8.95965 6.68 8.98965C6.47 9.01965 6.32 9.16965 6.23 9.34965C5.93 10.0396 5.75 10.7596 5.75 11.5396C5.75 12.9196 6.32 14.2696 7.28 15.2296C8.6 16.5796 10.58 17.0596 12.38 16.5496L14.72 18.8896L6.59 26.9896C6.17 27.4096 5.93 27.9796 5.93 28.5796C5.93 29.1796 6.17 29.7496 6.59 30.1696L9.8 33.3796C10.22 33.7996 10.79 34.0396 11.39 34.0396C11.99 34.0396 12.56 33.7996 12.98 33.3796L21.11 25.2796L23.45 27.6196C23.33 28.0996 23.27 28.5496 23.27 29.0296C23.27 30.4396 23.81 31.7596 24.8 32.7196C25.79 33.7096 27.14 34.2496 28.49 34.2496C29.21 34.2496 29.96 34.0996 30.65 33.7996C30.83 33.7096 30.95 33.5596 31.01 33.3496C31.04 33.1396 30.98 32.9596 30.83 32.8096L28.88 30.8296C28.61 30.5596 28.46 30.2296 28.46 29.8396C28.46 29.4796 28.61 29.1196 28.88 28.8496C29.39 28.3396 30.32 28.3396 30.86 28.8496L32.81 30.7996C32.96 30.9496 33.14 31.0096 33.35 30.9796C33.56 30.9496 33.71 30.8296 33.8 30.6496C34.13 29.9896 34.28 29.2396 34.28 28.4596C34.25 27.0796 33.71 25.7596 32.72 24.7696ZM28.4 10.8196C28.49 10.7296 28.55 10.6396 28.58 10.5196L28.94 8.92965L31.76 7.18965L32.84 8.26965L31.1 11.0896L29.48 11.4496C29.36 11.4796 29.27 11.5396 29.18 11.6296L22.46 18.3196L21.68 17.5396L28.4 10.8196ZM12.11 32.5096C11.72 32.8996 11.03 32.8996 10.64 32.5096L7.49 29.3296C7.28 29.1196 7.19 28.8796 7.19 28.6096C7.19 28.3396 7.31 28.0696 7.49 27.8896L15.62 19.7896L20.27 24.4396L12.11 32.5096ZM32.96 29.2396L31.7 27.9796C30.68 27.0196 28.94 27.0496 28.01 27.9796C27.5 28.4596 27.23 29.1196 27.23 29.8396C27.23 30.5596 27.5 31.1896 28.01 31.6996L29.27 32.9596C27.98 33.1996 26.6 32.8096 25.67 31.8796C24.92 31.1296 24.5 30.1096 24.5 29.0296C24.5 28.5496 24.59 28.0996 24.74 27.6496C24.83 27.4396 24.77 27.1696 24.59 27.0196L12.98 15.4096C12.86 15.2896 12.71 15.2296 12.56 15.2296C12.5 15.2296 12.41 15.2296 12.35 15.2596C10.88 15.7996 9.23 15.4396 8.15 14.3296C7.4 13.6096 6.98 12.5896 6.98 11.5096C6.98 11.2396 7.01 10.9696 7.04 10.7296L8.3 11.9896C9.32 13.0096 11 13.0096 11.99 11.9896C12.5 11.5096 12.77 10.8496 12.77 10.1296C12.77 9.40965 12.5 8.77965 11.99 8.29965L10.73 7.03965C12.02 6.79965 13.37 7.15965 14.33 8.11965C15.08 8.89965 15.5 9.88965 15.5 10.9696C15.5 11.4496 15.41 11.9296 15.26 12.3196C15.17 12.5596 15.23 12.7996 15.41 12.9796L26.99 24.5596C27.17 24.7396 27.41 24.7696 27.62 24.7096C29.09 24.1696 30.74 24.5296 31.82 25.6096C32.57 26.3896 32.99 27.3796 32.99 28.4596C33.02 28.7296 32.99 28.9996 32.96 29.2396Z" fill="#12263A"/>
</svg>
