<svg width="40" height="40" viewBox="0 0 40 40" fill="none" xmlns="http://www.w3.org/2000/svg">
<rect width="40" height="40" rx="5" fill="#EBF5EE"/>
<path d="M8.1859 13.9272C8.22135 13.9417 8.61979 14.0986 9.33288 14.0986C10.0591 14.0986 11.1121 13.9352 12.44 13.2943L9.77297 23.281H8.86749C8.70182 23.281 8.56749 23.4153 8.56749 23.581V24.4984C8.56749 25.3733 9.27941 26.0853 10.1544 26.0853H15.9863C16.8613 26.0853 17.5732 25.3733 17.5732 24.4984V23.581C17.5732 23.4153 17.4389 23.281 17.2732 23.281H16.0232L13.2417 12.865C13.2823 12.8413 13.322 12.8193 13.363 12.7947C15.8555 11.2993 18.1446 11.0824 19.2545 11.0813C19.15 11.2468 19.0772 11.4595 19.0612 11.7264L18.0876 27.9282H17.2315C16.4428 27.9282 15.8012 28.5698 15.8012 29.3584V29.6114H15.3503C15.1846 29.6114 15.0503 29.7458 15.0503 29.9114V31.6982C15.0503 31.8639 15.1846 31.9982 15.3503 31.9982H24.65C24.8157 31.9982 24.95 31.8639 24.95 31.6982V29.9114C24.95 29.7458 24.8157 29.6114 24.65 29.6114H24.1991V29.3584C24.1991 28.5698 23.5575 27.9282 22.7689 27.9282H21.9128L20.9391 11.7264C20.9231 11.4594 20.8503 11.2467 20.7457 11.0812C21.8224 11.0821 24.009 11.2877 26.4142 12.6653L23.6323 23.281H22.7271C22.5614 23.281 22.4271 23.4153 22.4271 23.581V24.4984C22.4271 25.3733 23.139 26.0853 24.014 26.0853H29.846C30.7209 26.0853 31.4328 25.3733 31.4328 24.4984V23.581C31.4328 23.4153 31.2985 23.281 31.1328 23.281H29.8834L27.2213 13.1228C28.7098 13.9064 29.8805 14.0986 30.6674 14.0986C31.3804 14.0984 31.779 13.9417 31.8144 13.9272C31.9669 13.8644 32.039 13.6908 31.9773 13.5378C31.9156 13.3852 31.7416 13.3105 31.5878 13.3716C31.5713 13.3788 29.8524 14.0242 26.9462 12.2803C24.5225 10.8262 22.3129 10.5172 21.0516 10.4806C21.3064 10.2169 21.465 9.85958 21.465 9.46484C21.465 8.65713 20.8079 8 20.0002 8C19.1924 8 18.5353 8.65713 18.5353 9.46484C18.5353 9.85964 18.6939 10.217 18.9488 10.4807C17.6874 10.5173 15.4777 10.8263 13.0542 12.2803C10.1481 14.0239 8.42936 13.3783 8.41442 13.3723C8.26149 13.3096 8.086 13.3821 8.02272 13.5355C7.95973 13.6887 8.03268 13.8641 8.1859 13.9272ZM16.9732 24.4984C16.9732 25.0426 16.5305 25.4853 15.9863 25.4853H10.1544C9.61017 25.4853 9.16749 25.0426 9.16749 24.4984V23.881H16.9732V24.4984ZM10.3941 23.281L12.8982 13.9043L15.4021 23.281H10.3941ZM24.35 31.3982H15.6503V30.2114H24.35V31.3982ZM23.5991 29.3584V29.6114H16.4012V29.3584C16.4012 28.9007 16.7737 28.5282 17.2315 28.5282H22.7689C23.2266 28.5282 23.5991 28.9007 23.5991 29.3584ZM21.3118 27.9282H18.6885L19.66 11.7625C19.6814 11.4074 19.8513 11.2457 20.0002 11.2457C20.149 11.2457 20.3189 11.4074 20.3403 11.7625L21.3118 27.9282ZM30.8328 24.4984C30.8328 25.0426 30.3902 25.4853 29.846 25.4853H24.014C23.4698 25.4853 23.0271 25.0426 23.0271 24.4984V23.881H30.8328V24.4984ZM24.2525 23.281L26.7578 13.7209L29.2632 23.281H24.2525ZM20.0002 8.6C20.477 8.6 20.865 8.98804 20.865 9.46484C20.865 9.94165 20.477 10.3297 20.0002 10.3297C19.5234 10.3297 19.1353 9.94165 19.1353 9.46484C19.1353 8.98804 19.5234 8.6 20.0002 8.6Z" fill="#12263A"/>
</svg>
