<svg width="40" height="40" viewBox="0 0 40 40" fill="none" xmlns="http://www.w3.org/2000/svg">
<rect width="40" height="40" rx="5" fill="#EBF5EE"/>
<g clip-path="url(#clip0)">
<path d="M22.8228 19.1948V14.8438H23.2813C23.4056 14.8438 23.5248 14.7944 23.6127 14.7065C23.7006 14.6186 23.75 14.4993 23.75 14.375C23.75 14.2507 23.7006 14.1315 23.6127 14.0436C23.5248 13.9556 23.4056 13.9063 23.2813 13.9063H20.939C20.9391 13.8926 20.9409 13.8793 20.9398 13.8654C20.9298 13.7401 20.7466 10.7737 25.3482 8.70892C25.4616 8.65802 25.5502 8.56415 25.5944 8.44795C25.6386 8.33176 25.6348 8.20276 25.5839 8.08934C25.533 7.97591 25.4392 7.88735 25.323 7.84314C25.2068 7.79893 25.0778 7.80269 24.9643 7.85359C23.8516 8.32983 22.8282 8.99245 21.9383 9.81294C21.8122 9.18633 21.903 8.53548 22.1958 7.9673C22.4885 7.39912 22.9658 6.94738 23.5492 6.68629C24.2984 6.32775 25.1465 6.28918 26.0443 6.24821C26.67 6.23739 27.2935 6.17284 27.9081 6.05527C28.0094 6.78998 28.0742 8.25024 27.2692 9.39717C26.5839 10.3736 25.393 10.9451 23.73 11.0957C23.6099 11.1066 23.4986 11.1633 23.4192 11.2541C23.3399 11.345 23.2986 11.4629 23.3039 11.5834C23.3093 11.7039 23.3609 11.8177 23.448 11.9011C23.5351 11.9845 23.651 12.0311 23.7716 12.0313C23.7858 12.0313 23.8001 12.0307 23.8144 12.0293C25.7685 11.8524 27.1906 11.1458 28.0411 9.92921C29.4068 7.97569 28.757 5.45445 28.7287 5.34814C28.7122 5.28622 28.6832 5.22835 28.6434 5.17808C28.6037 5.12781 28.5541 5.08623 28.4977 5.05589C28.4412 5.02555 28.3792 5.0071 28.3153 5.00168C28.2515 4.99626 28.1872 5.00399 28.1265 5.02439C27.4349 5.21767 26.7199 5.31438 26.0018 5.31175C25.0498 5.35512 24.0656 5.39987 23.1446 5.84058C22.2752 6.23037 21.5877 6.93779 21.2228 7.81797C20.858 8.69816 20.8434 9.68453 21.1821 10.5751C21.1888 10.591 21.1964 10.6065 21.2049 10.6216C19.9747 12.205 19.9875 13.6334 20.0032 13.9063H16.7188C16.5944 13.9063 16.4752 13.9556 16.3873 14.0436C16.2994 14.1315 16.25 14.2507 16.25 14.375C16.25 14.4993 16.2994 14.6186 16.3873 14.7065C16.4752 14.7944 16.5944 14.8438 16.7188 14.8438H17.1772V19.1943C14.0375 20.3549 11.7969 23.1598 11.7969 26.7279C11.7878 27.811 11.9933 28.8851 12.4015 29.8883C12.8096 30.8915 13.4124 31.804 14.1751 32.573C14.9377 33.3421 15.8451 33.9525 16.8448 34.3691C17.8446 34.7857 18.9169 35.0001 20 35.0001C21.0831 35.0001 22.1554 34.7857 23.1552 34.3691C24.155 33.9525 25.0623 33.3421 25.825 32.573C26.5876 31.804 27.1904 30.8915 27.5986 29.8883C28.0067 28.8851 28.2122 27.811 28.2031 26.7279C28.2031 23.1599 25.9623 20.3555 22.8228 19.1948ZM20 34.0625C18.4573 34.0561 16.9565 33.5601 15.7137 32.646C14.471 31.7319 13.5505 30.4469 13.0849 28.9761C13.9445 29.414 14.8996 29.6306 15.8639 29.6064C16.7133 29.6027 17.5579 29.4794 18.3729 29.2402C18.9416 29.0724 19.4926 28.8687 20.0253 28.6717C20.9424 28.2921 21.8991 28.016 22.8774 27.8485C24.6711 27.6076 26.122 27.7576 27.1019 28.2734C26.758 29.9047 25.8657 31.3689 24.5734 32.4223C23.2812 33.4756 21.6671 34.0545 20 34.0625V34.0625ZM27.2418 27.2954C26.1053 26.7986 24.5998 26.6711 22.7524 26.9195C21.7057 27.0959 20.6819 27.3886 19.7002 27.7923C19.1819 27.984 18.6461 28.1822 18.1076 28.3409C16.459 28.8274 14.0898 28.9318 12.8383 27.627C12.8218 27.6106 12.804 27.5955 12.7852 27.5818C12.7519 27.2984 12.7349 27.0133 12.7344 26.7279C12.7344 23.7105 14.5613 21.1608 17.5022 20.0737L18.1147 19.8473V18.5938H18.5938C18.7181 18.5938 18.8373 18.5444 18.9252 18.4565C19.0131 18.3686 19.0625 18.2493 19.0625 18.125C19.0625 18.0007 19.0131 17.8815 18.9252 17.7936C18.8373 17.7056 18.7181 17.6563 18.5938 17.6563H18.1147V16.7188H18.5938C18.7181 16.7188 18.8373 16.6694 18.9252 16.5815C19.0131 16.4936 19.0625 16.3743 19.0625 16.25C19.0625 16.1257 19.0131 16.0065 18.9252 15.9186C18.8373 15.8306 18.7181 15.7813 18.5938 15.7813H18.1147V14.8438H21.8853V15.7813H21.4063C21.2819 15.7813 21.1627 15.8306 21.0748 15.9186C20.9869 16.0065 20.9375 16.1257 20.9375 16.25C20.9375 16.3743 20.9869 16.4936 21.0748 16.5815C21.1627 16.6694 21.2819 16.7188 21.4063 16.7188H21.8853V17.6563H21.4063C21.2819 17.6563 21.1627 17.7056 21.0748 17.7936C20.9869 17.8815 20.9375 18.0007 20.9375 18.125C20.9375 18.2493 20.9869 18.3686 21.0748 18.4565C21.1627 18.5444 21.2819 18.5938 21.4063 18.5938H21.8853V19.8478L22.4977 20.0742C25.4387 21.1614 27.2656 23.711 27.2656 26.7279C27.2656 26.9191 27.2561 27.1079 27.2418 27.2954V27.2954Z" fill="#12263A"/>
<path d="M15.0148 12.1153C15.7046 12.5456 16.5045 12.7665 17.3174 12.7512C17.9169 12.7445 18.5127 12.6575 19.0891 12.4926C19.2018 12.4616 19.2988 12.3897 19.3612 12.2908C19.4237 12.192 19.4469 12.0734 19.4264 11.9584C19.4107 11.8707 19.0246 9.80104 17.3153 8.74967C16.2301 8.0818 14.8814 7.9828 13.3077 8.45522C13.1982 8.48807 13.1044 8.55984 13.0441 8.65701C12.9838 8.75418 12.9611 8.87005 12.9803 8.9828C12.9946 9.0669 13.3502 11.0552 15.0148 12.1153ZM16.8181 9.54435C17.7539 10.1169 18.2005 11.1261 18.3876 11.6974C17.2443 11.9318 16.2829 11.8083 15.5251 11.3287C14.618 10.7544 14.192 9.78639 14.0144 9.23719C15.1264 8.98245 16.0677 9.08544 16.8181 9.54435H16.8181Z" fill="#12263A"/>
<path d="M21.875 23.0469C21.5969 23.0469 21.325 23.1294 21.0937 23.2839C20.8625 23.4384 20.6822 23.658 20.5758 23.915C20.4694 24.1719 20.4415 24.4547 20.4958 24.7275C20.55 25.0003 20.684 25.2508 20.8806 25.4475C21.0773 25.6442 21.3279 25.7781 21.6007 25.8324C21.8734 25.8866 22.1562 25.8588 22.4131 25.7523C22.6701 25.6459 22.8897 25.4657 23.0443 25.2344C23.1988 25.0031 23.2813 24.7313 23.2813 24.4531C23.2808 24.0803 23.1326 23.7228 22.8689 23.4592C22.6053 23.1956 22.2478 23.0473 21.875 23.0469V23.0469ZM21.875 24.9219C21.7823 24.9219 21.6917 24.8944 21.6146 24.8429C21.5375 24.7914 21.4774 24.7182 21.4419 24.6325C21.4065 24.5469 21.3972 24.4526 21.4153 24.3617C21.4333 24.2707 21.478 24.1872 21.5435 24.1217C21.6091 24.0561 21.6926 24.0115 21.7836 23.9934C21.8745 23.9753 21.9687 23.9846 22.0544 24.0201C22.14 24.0555 22.2132 24.1156 22.2648 24.1927C22.3163 24.2698 22.3438 24.3604 22.3438 24.4531C22.3436 24.5774 22.2942 24.6966 22.2063 24.7844C22.1184 24.8723 21.9993 24.9218 21.875 24.9219V24.9219Z" fill="#12263A"/>
<path d="M19.7656 22.1094C20.0245 22.1094 20.2344 21.8995 20.2344 21.6406C20.2344 21.3817 20.0245 21.1719 19.7656 21.1719C19.5067 21.1719 19.2969 21.3817 19.2969 21.6406C19.2969 21.8995 19.5067 22.1094 19.7656 22.1094Z" fill="#12263A"/>
<path d="M16.25 23.9844C15.9255 23.9844 15.6083 24.0806 15.3385 24.2609C15.0687 24.4411 14.8584 24.6974 14.7343 24.9972C14.6101 25.2969 14.5776 25.6268 14.6409 25.9451C14.7042 26.2633 14.8605 26.5557 15.0899 26.7851C15.3193 27.0145 15.6117 27.1708 15.9299 27.2341C16.2482 27.2974 16.5781 27.2649 16.8778 27.1407C17.1776 27.0166 17.4339 26.8063 17.6141 26.5365C17.7944 26.2667 17.8906 25.9495 17.8906 25.625C17.8901 25.19 17.7171 24.773 17.4096 24.4654C17.102 24.1579 16.685 23.9849 16.25 23.9844V23.9844ZM16.25 26.3281C16.1109 26.3281 15.975 26.2869 15.8594 26.2096C15.7437 26.1324 15.6536 26.0226 15.6004 25.8941C15.5472 25.7656 15.5333 25.6242 15.5604 25.4878C15.5875 25.3514 15.6545 25.2261 15.7528 25.1278C15.8511 25.0295 15.9764 24.9625 16.1128 24.9354C16.2492 24.9083 16.3906 24.9222 16.5191 24.9754C16.6476 25.0286 16.7574 25.1187 16.8346 25.2344C16.9119 25.35 16.9531 25.4859 16.9531 25.625C16.9529 25.8114 16.8788 25.9901 16.747 26.122C16.6151 26.2538 16.4364 26.3279 16.25 26.3281V26.3281Z" fill="#12263A"/>
<path d="M8.98438 12.0312C8.70625 12.0312 8.43436 12.1137 8.2031 12.2682C7.97185 12.4228 7.79161 12.6424 7.68517 12.8994C7.57873 13.1563 7.55089 13.4391 7.60515 13.7118C7.65941 13.9846 7.79334 14.2352 7.99001 14.4319C8.18667 14.6285 8.43724 14.7625 8.71003 14.8167C8.98282 14.871 9.26557 14.8431 9.52252 14.7367C9.77948 14.6303 9.99911 14.45 10.1536 14.2188C10.3082 13.9875 10.3906 13.7156 10.3906 13.4375C10.3902 13.0647 10.2419 12.7072 9.97829 12.4436C9.71466 12.1799 9.35721 12.0317 8.98438 12.0312V12.0312ZM8.98438 13.9062C8.89167 13.9062 8.80104 13.8788 8.72395 13.8273C8.64687 13.7757 8.58679 13.7025 8.55131 13.6169C8.51583 13.5312 8.50655 13.437 8.52463 13.3461C8.54272 13.2551 8.58736 13.1716 8.65292 13.106C8.71848 13.0405 8.802 12.9958 8.89293 12.9778C8.98386 12.9597 9.07811 12.969 9.16376 13.0044C9.24941 13.0399 9.32262 13.1 9.37413 13.1771C9.42563 13.2542 9.45313 13.3448 9.45313 13.4375C9.453 13.5618 9.40358 13.6809 9.31569 13.7688C9.22781 13.8567 9.10866 13.9061 8.98438 13.9062Z" fill="#12263A"/>
<path d="M15.0781 16.7188C15.0781 16.3016 14.9544 15.8937 14.7226 15.5468C14.4908 15.2 14.1614 14.9296 13.776 14.7699C13.3905 14.6103 12.9664 14.5685 12.5572 14.6499C12.1481 14.7313 11.7722 14.9322 11.4772 15.2272C11.1822 15.5222 10.9813 15.8981 10.8999 16.3072C10.8185 16.7164 10.8603 17.1405 11.0199 17.526C11.1796 17.9114 11.45 18.2409 11.7968 18.4726C12.1437 18.7044 12.5516 18.8281 12.9687 18.8281C13.528 18.8275 14.0641 18.605 14.4596 18.2096C14.855 17.8141 15.0775 17.278 15.0781 16.7188V16.7188ZM11.7969 16.7188C11.7969 16.487 11.8656 16.2604 11.9944 16.0677C12.1231 15.875 12.3062 15.7248 12.5203 15.6361C12.7344 15.5474 12.9701 15.5242 13.1974 15.5694C13.4247 15.6146 13.6335 15.7262 13.7974 15.8901C13.9613 16.054 14.0729 16.2628 14.1181 16.4901C14.1633 16.7175 14.1401 16.9531 14.0514 17.1672C13.9627 17.3813 13.8125 17.5644 13.6198 17.6931C13.4271 17.8219 13.2005 17.8906 12.9687 17.8906C12.6581 17.8903 12.3602 17.7667 12.1405 17.547C11.9208 17.3273 11.7972 17.0294 11.7969 16.7188V16.7188Z" fill="#12263A"/>
<path d="M31.0156 12.0312C30.7375 12.0312 30.4656 12.1137 30.2344 12.2682C30.0031 12.4228 29.8229 12.6424 29.7164 12.8994C29.61 13.1563 29.5821 13.4391 29.6364 13.7118C29.6907 13.9846 29.8246 14.2352 30.0213 14.4319C30.2179 14.6285 30.4685 14.7625 30.7413 14.8167C31.0141 14.871 31.2968 14.8431 31.5538 14.7367C31.8107 14.6303 32.0304 14.45 32.1849 14.2188C32.3394 13.9875 32.4219 13.7156 32.4219 13.4375C32.4215 13.0647 32.2732 12.7072 32.0095 12.4436C31.7459 12.1799 31.3885 12.0317 31.0156 12.0312V12.0312ZM31.0156 13.9062C30.9229 13.9062 30.8323 13.8788 30.7552 13.8273C30.6781 13.7757 30.618 13.7025 30.5826 13.6169C30.5471 13.5312 30.5378 13.437 30.5559 13.3461C30.574 13.2551 30.6186 13.1716 30.6842 13.106C30.7497 13.0405 30.8332 12.9958 30.9242 12.9778C31.0151 12.9597 31.1094 12.969 31.195 13.0044C31.2807 13.0399 31.3539 13.1 31.4054 13.1771C31.4569 13.2542 31.4844 13.3448 31.4844 13.4375C31.4843 13.5618 31.4348 13.6809 31.3469 13.7688C31.2591 13.8567 31.1399 13.9061 31.0156 13.9062Z" fill="#12263A"/>
<path d="M27.0313 14.6094C26.6141 14.6094 26.2062 14.7331 25.8593 14.9649C25.5125 15.1966 25.2421 15.5261 25.0824 15.9115C24.9228 16.297 24.881 16.7211 24.9624 17.1303C25.0438 17.5394 25.2447 17.9153 25.5397 18.2103C25.8347 18.5053 26.2106 18.7062 26.6197 18.7876C27.0289 18.869 27.453 18.8272 27.8385 18.6676C28.2239 18.5079 28.5534 18.2375 28.7851 17.8907C29.0169 17.5438 29.1406 17.1359 29.1406 16.7187C29.14 16.1595 28.9175 15.6234 28.5221 15.2279C28.1266 14.8325 27.5905 14.61 27.0313 14.6094ZM27.0313 17.8906C26.7995 17.8906 26.5729 17.8219 26.3802 17.6931C26.1875 17.5644 26.0373 17.3813 25.9486 17.1672C25.8599 16.9531 25.8367 16.7174 25.8819 16.4901C25.9271 16.2628 26.0387 16.054 26.2026 15.8901C26.3665 15.7262 26.5753 15.6146 26.8026 15.5694C27.03 15.5242 27.2656 15.5474 27.4797 15.6361C27.6938 15.7248 27.8769 15.875 28.0056 16.0677C28.1344 16.2604 28.2031 16.487 28.2031 16.7187C28.2028 17.0294 28.0792 17.3273 27.8595 17.547C27.6398 17.7667 27.3419 17.8903 27.0313 17.8906V17.8906Z" fill="#12263A"/>
</g>
<defs>
<clipPath id="clip0">
<rect width="30" height="30" fill="white" transform="translate(5 5)"/>
</clipPath>
</defs>
</svg>
