<svg width="40" height="40" viewBox="0 0 40 40" fill="none" xmlns="http://www.w3.org/2000/svg">
<rect width="40" height="40" rx="5" fill="#EBF5EE"/>
<path d="M31.2058 23.9712V26.2653L30.147 25.2948C29.9705 25.1183 29.7058 25.1624 29.5294 25.3389C29.3529 25.5153 29.397 25.78 29.5735 25.9565L31.3382 27.5448C31.4264 27.633 31.5147 27.7212 31.6911 27.7212C31.7794 27.7212 31.9117 27.6771 31.9999 27.5889L33.897 25.8683C34.0735 25.6918 34.0735 25.4271 33.9411 25.2506C33.7647 25.0742 33.4999 25.0742 33.3235 25.2065L32.1764 26.2653V23.9712C32.1764 22.2065 30.5882 20.7506 28.647 20.7506H28.3382V14.133L29.5294 15.28C29.7058 15.4565 29.9705 15.4565 30.147 15.28C30.3235 15.1036 30.3235 14.8389 30.147 14.6624L28.2058 12.7653C28.1617 12.7212 27.9852 12.633 27.897 12.633C27.8088 12.633 27.6764 12.633 27.5882 12.7653L25.6029 14.6624C25.4264 14.8389 25.4264 15.1036 25.6029 15.28C25.7794 15.4565 26.0441 15.4565 26.2205 15.28L27.4558 14.0889V20.7065H20.4852V14.3095L21.6764 15.4565C21.8529 15.633 22.1176 15.633 22.2941 15.4565C22.4705 15.28 22.4705 15.0153 22.2941 14.8389L20.3529 12.9418C20.2647 12.8536 20.1323 12.8095 20.0441 12.8095C19.9558 12.8095 19.8235 12.8536 19.7352 12.9418L17.7499 14.8389C17.5735 15.0153 17.5735 15.28 17.7499 15.4565C17.9264 15.633 18.1911 15.633 18.3676 15.4565L19.6029 14.2653V20.7065H12.6764V14.0889L13.8676 15.2359C14.0441 15.4124 14.3088 15.4124 14.4852 15.2359C14.6617 15.0595 14.6617 14.7947 14.4852 14.6183L12.5441 12.7212C12.4999 12.6771 12.3235 12.5889 12.2352 12.5889C12.147 12.5889 12.0147 12.633 11.9264 12.7212L9.94113 14.6183C9.76466 14.7947 9.76466 15.0595 9.94113 15.2359C10.1176 15.4124 10.3823 15.4124 10.5588 15.2359L11.7941 14.0447V20.6624H11.4411C9.49995 20.6624 7.91171 22.1183 7.91171 23.883V26.1771L6.80877 25.2065C6.6323 25.03 6.3676 25.0742 6.19113 25.2506C6.01466 25.4271 6.05877 25.6918 6.23524 25.8683L8.08818 27.5889C8.17642 27.6771 8.26466 27.7212 8.39701 27.7212C8.48524 27.7212 8.6176 27.6771 8.70583 27.5889L10.6029 25.8683C10.7794 25.6918 10.7794 25.4271 10.647 25.2506C10.4705 25.0742 10.2058 25.0742 10.0294 25.2065L8.8823 26.2212V23.9712C8.8823 22.6918 10.0735 21.633 11.5294 21.633H19.6911V26.3095L18.5882 25.2948C18.4117 25.1183 18.147 25.1624 17.9705 25.3389C17.7941 25.5153 17.8382 25.78 18.0147 25.9565L19.8235 27.5889C19.9117 27.6771 19.9999 27.7212 20.1323 27.7212C20.2647 27.7212 20.397 27.633 20.4852 27.5448L22.2941 25.9124C22.4705 25.7359 22.4705 25.4712 22.3382 25.2948C22.1617 25.1183 21.897 25.1183 21.7205 25.2506L20.6176 26.2653V21.633H28.6911C30.0147 21.633 31.2058 22.6477 31.2058 23.9712Z" fill="#12263A"/>
<path d="M9.76447 11.3091H14.7498C15.0145 11.3091 15.1909 11.1326 15.1909 10.8679V5.88258C15.1909 5.61788 15.0145 5.44141 14.7498 5.44141H9.76447C9.49976 5.44141 9.32329 5.61788 9.32329 5.88258V10.8679C9.32329 11.0885 9.54388 11.3091 9.76447 11.3091ZM10.2056 6.32376H14.3086V10.4267H10.2056V6.32376Z" fill="#12263A"/>
<path d="M17.5292 11.3091H22.5145C22.7792 11.3091 22.9557 11.1326 22.9557 10.8679V5.88258C22.9557 5.61788 22.7792 5.44141 22.5145 5.44141H17.5292C17.2645 5.44141 17.088 5.61788 17.088 5.88258V10.8679C17.088 11.0885 17.2645 11.3091 17.5292 11.3091ZM17.9704 6.32376H22.0733V10.4267H17.9704V6.32376Z" fill="#12263A"/>
<path d="M25.3381 11.3091H30.3234C30.5881 11.3091 30.7646 11.1326 30.7646 10.8679V5.88258C30.7646 5.61788 30.5881 5.44141 30.3234 5.44141H25.3381C25.0734 5.44141 24.8969 5.61788 24.8969 5.88258V10.8679C24.8969 11.0885 25.0734 11.3091 25.3381 11.3091ZM25.7793 6.32376H29.8822V10.4267H25.7793V6.32376Z" fill="#12263A"/>
<path d="M10.8676 28.6914H5.88227C5.61757 28.6914 5.4411 28.8679 5.4411 29.1326V34.1179C5.4411 34.3826 5.61757 34.5591 5.88227 34.5591H10.8676C11.1323 34.5591 11.3087 34.3826 11.3087 34.1179V29.1326C11.3087 28.912 11.0882 28.6914 10.8676 28.6914ZM10.4264 33.6767H6.32345V29.5738H10.4264V33.6767Z" fill="#12263A"/>
<path d="M22.9115 29.1326C22.9115 28.8679 22.7351 28.6914 22.4704 28.6914H17.5292C17.2645 28.6914 17.088 28.8679 17.088 29.1326V34.1179C17.088 34.3826 17.2645 34.5591 17.5292 34.5591H22.5145C22.7792 34.5591 22.9557 34.3826 22.9557 34.1179V29.1326H22.9115ZM22.0292 33.6767H17.9262V29.5738H22.0292V33.6767Z" fill="#12263A"/>
<path d="M34.1176 28.6914H29.1323C28.8676 28.6914 28.6911 28.8679 28.6911 29.1326V34.1179C28.6911 34.3826 28.8676 34.5591 29.1323 34.5591H34.1176C34.3823 34.5591 34.5587 34.3826 34.5587 34.1179V29.1326C34.5587 28.912 34.3823 28.6914 34.1176 28.6914ZM33.6764 33.6767H29.5734V29.5738H33.6764V33.6767Z" fill="#12263A"/>
</svg>
