<svg width="40" height="40" viewBox="0 0 40 40" fill="none" xmlns="http://www.w3.org/2000/svg">
<rect width="40" height="40" rx="5" fill="#EBF5EE"/>
<path d="M13.75 16.875H12.5C10 16.875 10 19.2268 10 20V23.125C10 23.8981 10 26.25 12.5 26.25H13.75C13.9151 26.2535 14.0792 26.2235 14.2325 26.1619C14.3857 26.1003 14.5249 26.0084 14.6417 25.8916C14.7584 25.7748 14.8504 25.6357 14.912 25.4824C14.9735 25.3292 15.0035 25.1651 15 25V18.125C15.0035 17.9599 14.9735 17.7957 14.912 17.6425C14.8504 17.4893 14.7584 17.3501 14.6417 17.2333C14.5249 17.1165 14.3857 17.0246 14.2325 16.963C14.0792 16.9014 13.9151 16.8715 13.75 16.875ZM13.75 25H12.5C11.9138 25 11.25 25 11.25 23.125V20C11.25 18.125 11.9138 18.125 12.5 18.125H13.75V25Z" fill="#12263A"/>
<path d="M26.875 16.25H28.125C28.1622 15.173 27.9775 14.0998 27.5824 13.0972C27.1873 12.0945 26.5901 11.1839 25.8281 10.4219C25.0661 9.65986 24.1554 9.06272 23.1528 8.66758C22.1502 8.27244 21.077 8.08775 20 8.12499C18.923 8.08775 17.8498 8.27244 16.8472 8.66758C15.8445 9.06272 14.9339 9.65986 14.1719 10.4219C13.4099 11.1839 12.8127 12.0945 12.4176 13.0972C12.0224 14.0998 11.8378 15.173 11.875 16.25H13.125C13.125 12.2019 15.9519 9.37499 20 9.37499C24.0481 9.37499 26.875 12.2019 26.875 16.25Z" fill="#12263A"/>
<path d="M27.5 16.875H26.25C26.0849 16.8715 25.9208 16.9014 25.7675 16.963C25.6143 17.0246 25.4751 17.1165 25.3583 17.2333C25.2416 17.3501 25.1496 17.4893 25.088 17.6425C25.0265 17.7957 24.9965 17.9599 25 18.125V25C24.9965 25.1651 25.0265 25.3292 25.088 25.4824C25.1496 25.6357 25.2416 25.7749 25.3583 25.8916C25.4751 26.0084 25.6143 26.1004 25.7675 26.1619C25.9208 26.2235 26.0849 26.2535 26.25 26.25H26.8425C26.675 27.8262 25.7175 29.3593 21.7544 29.9262C21.6262 29.5683 21.3866 29.261 21.0708 29.0492C20.7551 28.8375 20.3798 28.7326 20 28.75C19.5027 28.75 19.0258 28.9475 18.6742 29.2991C18.3225 29.6508 18.125 30.1277 18.125 30.625C18.125 31.1222 18.3225 31.5992 18.6742 31.9508C19.0258 32.3024 19.5027 32.5 20 32.5C20.4052 32.5186 20.8045 32.3977 21.1312 32.1573C21.4579 31.9169 21.6922 31.5717 21.795 31.1793C26.9338 30.4756 27.9613 28.1381 28.1025 26.1912C29.9938 25.8387 30 23.8293 30 23.125V20C30 19.2268 30 16.875 27.5 16.875ZM20 31.25C19.8342 31.25 19.6753 31.1841 19.5581 31.0669C19.4408 30.9497 19.375 30.7907 19.375 30.625C19.375 30.4592 19.4408 30.3002 19.5581 30.183C19.6753 30.0658 19.8342 30 20 30C20.1658 30 20.3247 30.0658 20.4419 30.183C20.5592 30.3002 20.625 30.4592 20.625 30.625C20.625 30.7907 20.5592 30.9497 20.4419 31.0669C20.3247 31.1841 20.1658 31.25 20 31.25ZM28.75 23.125C28.75 25 28.0863 25 27.5 25L26.25 24.9825V18.125H27.5C28.0863 18.125 28.75 18.125 28.75 20V23.125Z" fill="#12263A"/>
</svg>
