<svg width="40" height="40" viewBox="0 0 40 40" fill="none" xmlns="http://www.w3.org/2000/svg">
<rect width="40" height="40" rx="5" fill="#EBF5EE"/>
<path d="M19.9646 30.2919L19.7615 30.219C19.6829 30.1908 11.9051 27.3369 11.4647 22.1553L11.4626 22.1046C11.4626 19.4076 11.8583 18.1728 12.1766 17.1807C12.3629 16.5996 12.5099 16.1409 12.5273 15.4977C12.5681 13.9743 12.1226 13.4475 12.1184 13.4424L11.7188 13.0524L12.095 12.6423L14.4173 9.89251L14.8754 10.2783C14.8817 10.2837 15.758 10.9938 16.9994 10.9938C17.8805 10.9938 18.7481 10.6395 19.5782 9.94111L19.9646 9.61621L20.3507 9.94111C21.1814 10.6398 22.049 10.9938 22.9301 10.9938C24.1691 10.9938 25.0454 10.2855 25.0538 10.2783L25.5122 9.89251L28.1942 13.0686L27.7949 13.4586C27.797 13.4586 27.3617 13.9902 27.4019 15.4977C27.4193 16.1412 27.5663 16.5999 27.7526 17.181C28.0706 18.1731 28.4663 19.4076 28.4663 22.1046L28.4642 22.1553C28.0241 27.3366 20.246 30.1908 20.1677 30.2187L19.9646 30.2919ZM12.6626 22.0785C13.0142 25.9404 18.7937 28.5237 19.9646 29.0082C21.1355 28.524 26.915 25.9404 27.2666 22.0785C27.2639 19.5873 26.9015 18.4566 26.6102 17.5473C26.4119 16.9287 26.2247 16.3443 26.2031 15.5298C26.1698 14.2848 26.4089 13.5159 26.6303 13.0764L25.328 11.5341C24.8279 11.8236 23.9828 12.1938 22.9304 12.1938C21.9008 12.1938 20.9054 11.8473 19.9649 11.1624C19.0244 11.8473 18.029 12.1938 16.9997 12.1938C15.947 12.1938 15.1019 11.8239 14.6018 11.5341L13.2995 13.0764C13.5209 13.5159 13.7603 14.2845 13.727 15.5298C13.7054 16.3443 13.5179 16.9287 13.3196 17.5473C13.0277 18.4563 12.6653 19.5873 12.6626 22.0785Z" fill="#12263A"/>
<path d="M23.357 24.0271L19.9643 22.2436L16.5716 24.0271L17.2193 20.2495L14.4749 17.5741L18.2681 17.023L19.9643 13.5859L21.6605 17.023L25.4537 17.5741L22.7093 20.2495L23.357 24.0271ZM19.9646 20.8876L21.7634 21.8332L21.4196 19.8304L22.8752 18.4117L20.864 18.1195L19.9646 16.297L19.0652 18.1195L17.054 18.4117L18.5096 19.8304L18.1658 21.8332L19.9646 20.8876Z" fill="#12263A"/>
</svg>
