<svg width="40" height="40" viewBox="0 0 40 40" fill="none" xmlns="http://www.w3.org/2000/svg">
<rect width="40" height="40" rx="5" fill="#EBF5EE"/>
<path d="M7.5 15.625H11.25C11.4158 15.625 11.5747 15.5592 11.6919 15.4419C11.8092 15.3247 11.875 15.1658 11.875 15C11.875 14.8342 11.8092 14.6753 11.6919 14.5581C11.5747 14.4408 11.4158 14.375 11.25 14.375H7.5C7.33424 14.375 7.17527 14.4408 7.05806 14.5581C6.94085 14.6753 6.875 14.8342 6.875 15C6.875 15.1658 6.94085 15.3247 7.05806 15.4419C7.17527 15.5592 7.33424 15.625 7.5 15.625Z" fill="#12263A"/>
<path d="M7.49989 17.5C7.49989 17.6658 7.56574 17.8247 7.68295 17.9419C7.80016 18.0592 7.95913 18.125 8.12489 18.125H12.4999C12.6656 18.125 12.8246 18.0592 12.9418 17.9419C13.059 17.8247 13.1249 17.6658 13.1249 17.5C13.1249 17.3342 13.059 17.1753 12.9418 17.0581C12.8246 16.9408 12.6656 16.875 12.4999 16.875H8.12489C7.95913 16.875 7.80016 16.9408 7.68295 17.0581C7.56574 17.1753 7.49989 17.3342 7.49989 17.5Z" fill="#12263A"/>
<path d="M11.875 20C11.875 19.8342 11.8092 19.6753 11.6919 19.5581C11.5747 19.4408 11.4158 19.375 11.25 19.375H7.5C7.33424 19.375 7.17527 19.4408 7.05806 19.5581C6.94085 19.6753 6.875 19.8342 6.875 20C6.875 20.1658 6.94085 20.3247 7.05806 20.4419C7.17527 20.5592 7.33424 20.625 7.5 20.625H11.25C11.4158 20.625 11.5747 20.5592 11.6919 20.4419C11.8092 20.3247 11.875 20.1658 11.875 20Z" fill="#12263A"/>
<path d="M32 26V21.625C32 21.1277 31.8025 20.6508 31.4508 20.2992C31.0992 19.9475 30.6223 19.75 30.125 19.75C30.0912 19.7493 30.0585 19.7372 30.0324 19.7157C30.0063 19.6941 29.9883 19.6644 29.9813 19.6312L29.0062 15.05V14.9812C28.9225 14.7287 28.7603 14.5095 28.5434 14.3555C28.3264 14.2015 28.066 14.1208 27.8 14.125H22V13.5C22 12.837 21.7366 12.2011 21.2678 11.7322C20.7989 11.2634 20.163 11 19.5 11H8.25C7.91848 11 7.60054 11.1317 7.36612 11.3661C7.1317 11.6005 7 11.9185 7 12.25V13.5C7 13.6658 7.06585 13.8247 7.18306 13.9419C7.30027 14.0592 7.45924 14.125 7.625 14.125C7.79076 14.125 7.94973 14.0592 8.06694 13.9419C8.18415 13.8247 8.25 13.6658 8.25 13.5V12.25H19.5C19.8315 12.25 20.1495 12.3817 20.3839 12.6161C20.6183 12.8505 20.75 13.1685 20.75 13.5V26H15.0625C14.9172 25.3042 14.5391 24.6788 13.9906 24.2268C13.442 23.7748 12.7558 23.5234 12.0451 23.5139C11.3344 23.5044 10.6417 23.7375 10.0813 24.1747C9.52086 24.6119 9.12623 25.2271 8.9625 25.9187C8.75237 25.8387 8.57162 25.6965 8.44433 25.5112C8.31704 25.3258 8.24925 25.1061 8.25 24.8812V22.25C8.25 22.0842 8.18415 21.9253 8.06694 21.8081C7.94973 21.6908 7.79076 21.625 7.625 21.625C7.45924 21.625 7.30027 21.6908 7.18306 21.8081C7.06585 21.9253 7 22.0842 7 22.25V24.8812C7.0019 25.4327 7.19566 25.9664 7.54805 26.3906C7.90043 26.8148 8.38947 27.1032 8.93125 27.2062C9.06648 27.9171 9.44424 28.5591 10.0001 29.0225C10.5559 29.4859 11.2553 29.742 11.9789 29.7472C12.7025 29.7523 13.4055 29.5062 13.9679 29.0508C14.5303 28.5954 14.9171 27.9589 15.0625 27.25H22.6875C22.8309 27.9564 23.2142 28.5915 23.7723 29.0477C24.3305 29.5039 25.0292 29.7531 25.75 29.7531C26.4708 29.7531 27.1695 29.5039 27.7277 29.0477C28.2858 28.5915 28.6691 27.9564 28.8125 27.25H32C32.1658 27.25 32.3247 27.1841 32.4419 27.0669C32.5592 26.9497 32.625 26.7908 32.625 26.625C32.625 26.4592 32.5592 26.3003 32.4419 26.1831C32.3247 26.0658 32.1658 26 32 26ZM12 28.5C11.6292 28.5 11.2666 28.39 10.9583 28.184C10.65 27.978 10.4096 27.6851 10.2677 27.3425C10.1258 26.9999 10.0887 26.6229 10.161 26.2592C10.2334 25.8955 10.412 25.5614 10.6742 25.2992C10.9364 25.0369 11.2705 24.8584 11.6342 24.786C11.9979 24.7137 12.3749 24.7508 12.7175 24.8927C13.0601 25.0346 13.353 25.275 13.559 25.5833C13.765 25.8916 13.875 26.2542 13.875 26.625C13.875 27.1223 13.6775 27.5992 13.3258 27.9508C12.9742 28.3025 12.4973 28.5 12 28.5ZM22 15.375H27.7938L28.725 19.75H24.5C24.3342 19.75 24.1753 19.8158 24.0581 19.9331C23.9408 20.0503 23.875 20.2092 23.875 20.375C23.875 20.5408 23.9408 20.6997 24.0581 20.8169C24.1753 20.9341 24.3342 21 24.5 21H30.125C30.2908 21 30.4497 21.0658 30.5669 21.1831C30.6842 21.3003 30.75 21.4592 30.75 21.625V26H28.8125C28.6691 25.2936 28.2858 24.6585 27.7277 24.2023C27.1695 23.7461 26.4708 23.4969 25.75 23.4969C25.0292 23.4969 24.3305 23.7461 23.7723 24.2023C23.2142 24.6585 22.8309 25.2936 22.6875 26H22V15.375ZM25.75 28.5C25.3792 28.5 25.0166 28.39 24.7083 28.184C24.4 27.978 24.1596 27.6851 24.0177 27.3425C23.8758 26.9999 23.8387 26.6229 23.911 26.2592C23.9834 25.8955 24.162 25.5614 24.4242 25.2992C24.6864 25.0369 25.0205 24.8584 25.3842 24.786C25.7479 24.7137 26.1249 24.7508 26.4675 24.8927C26.8101 25.0346 27.103 25.275 27.309 25.5833C27.515 25.8916 27.625 26.2542 27.625 26.625C27.625 27.1223 27.4275 27.5992 27.0758 27.9508C26.7242 28.3025 26.2473 28.5 25.75 28.5Z" fill="#12263A"/>
</svg>
