<svg height='100px' width='100px'  fill="#000000" xmlns="http://www.w3.org/2000/svg" xmlns:xlink="http://www.w3.org/1999/xlink" version="1.1" x="0px" y="0px" viewBox="0 0 93.5 93.5" style="enable-background:new 0 0 93.5 93.5;" xml:space="preserve"><title>Artboard 51 copy</title><g><path d="M22.7,42.3c-0.5-0.4-1.3-0.3-1.8,0.2c0,0,0,0,0,0l-4.2,5.2l-1.3-1.2c-0.5-0.5-1.3-0.5-1.8,0c-0.5,0.5-0.5,1.3,0,1.8   c0,0,2.4,2.2,2.4,2.2c0.6,0.5,1.5,0.3,1.8-0.1l5-6.3C23.3,43.5,23.5,42.9,22.7,42.3z"></path><path d="M66.9,54.3c-0.7,0-1.2,0.6-1.2,1.2v31.9H6.4v-82h41.3V22c0,0.7,0.5,1.3,1.2,1.3c0,0,0,0,0,0h16.6v1.6   c0,0.7,0.6,1.2,1.2,1.2s1.2-0.6,1.2-1.2V22c0-0.3-0.1-0.6-0.4-0.9L49.9,3.3C49.7,3,49.3,2.9,49,2.9H5.2c-0.7,0-1.2,0.6-1.2,1.2   v84.6c0,0.7,0.6,1.2,1.2,1.2h61.7c0.7,0,1.2-0.6,1.2-1.2V55.5C68.1,54.8,67.6,54.3,66.9,54.3z"></path><path d="M59.3,28.8c0-0.7-0.6-1.2-1.2-1.2H28.3c-0.7,0-1.2,0.6-1.2,1.2s0.6,1.2,1.2,1.2h29.8C58.8,30.1,59.3,29.5,59.3,28.8z"></path><path d="M28.3,34c-0.7,0-1.2,0.6-1.2,1.2s0.6,1.2,1.2,1.2h21.4c0.7,0,1.2-0.6,1.2-1.2S50.4,34,49.7,34H28.3z"></path><path d="M22.7,25.8c-0.5-0.4-1.3-0.3-1.8,0.2c0,0,0,0,0,0l-4.2,5.2L15.4,30c-0.5-0.5-1.3-0.5-1.8,0c-0.5,0.5-0.5,1.3,0,1.8   c0,0,2.4,2.2,2.4,2.2c0.6,0.5,1.5,0.3,1.8-0.1l5-6.3C23.3,27,23.4,26.4,22.7,25.8z"></path><path d="M22.7,58.2c-0.5-0.4-1.3-0.3-1.8,0.2c0,0,0,0,0,0l-4.2,5.2l-1.3-1.2c-0.5-0.5-1.3-0.5-1.8,0c-0.5,0.5-0.5,1.3,0,1.8   c0,0,2.4,2.2,2.4,2.2c0.6,0.5,1.5,0.3,1.8-0.1l5-6.3C23.3,59.5,23.4,58.8,22.7,58.2z"></path><path d="M89.9,25.6l-3.6-2.8l2.4-3.1c0.5-0.6,1-1.6-0.1-2.5l-5.2-4.1c-0.8-0.7-2.1-0.7-2.8,0.2c0,0,0,0,0,0l0,0l-2.4,3.1   c-0.2-0.1-0.5-0.2-0.7-0.1c-0.3,0-0.6,0.2-0.8,0.5l-4.2,5.4c-0.3,0.5-0.3,1.1,0,1.5L56.7,43.8H28.3c-0.7,0-1.2,0.6-1.2,1.2   s0.6,1.2,1.2,1.2h26.4l-3,3.9H28.3c-0.7,0-1.2,0.6-1.2,1.2s0.6,1.2,1.2,1.2h21.5L44.1,60H28.3c-0.7,0-1.2,0.6-1.2,1.2   s0.6,1.2,1.2,1.2h13.8l-2.5,3.2c0,0-0.1,0.3-0.2,0.7H28.3c-0.7,0-1.2,0.6-1.2,1.2s0.6,1.2,1.2,1.2h10.3c-1,3.2-2.3,7.7-2.3,7.7   c-0.2,0.5,0,1.1,0.4,1.4c0.4,0.3,1,0.3,1.4,0.1c0,0,9.5-5.7,9.7-5.9l32.7-42.1c0.2,0.1,0.4,0.2,0.7,0.2c0.4,0,0.8-0.2,1-0.5   l3.4-4.4l1.8,1.4L77.2,39.9c-0.4,0.6-0.3,1.3,0.2,1.8s1.3,0.3,1.8-0.2l11-14.1C90.6,26.8,90.4,26,89.9,25.6z M39.6,74.2l1.8-6   c0.7,0.4,1.3,0.8,1.9,1.2l0,0c0.6,0.5,1.2,1,1.7,1.5L39.6,74.2z M81,27.3l-5.9-4.6l2.5-3.2l5.9,4.6L81,27.3z"></path></g></svg>