<svg height='100px' width='100px'  fill="#000000" xmlns="http://www.w3.org/2000/svg" xmlns:xlink="http://www.w3.org/1999/xlink" version="1.1" x="0px" y="0px" viewBox="0 0 100 100" style="enable-background:new 0 0 100 100;" xml:space="preserve"><path d="M41.1,20c0.5,0,0.9,0.4,0.9,0.9v20.2c0,0.5-0.4,0.9-0.9,0.9H20.9c-0.5,0-0.9-0.4-0.9-0.9V20.9c0-0.5,0.4-0.9,0.9-0.9H41.1   M41.1,15.5H20.9c-3,0-5.4,2.4-5.4,5.4v20.2c0,3,2.4,5.4,5.4,5.4h20.2c3,0,5.4-2.4,5.4-5.4V20.9C46.5,18,44.1,15.5,41.1,15.5z   M79.1,46.5H58.9c-3,0-5.4-2.4-5.4-5.4V20.9c0-3,2.4-5.4,5.4-5.4h20.2c3,0,5.4,2.4,5.4,5.4v20.2C84.5,44.1,82.1,46.5,79.1,46.5z   M41.1,58c0.5,0,0.9,0.4,0.9,0.9v20.2c0,0.5-0.4,0.9-0.9,0.9H20.9c-0.5,0-0.9-0.4-0.9-0.9V58.9c0-0.5,0.4-0.9,0.9-0.9L41.1,58   M41.1,53.6H20.9c-3,0-5.4,2.4-5.4,5.4v20.2c0,3,2.4,5.4,5.4,5.4h20.2c3,0,5.4-2.4,5.4-5.4V58.9C46.5,56,44.1,53.6,41.1,53.6z   M79.1,58c0.5,0,0.9,0.4,0.9,0.9v20.2c0,0.5-0.4,0.9-0.9,0.9H58.9c-0.5,0-0.9-0.4-0.9-0.9V58.9c0-0.5,0.4-0.9,0.9-0.9L79.1,58   M79.1,53.6H58.9c-3,0-5.4,2.4-5.4,5.4v20.2c0,3,2.4,5.4,5.4,5.4h20.2c3,0,5.4-2.4,5.4-5.4V58.9C84.5,56,82.1,53.6,79.1,53.6z"></path></svg>