<svg height='100px' width='100px'  fill="#000000" xmlns="http://www.w3.org/2000/svg" data-name="Layer 1" viewBox="0 0 100 100" x="0px" y="0px"><title>07</title><g data-name="Group"><path data-name="Compound Path" d="M26.2,6.1a20,20,0,1,0,20,20A20,20,0,0,0,26.2,6.1ZM18.3,40.1a8,8,0,0,1,15.8,0,15.9,15.9,0,0,1-15.8,0Zm7.9-10.9a4.4,4.4,0,1,1,4.4-4.4A4.4,4.4,0,0,1,26.2,29.1Zm11.4,8.3a12,12,0,0,0-5.5-6.7,8.4,8.4,0,1,0-11.8,0,12,12,0,0,0-5.5,6.7,16,16,0,1,1,22.8,0Z"></path><path data-name="Compound Path" d="M73.8,53.8a20,20,0,1,0,20,20A20,20,0,0,0,73.8,53.8ZM65.9,87.7a8,8,0,0,1,15.8,0,15.9,15.9,0,0,1-15.8,0Zm7.9-10.9a4.4,4.4,0,1,1,4.4-4.4A4.4,4.4,0,0,1,73.8,76.8Zm11.4,8.3a12,12,0,0,0-5.5-6.7,8.4,8.4,0,1,0-11.8,0,12,12,0,0,0-5.5,6.7,16,16,0,1,1,22.8,0Z"></path><polygon data-name="Path" points="55.4 6.6 55.4 10.6 79.5 10.6 79.5 31.8 73.1 25.4 70.3 28.3 81.5 39.5 92.7 28.3 89.9 25.4 83.5 31.8 83.5 6.6 55.4 6.6"></polygon><polygon data-name="Path" points="26.9 74.6 29.7 71.7 18.5 60.5 7.3 71.7 10.1 74.6 16.5 68.2 16.5 93.4 44.6 93.4 44.6 89.4 20.5 89.4 20.5 68.2 26.9 74.6"></polygon></g></svg>