<svg height='100px' width='100px'  fill="#000000" xmlns="http://www.w3.org/2000/svg" data-name="Layer 1" viewBox="0 0 100 100" x="0px" y="0px"><path d="M35,29.5H15a2,2,0,0,1-2-2V7.5a2,2,0,0,1,2-2H31a2,2,0,0,1,0,4H17v16H33v-6a2,2,0,0,1,4,0v8A2,2,0,0,1,35,29.5Z"></path><path d="M25,23.5a2,2,0,0,1-1.41-.59l-4.14-4.14A2,2,0,0,1,22.27,16L25,18.67,37.73,6a2,2,0,1,1,2.82,2.82L26.41,22.91A2,2,0,0,1,25,23.5Z"></path><path d="M35,62H15a2,2,0,0,1-2-2V40a2,2,0,0,1,2-2H25a2,2,0,0,1,0,4H17V58H33V52a2,2,0,0,1,4,0v8A2,2,0,0,1,35,62Z"></path><path d="M25,56a2,2,0,0,1-1.41-.59l-4.14-4.14a2,2,0,1,1,2.82-2.82L25,51.17,37.73,38.45a2,2,0,1,1,2.82,2.82L26.41,55.41A2,2,0,0,1,25,56Z"></path><path d="M35,94.5H15a2,2,0,0,1-2-2v-20a2,2,0,0,1,2-2H31a2,2,0,0,1,0,4H17v16H33v-6a2,2,0,0,1,4,0v8A2,2,0,0,1,35,94.5Z"></path><path d="M25,88.5a2,2,0,0,1-1.41-.59l-4.14-4.14A2,2,0,0,1,22.27,81L25,83.67,37.73,71a2,2,0,1,1,2.82,2.82L26.41,87.91A2,2,0,0,1,25,88.5Z"></path><path d="M70,14.5H49.5a2,2,0,0,1,0-4H70a2,2,0,0,1,0,4Z"></path><path d="M85,24.5H49.5a2,2,0,0,1,0-4H85a2,2,0,0,1,0,4Z"></path><path d="M80,47H49.5a2,2,0,0,1,0-4H80a2,2,0,0,1,0,4Z"></path><path d="M85,57H49.5a2,2,0,0,1,0-4H85a2,2,0,0,1,0,4Z"></path><path d="M85,79.5H49.5a2,2,0,0,1,0-4H85a2,2,0,0,1,0,4Z"></path><path d="M74,89.5H49.5a2,2,0,0,1,0-4H74a2,2,0,0,1,0,4Z"></path></svg>