<svg height='100px' width='100px'  fill="#000000" xmlns="http://www.w3.org/2000/svg" data-name="Layer 1" viewBox="0 0 128 128" x="0px" y="0px"><title>Business Essentials final</title><path d="M94.91852,37.0094l20.49683,4.625a2.0272,2.0272,0,0,0,.44238.04932,2.00039,2.00039,0,0,0,.43842-3.95166l-20.49677-4.625a2.00026,2.00026,0,1,0-.88086,3.90234Z"></path><path d="M91.17249,44.23254a2.00062,2.00062,0,0,0,1.51074,2.3916l20.49579,4.625a2.0272,2.0272,0,0,0,.44238.04932,2.00039,2.00039,0,0,0,.43848-3.95166L93.564,42.7218A2.00072,2.00072,0,0,0,91.17249,44.23254Z"></path><path d="M88.93616,53.84729a2.00062,2.00062,0,0,0,1.51074,2.3916l20.49683,4.625a2.02707,2.02707,0,0,0,.44232.04932,2.00039,2.00039,0,0,0,.43848-3.95166l-20.49677-4.625A2.00375,2.00375,0,0,0,88.93616,53.84729Z"></path><path d="M86.70087,63.462a2.00062,2.00062,0,0,0,1.51074,2.3916l20.49677,4.625a2.0272,2.0272,0,0,0,.44238.04932,2.00039,2.00039,0,0,0,.43848-3.95166l-20.49683-4.625A2.00239,2.00239,0,0,0,86.70087,63.462Z"></path><path d="M87.65283,90.01416l13.7373,3.09973a2.0272,2.0272,0,0,0,.44238.04932,2.00039,2.00039,0,0,0,.43842-3.95166L81.91675,84.61877l3.5224,2.46582A5.99911,5.99911,0,0,1,87.65283,90.01416Z"></path><path d="M100.03564,98.82629,87.99872,96.11023v4.10114l11.15607,2.51727a2.0272,2.0272,0,0,0,.44238.04932,2.00039,2.00039,0,0,0,.43848-3.95166Z"></path><path d="M104.06879,83.548a2.00039,2.00039,0,0,0,.43848-3.95166L77.99884,73.61523v4.10107l25.62756,5.78235A2.0272,2.0272,0,0,0,104.06879,83.548Z"></path><path d="M72.31537,35.73077l1.73431.63068a5.98346,5.98346,0,0,1,2.783,2.10413A8.88083,8.88083,0,0,0,80.97925,32.839a8.76415,8.76415,0,0,0-1.123-6.686A8.94413,8.94413,0,0,0,74.204,22.16272a9.05132,9.05132,0,0,0-5.13867.34058,7.95508,7.95508,0,0,1,.93365,3.71313v.23737a4.98874,4.98874,0,0,1,3.32416-.38873,4.96909,4.96909,0,0,1,3.14447,2.21338,4.78679,4.78679,0,0,1,.61523,3.6543A4.98333,4.98333,0,0,1,72.31537,35.73077Z"></path><path d="M78.0047,65.52161l-.00586-.00134V69.621l1.06348.23993a1.999,1.999,0,0,0,2.38861-1.498l2.90521-12.49658a8.769,8.769,0,0,0-1.124-6.69141,8.91558,8.91558,0,0,0-5.23334-3.87207V49.599a4.915,4.915,0,0,1,1.84467,1.70142,4.79655,4.79655,0,0,1,.61621,3.66016Z"></path><path d="M2.62579,106.54l57.99927,21.21649A3.99992,3.99992,0,0,0,65.99908,124v-4.34106l5.22833,2.1864a1.99972,1.99972,0,0,0,2.77148-1.84521V114.17h7.99988a2.0001,2.0001,0,0,0,2-2V92.00012a1.99955,1.99955,0,0,0-.85352-1.63867L73.9989,83.95862V42.00012a2,2,0,0,0-1.31641-1.87939l-6.68341-2.43036V26.21649A3.99991,3.99991,0,0,0,63.37329,22.46L12.90955,4H77.57343v7.8299H87.99884V17.154l-31.04968-7.006A6.04555,6.04555,0,0,0,55.621,9.99976h-.00024A5.95725,5.95725,0,0,0,50.228,13.39233l3.80646,1.3924a2.00813,2.00813,0,0,1,1.58661-.785,2.032,2.032,0,0,1,.44775.05011l66.375,14.97681a1.97232,1.97232,0,0,1,1.50342,2.36414l-19.67352,84.60895-16.28284-3.67407a5.967,5.967,0,0,1-1.465,3.77l16.86743,3.806a3.99562,3.99562,0,0,0,4.77643-2.996L127.8432,32.29675a5.972,5.972,0,0,0-4.519-7.17194l-31.32544-7.0683V11.8299a4,4,0,0,0-3.99994-4H81.57336V4a4,4,0,0,0-3.99994-4H3.99994A4,4,0,0,0,0,4l.04236.44476A3.995,3.995,0,0,0,0,5v97.78351A4,4,0,0,0,2.62579,106.54ZM65.99908,41.94647,69.999,43.401V85.00012a1.99965,1.99965,0,0,0,.85345,1.63867l9.14636,6.40283V110.17H71.9989a2,2,0,0,0-1.99994,2v4.82568l-3.99988-1.67267ZM3.99994,5,61.99915,26.21649V124L3.99994,102.78351Z"></path></svg>