<svg width="80" height="80" viewBox="0 0 80 80" fill="none" xmlns="http://www.w3.org/2000/svg">
<path d="M75.9121 37.7426C74.5326 34.8926 72.1837 32.4925 69.723 30.5425C64.9507 26.7925 59.9547 23.5299 54.4367 20.9799C48.3594 18.2049 42.0958 15.9174 35.5711 14.3798C28.9346 12.8048 22.149 11.7923 15.4006 11.0423C12.1197 10.6673 8.83867 12.8423 6.9372 15.3174C6.11695 16.2174 5.52044 17.3049 5.1476 18.4674C5.07304 18.5799 4.99843 18.7299 4.92387 18.8424C4.10362 20.4174 3.35798 21.9549 3.097 23.7174C2.83601 25.6299 2.57503 27.505 2.35132 29.4175C1.97849 32.53 1.97848 35.6801 2.01576 38.8301C2.05305 41.8676 2.314 44.9051 2.68684 47.9052C3.13425 51.7302 3.35796 55.8928 5.63226 59.1928C7.98114 62.6053 11.2994 64.7054 15.2515 65.8304C17.8241 66.5429 20.5085 66.9179 23.1556 67.2929C29.9413 68.3054 36.6523 68.9054 43.4752 68.9804C46.3088 69.0179 49.1424 69.0179 51.976 68.8304C55.3688 68.6054 58.9107 68.2679 62.0798 67.0679C65.7709 65.6804 69.2383 63.8428 71.96 60.9178C74.4953 58.2178 76.6205 54.7678 77.478 51.1302C78.522 46.4802 78 42.0176 75.9121 37.7426Z" fill="#EBF2F5"/>
<path d="M38.4518 66.2539L38.7734 66.3518C39.9559 66.7095 41.0726 67.047 41.8088 68.5257C41.8274 68.5631 41.8535 68.5961 41.8856 68.6227C41.9178 68.6491 41.9551 68.6685 41.9949 68.6795C42.0202 68.6862 42.046 68.6897 42.0721 68.6897C42.1292 68.6897 42.1848 68.6729 42.2327 68.6416C42.7755 68.2847 43.2867 67.9614 43.7721 67.6544C44.789 67.0108 45.6674 66.4555 46.5074 65.8084C49.5201 63.538 52.2691 60.9319 54.7026 58.0388C57.9009 54.1715 61.208 50.1724 64.3211 45.9862C66.2695 43.3656 67.9307 40.44 69.3347 37.9046C70.7389 35.3391 71.5748 32.4966 71.7851 29.5731C72.1661 24.7687 71.0344 20.4383 68.4218 16.7022C65.5141 12.5441 61.6469 10.519 56.9362 10.6751C51.622 10.8544 46.9483 12.9055 43.0446 16.7716C42.8553 16.968 42.68 17.1776 42.5202 17.399C42.2167 17.7988 41.9287 18.1782 41.4952 18.3286C36.9418 13.8504 33.4603 12.0986 28.2522 11.6496C22.9073 11.1885 18.5802 12.9241 15.3905 16.8056C13.8075 18.7242 12.4201 20.799 11.2492 22.9985C8.75346 27.7169 8.2334 32.7356 9.7059 37.9162C11.0191 42.5401 13.2088 46.8624 16.1535 50.6434C22.0409 58.2268 29.5434 63.4795 38.4518 66.2539ZM16.4045 23.8921C17.0885 22.5908 17.8504 21.3328 18.686 20.1251C20.6726 17.1975 23.4724 15.7199 27.023 15.7199C27.4629 15.7199 27.9142 15.7425 28.377 15.7879C33.1195 16.2534 36.924 18.363 39.6845 22.058C40.0161 22.5017 40.3773 22.9125 40.6957 23.2746C40.8254 23.4223 40.9473 23.5612 41.0549 23.6883C41.0996 23.7413 41.1616 23.7766 41.2296 23.7882C42.5099 24.0112 43.0274 23.3409 43.4115 22.6973C45.6284 18.9847 49.0789 16.7685 54.2709 15.7234C55.5004 15.5092 56.7546 15.4774 57.9933 15.6292C59.9601 15.8166 61.6472 16.7926 63.0083 18.5291C64.5594 20.521 65.4789 22.9393 65.6458 25.4676C65.9203 28.3899 65.3888 31.3321 64.1102 33.9684C63.1466 36.0116 62.0499 37.9882 60.8273 39.8847C58.557 43.2619 56.1324 46.6194 53.7881 49.8662L52.9734 50.9959C51.2275 53.4163 49.422 55.8561 47.6764 58.2155C47.0464 59.0668 46.417 59.9184 45.7879 60.7706C45.5165 61.1384 45.234 61.4988 44.935 61.8806C44.8364 62.0063 44.7362 62.1343 44.6344 62.2649C43.797 61.9173 42.9818 61.5776 42.1823 61.2456C40.2952 60.4618 38.496 59.7142 36.701 58.9555C31.7328 56.8897 27.2326 53.825 23.4738 49.9482C19.62 45.9445 16.949 41.6612 15.3087 36.8534C13.813 32.4679 14.1713 28.2281 16.4045 23.8921Z" fill="black"/>
</svg>
