<svg width="80" height="80" viewBox="0 0 80 80" fill="none" xmlns="http://www.w3.org/2000/svg">
<path d="M5.05092 63.0272C6.16955 66.5155 7.76653 70.6122 10.4471 73.261C17.0055 79.79 29.735 76.3002 37.5794 74.4877C49.257 71.7795 60.4498 67.36 71.5624 62.9355C70.7126 63.2947 69.8629 63.654 69.0131 64.0132C71.661 63.3037 74.7928 61.3597 76.9439 59.6785C79.5751 57.6318 80.3007 53.9651 78.6432 51.0158C74.0972 42.9743 69.3012 35.0787 64.6637 27.0881C60.6917 20.2081 57.6198 11.5875 52.4553 5.55309C50.1933 2.8973 46.7065 1.35885 43.2269 1.31791C40.1724 1.29459 37.0102 2.53649 34.0991 3.3428C31.5804 4.04401 29.0616 4.74522 26.5674 5.43986C24.0486 6.14106 21.5299 6.84225 19.0356 7.53688C15.5362 8.50087 12.0253 9.5205 9.44249 12.2381C-0.624599 22.722 0.965637 50.2325 5.05092 63.0272Z" fill="#EBF5EE"/>
<path d="M53.3839 48.3951C55.6662 51.0991 56.8607 54.054 56.8114 57.4529C56.7434 62.1361 54.3378 65.6613 50.9573 68.5559C47.0179 71.9285 42.2571 73.3514 37.162 73.751C36.0461 73.8148 34.9275 73.8185 33.8112 73.7621C33.329 73.7526 32.8512 73.6676 32.3953 73.5101C30.5684 72.8482 30.2907 71.4947 31.7396 70.2218C33.1619 68.9724 34.6968 67.8465 36.0669 66.5449C37.1168 65.5397 38.0677 64.4359 38.9063 63.2487C39.7943 61.999 39.8724 60.5572 39.322 58.8957C38.4446 59.304 37.6042 59.6296 36.8318 60.0721C35.2123 61 34.2987 60.9615 32.9093 59.7419C31.5593 58.5564 30.2327 57.3447 28.8897 56.1514C28.6898 55.9954 28.481 55.8514 28.2643 55.7199C27.4496 56.4731 26.6923 57.224 25.8805 57.9103C24.8047 58.8198 23.7377 58.8437 23.0396 58.0384C22.3854 57.2846 22.493 56.2882 23.4384 55.3194C24.1093 54.6313 24.8759 54.036 25.4424 53.5371C23.9191 51.6779 22.3839 50.1535 21.2801 48.365C19.9902 46.2736 21.5844 44.4093 22.5805 42.363C20.6789 42.2437 19.1151 42.592 17.8582 43.5561C16.6587 44.5287 15.5769 45.6382 14.6349 46.8619C13.7225 47.9879 13.0128 49.2775 12.2027 50.4874C11.4391 51.6283 10.6567 52.8272 9.04888 52.6615C7.93576 52.5468 6.38363 50.5417 6.28066 49.0345C6.0473 45.5985 6.48485 42.2548 8.08919 39.1488C11.0284 33.4606 15.6585 29.7619 21.6902 27.783C24.2175 26.954 26.7635 27.218 29.3412 28.0033C29.4842 27.8387 29.6519 27.6748 29.7861 27.4873C36.7472 17.7588 46.2335 11.5835 57.4683 7.91629C61.2945 6.66752 65.1654 5.53076 69.2439 5.42662C70.2628 5.40066 71.282 5.32277 72.3003 5.33443C73.6284 5.34931 74.2906 5.82042 74.2369 7.1176C74.168 9.62792 73.933 12.1309 73.5333 14.6102C71.894 23.9338 67.4103 31.9301 61.5865 39.2232C59.3197 42.062 56.7674 44.6736 54.3422 47.3861C54.0554 47.7058 53.7506 48.0098 53.3839 48.3951ZM30.7218 52.7224C32.2387 53.9277 33.3433 54.8734 34.5308 55.6978C34.7326 55.7928 34.9531 55.8416 35.1762 55.8405C35.3993 55.8394 35.6193 55.7884 35.8202 55.6914C37.7025 54.6934 39.6274 53.739 41.3796 52.539C47.6205 48.265 53.2667 43.2994 58.0126 37.3919C60.5877 34.187 62.9438 30.8068 65.4472 27.4406L50.9407 13.9693C50.4619 14.1933 49.9954 14.4427 49.5431 14.7164C46.7137 16.594 43.829 18.3979 41.0967 20.4083C38.0339 22.6614 35.4421 25.4147 33.1284 28.4496C29.2911 33.4822 27.0318 39.3591 24.1924 44.9247C23.9101 45.479 24.0685 46.5953 24.4687 47.0909C25.5103 48.3811 26.8002 49.4712 28.1998 50.8459C30.3875 48.5783 32.3128 46.4591 34.3792 44.4851C35.5696 43.4164 36.846 42.4474 38.1955 41.588C38.9049 41.1061 39.8106 40.9419 40.4596 41.6819C41.1174 42.4322 40.5509 43.167 40.0886 43.7699C39.542 44.451 38.9499 45.0942 38.3162 45.6951C37.0036 46.9926 35.688 48.2863 34.3357 49.5412C33.2013 50.5957 32.0129 51.5906 30.7218 52.7224V52.7224ZM71.4874 8.1727C65.2803 8.18524 59.8019 10.4929 54.2165 12.3708L54.1167 12.7573L66.9634 23.5875C69.1649 20.0988 70.8529 14.3471 71.4874 8.1727V8.1727ZM40.7458 68.2828C45.9724 67.2984 50.0218 64.6474 52.2971 59.7888C53.8139 56.5463 52.7545 53.5199 50.9666 50.6429C47.9572 52.9403 45.0787 55.1383 42.2008 57.3356C44.4676 61.336 43.3066 64.8592 40.7458 68.2828ZM27.736 30.4413C20.2633 29.2161 9.93332 39.3206 10.6033 46.2575C13.6548 41.4387 17.5706 38.5353 23.4632 39.5799L27.736 30.4413Z" fill="black"/>
<path d="M12.5842 67.8114C12.8056 67.4106 13.0433 66.6819 13.5176 66.1753C15.3063 64.2655 17.1606 62.4164 19.0161 60.5708C19.561 60.0289 20.2503 59.687 20.9594 60.2654C21.7074 60.8757 21.3801 61.6049 20.9382 62.2087C19.4213 64.2798 17.901 66.3509 16.2981 68.3545C15.8213 68.9022 15.2153 69.3221 14.5351 69.5762C13.5252 69.974 12.5489 69.1734 12.5842 67.8114Z" fill="black"/>
<path d="M29.198 60.3855C30.2735 60.4147 31.0553 61.3846 30.5769 62.1357C29.3585 64.0263 28.02 65.8368 26.5698 67.5561C26.0503 68.1782 25.1174 68.0901 24.4576 67.4948C24.1559 67.2394 23.9585 66.8821 23.903 66.4908C23.8474 66.0994 23.9376 65.7013 24.1563 65.3721C24.5522 64.7129 25.0229 64.1016 25.5591 63.5504C26.3534 62.7045 27.1926 61.8977 28.0554 61.1226C28.4124 60.8418 28.795 60.595 29.198 60.3855V60.3855Z" fill="black"/>
<path d="M19.5899 52.1807C19.3845 52.6344 19.142 53.0703 18.8647 53.484C17.5102 55.1745 16.135 56.8481 14.7389 58.5048C14.4766 58.7872 14.1714 59.0266 13.8346 59.2142C13.1375 59.6427 12.4286 59.6421 11.8665 59.0074C11.2858 58.3516 11.4147 57.6238 11.9969 57.0597C13.9029 55.2121 15.8307 53.3863 17.7968 51.6031C18.0538 51.3698 18.601 51.3319 18.977 51.4013C19.2028 51.443 19.358 51.868 19.5899 52.1807Z" fill="black"/>
<path d="M50.2996 21.2145C52.1939 21.1885 53.6541 21.9633 55.1199 23.184C56.6394 24.4494 57.7744 25.7991 58.3353 27.6855C59.6299 32.0488 57.0685 35.2607 52.9144 35.8482C49.5476 36.3242 46.6918 34.9378 44.6147 32.3023C42.8353 30.0439 42.7872 27.416 44.0213 24.8908C45.2657 22.3428 47.5074 21.2416 50.2996 21.2145ZM46.3013 28.2051C46.7878 29.0446 47.137 30.1148 47.8618 30.7691C48.6127 31.4467 49.7045 31.7824 50.6893 32.157C51.9833 32.6494 53.1031 32.1278 53.9823 31.2125C54.8332 30.3272 54.8647 29.2152 54.449 28.0826C53.7938 26.2968 52.2656 25.4007 50.731 24.5924C49.353 23.8666 48.0453 24.3007 47.2598 25.6597C46.8593 26.3513 46.6802 27.171 46.3013 28.2051Z" fill="black"/>
</svg>
