<svg width="80" height="80" viewBox="0 0 80 80" fill="none" xmlns="http://www.w3.org/2000/svg">
<path d="M74.6992 47.6453C74.4479 46.094 74.1549 44.5726 73.8618 43.0511C72.7314 36.458 73.8199 29.7456 72.522 23.1228C70.303 11.7863 55.3979 1.9713 38.1483 7.66937C27.3044 11.2493 19.3077 19.7815 14.1998 27.18C12.3157 29.8948 10.8084 32.7289 9.25932 35.5332C5.11438 43.2301 0.801957 52.4484 7.41712 60.1453C10.3898 63.6357 15.4139 66.3207 21.0661 67.156C31.4913 68.7073 42.4607 67.8123 52.8859 66.9173C69.2982 65.4854 76.6251 59.3398 74.6992 47.6453Z" fill="#F4EAFE"/>
<path d="M59.2415 46.09C62.6291 41.9153 64.806 36.8987 65.5378 31.5819C66.9767 21.0103 62.6381 12.6427 53.3214 8.02046C50.4449 6.59333 47.3123 5.82606 44.3508 5.16294C36.7652 3.46436 29.8197 4.78059 23.7058 9.07357C18.7306 12.5676 15.997 16.8353 15.3491 22.1212C14.8607 26.1479 15.1253 30.2299 16.1297 34.1607C18.1568 42.185 21.7835 48.4916 27.217 53.4402C27.3523 53.5636 27.4895 53.6865 27.6268 53.809C28.2317 54.3175 28.7891 54.8794 29.2922 55.4879C29.7528 56.0846 30.2834 56.8547 30.2962 57.5181C30.3429 60.0075 30.1972 62.4612 30.0328 64.7399C29.9309 66.1508 29.7677 67.5841 29.6097 68.9704C29.513 69.8174 29.4166 70.6647 29.3326 71.5142C29.1456 73.4004 29.7918 74.3439 31.563 74.7712C32.6137 75.0311 33.6917 75.1658 34.7743 75.173H34.8738C38.4609 75.1426 42.1049 75.0608 45.6312 74.9816L47.9834 74.9293C50.2666 74.8796 51.1866 74.052 51.378 71.8759C51.7131 68.0639 51.874 65.1371 51.8987 62.3851L51.9022 62.0909C51.9219 60.4582 51.944 58.6165 50.5146 57.042L53.1744 53.7038C55.202 51.158 57.2244 48.6202 59.2415 46.09ZM48.0253 56.5774L44.0424 56.2777C44.0368 56.2456 44.036 56.2129 44.0395 56.1805C44.6264 53.9336 45.2194 51.6884 45.8182 49.4452C47.1503 44.4273 48.5274 39.2385 49.7778 34.1081C50.7429 30.1499 50.7736 26.6423 49.8711 23.3853C49.427 21.7827 48.5837 20.599 47.4317 19.9622C46.8767 19.6727 46.2689 19.4981 45.6445 19.449C45.0202 19.3999 44.392 19.4773 43.7985 19.6766C43.3254 19.8333 42.8697 20.038 42.4386 20.2872L42.2614 20.3813C41.9826 20.529 41.7239 20.6993 41.4501 20.8777L41.2993 20.976C41.2241 20.8817 41.1506 20.7877 41.0774 20.6943C40.8097 20.3399 40.5239 19.9993 40.2211 19.674C38.6114 18 36.2951 17.837 34.456 19.2693C33.2113 20.2728 32.2679 21.5978 31.729 23.0992C29.8327 27.9426 29.6919 32.9926 31.3106 38.1085C32.1577 40.7859 33.055 43.4956 33.9242 46.1157C34.2518 47.1043 34.5786 48.0933 34.9046 49.0822C35.6139 51.3013 36.0288 53.6029 36.1388 55.9291H33.1007C32.9314 53.746 31.4743 52.2657 30.0656 50.8322C29.8042 50.5674 29.5429 50.3015 29.2894 50.0309C23.4714 43.8344 20.2787 37.1979 19.5295 29.7423C19.2713 27.1748 19.0802 24.441 19.4267 21.8451C19.9494 17.9282 22.1945 14.6474 26.2898 11.8145C31.2778 8.36417 36.8248 7.2498 42.7738 8.50234C45.9102 9.16229 48.9575 9.87311 51.761 11.302C59.0191 15.0021 62.3381 21.4411 61.3583 29.9233C60.6828 35.772 57.978 40.929 52.5878 46.645C51.1727 48.1467 49.592 49.989 48.5994 52.268C48.0839 53.4517 47.5821 54.8485 48.0253 56.5774ZM48.2065 63.8293L48.0404 66.3827H33.022V63.3764L48.2065 63.8293ZM47.7415 69.6477L47.6547 71.6096C43.1615 71.8079 37.9814 71.9756 32.8674 71.5871C32.8573 71.5174 32.8469 71.4518 32.8385 71.3897C32.8016 71.2064 32.7827 71.0202 32.7823 70.8335C32.8024 70.3981 32.8448 69.9608 32.8893 69.498C32.8997 69.391 32.91 69.2826 32.9203 69.1731L47.7415 69.6477ZM32.7612 58.4723L33.1896 58.4847C38.357 58.6356 43.2422 58.7784 48.2375 59.2964L48.3101 60.5253C43.1935 60.8074 38.065 60.7953 32.9499 60.4883L32.7612 58.4723ZM36.6279 45.3078C36.4397 44.7126 36.2504 44.1174 36.0712 43.5205C35.0955 40.2861 34.1572 37.1129 33.4033 33.8528C32.7025 30.8245 33.1129 27.6196 34.6904 23.7666C35.0386 22.9952 35.5365 22.3 36.1557 21.7209C36.2705 21.5844 36.4129 21.4733 36.5736 21.3952C36.7343 21.317 36.9097 21.2734 37.0885 21.2673C37.4271 21.2829 37.7781 21.5047 38.1315 21.9262C39.0431 23.0133 39.0627 23.2882 38.3196 24.5979C36.8077 27.2632 36.1919 29.8235 36.4373 32.4248C36.4948 33.2432 36.6867 34.0462 37.0054 34.8027C37.1335 35.1837 37.3642 35.5225 37.6723 35.7821C37.9803 36.0417 38.3541 36.2122 38.7528 36.2752C39.1514 36.3382 39.5597 36.2911 39.9334 36.1391C40.307 35.987 40.6315 35.7358 40.8718 35.4129C41.4104 34.7871 41.8325 34.0705 42.1185 33.2972C43.201 30.5549 43.4097 27.5475 42.7162 24.683C42.4975 23.7447 43.1641 22.9566 44.5459 22.5204C45.107 22.3432 45.5478 22.3429 45.8554 22.5184C46.0148 22.6295 46.1492 22.7724 46.25 22.938C46.3511 23.1037 46.4161 23.2884 46.4411 23.4805C46.7896 25.0082 47.2208 26.9094 47.0033 28.6172C46.6258 31.5707 45.9831 34.5475 45.3608 37.426C45.2446 37.9674 45.1288 38.5086 45.0126 39.0494C44.6397 40.7997 44.2323 42.5746 43.8381 44.2908C43.3093 46.5959 42.7636 48.9795 42.2902 51.3389C42.0902 52.4964 41.9787 53.6668 41.9566 54.841C41.9351 55.3119 41.9132 55.7949 41.8807 56.2898L38.3407 56.073C38.8225 52.2457 37.7079 48.72 36.6288 45.3078H36.6279ZM39.6281 30.408L39.8331 29.1521C39.8323 29.5788 39.7634 30.0027 39.6289 30.408H39.6281Z" fill="black"/>
</svg>
