<svg height='100px' width='100px'  fill="#000000" xmlns="http://www.w3.org/2000/svg" xmlns:xlink="http://www.w3.org/1999/xlink" version="1.1" x="0px" y="0px" viewBox="0 0 100 100" style="enable-background:new 0 0 100 100;" xml:space="preserve"><g><path d="M49.4,51c5.9,0,9.3-5.5,9.3-11.9c0-6.3-3.2-9.6-9.3-9.5c-6.1,0.1-9.3,3.2-9.3,9.5C40.1,45.4,43.5,51,49.4,51z"></path><path d="M54.6,53.5l-3.5,14L50.8,57H48l-0.3,10.5l-3.5-14c-4.7,1.3-8.3,4.8-8.3,8.8l-0.8,12.8h28.6l-0.8-12.8   C62.9,58.3,59.3,54.8,54.6,53.5z"></path><path d="M47.1,53l0.8,3.1h3l0.8-3.2c-0.4-0.1-0.8-0.1-1.3-0.1h-2C48,52.9,47.6,52.9,47.1,53z"></path><path d="M67.9,62.7l-0.8,12.4h6V55.3C70,57,67.9,59.7,67.9,62.7z"></path><path d="M94.1,62.7c0-3-2.1-5.7-5.2-7.4v19.8h6L94.1,62.7z"></path><path d="M81.9,53.6H80c-1.1,0-2.2,0.1-3.2,0.4l1.3,8.5l-1,12.7h7.7l-1-12.7l1.3-8.5C84.1,53.7,83,53.6,81.9,53.6z"></path><path d="M71.7,38.5h18.5c0.7,0,1.3-0.5,1.3-1.1c0-0.6-0.6-1.1-1.3-1.1h-0.4c0-2.9-2-5.4-4.9-6.6l-0.3,1.1c-0.1,0.3-0.4,0.5-0.7,0.5   c-0.1,0-0.1,0-0.1,0c-0.4-0.1-0.6-0.4-0.5-0.6l0.4-1.5c-0.3-0.4-0.9-0.7-1.5-0.7h-2.5c-0.6,0-1.2,0.3-1.5,0.7l0.4,1.5   c0.1,0.3-0.2,0.6-0.5,0.6c-0.1,0-0.1,0-0.1,0c-0.3,0-0.6-0.2-0.7-0.5l-0.3-1.1C74,30.9,72,33.4,72,36.3h-0.4   c-0.7,0-1.3,0.5-1.3,1.1C70.4,38,71,38.5,71.7,38.5z"></path><path d="M71.9,40.4c0.1,6,3.4,11.4,9.1,11.4s9-5.2,9.1-11.4H71.9z"></path><path d="M26.7,57.2c0.1,0.1,0.1,0.1,0.2,0.1c2-2.1,3.2-5,3.2-8.1v-6.7C30,36,24.7,30.6,18.2,30.6c-6.5,0-11.9,5.4-11.9,11.9v6.7   c0,3.1,1.2,5.9,3.2,8.1c-2.2,1.5-3.7,3.8-3.7,6.1L5.1,75.1h8.3l-0.1-15.7l5.9-4.5c-0.1,0,1.5,0.1,2.3,0.2l-6.7,5.1L15,75.1h16.2   l-0.7-11.7C30.5,61,29,58.8,26.7,57.2z M18.7,71.9c-0.6,0-1.2-0.5-1.2-1.2c0-0.6,0.5-1.2,1.2-1.2c0.6,0,1.2,0.5,1.2,1.2   C19.9,71.4,19.3,71.9,18.7,71.9z M18.7,67.4c-0.6,0-1.2-0.5-1.2-1.2s0.5-1.2,1.2-1.2c0.6,0,1.2,0.5,1.2,1.2   C19.9,67,19.3,67.4,18.7,67.4z M18.7,63c-0.6,0-1.2-0.5-1.2-1.2c0-0.6,0.5-1.2,1.2-1.2c0.6,0,1.2,0.5,1.2,1.2   C19.9,62.5,19.3,63,18.7,63z M18.2,53.2c-5.4,0-8.5-5.1-8.5-10.8c0-2.4,0.5-4.3,1.5-5.7c1.4,1.2,4.4,3.5,7.9,4.3c0,0-0.5-1-0.8-2.4   c0,0,3.6,3.3,8.3,4.9C26.2,48.8,23.1,53.2,18.2,53.2z"></path></g></svg>